<mxfile host="app.diagrams.net" agent="Mozilla/5.0 (Windows NT 10.0; Win64; x64) AppleWebKit/537.36 (KHTML, like Gecko) Chrome/131.0.0.0 Safari/537.36" version="24.9.1">
  <diagram id="C5RBs43oDa-KdzZeNtuy" name="Page-1">
    <mxGraphModel dx="1694" dy="1992" grid="1" gridSize="10" guides="1" tooltips="1" connect="1" arrows="1" fold="1" page="1" pageScale="1" pageWidth="827" pageHeight="1169" math="0" shadow="0">
      <root>
        <mxCell id="WIyWlLk6GJQsqaUBKTNV-0" />
        <mxCell id="WIyWlLk6GJQsqaUBKTNV-1" parent="WIyWlLk6GJQsqaUBKTNV-0" />
        <mxCell id="sDRr9QzIVoGOXBDVQPze-2" value="" style="edgeStyle=orthogonalEdgeStyle;rounded=0;orthogonalLoop=1;jettySize=auto;html=1;" edge="1" parent="WIyWlLk6GJQsqaUBKTNV-1" source="WIyWlLk6GJQsqaUBKTNV-3" target="sDRr9QzIVoGOXBDVQPze-1">
          <mxGeometry relative="1" as="geometry" />
        </mxCell>
        <mxCell id="WIyWlLk6GJQsqaUBKTNV-3" value="After Login" style="rounded=1;whiteSpace=wrap;html=1;fontSize=12;glass=0;strokeWidth=1;shadow=0;" parent="WIyWlLk6GJQsqaUBKTNV-1" vertex="1">
          <mxGeometry x="160" y="80" width="120" height="40" as="geometry" />
        </mxCell>
        <mxCell id="sDRr9QzIVoGOXBDVQPze-0" value="" style="shape=image;verticalLabelPosition=bottom;labelBackgroundColor=default;verticalAlign=top;aspect=fixed;imageAspect=0;image=data:image/png,iVBORw0KGgoAAAANSUhEUgAAAOUAAAGICAYAAAC+1CcmAAAAAXNSR0IArs4c6QAAAARnQU1BAACxjwv8YQUAAAAJcEhZcwAADsMAAA7DAcdvqGQAAFnXSURBVHhe7Z0HYBVF14ZfUiGVhFBCCwkdQif0KggK0ntR4EcUEEGUIgpSFBSkCNKrKF1EpDfpvYbeQ+8pkN75z5nsDUlI4OYmkQ3fefz2y93duVvnnVNmuJPl6rVbzyEIgm4w0/4KgqATRJSCoDNSLcrY2Fj4+/njaUCAtuXVPHv6FCHBIdqa8YSHh+P0qTMIDgrStgjC/wapFiWL5cK5Szh/9pL6/Dpu37qLx4+faGvGk4WXLPz/gvC/RapF6fvED47ZHWBnb4un/k+1rYmJiY5GZEQEnj9PPofE1pb3x8bEJlrn7xmwzpoVZcuXofPYa1vieN2xBSGzk6rsa0xMjHIpCxTMT1YyktxYP5Qp5wkzszhts2Aunr+MBw8ewcLSAo6OLKgscHLODnePQrjhcxOPHsVZzfCwMFhZWMGjqDuuXLqG2Ocx9P1YeJYthdx5ciGCrPDJ46dpvSSsrKzUZ24IfH39qVwMbG1sUKFyWWTNlk0dTxDeFlJlKUNDQhBJYrSzt4MzCS0kKFRtM3Dv3kMEh4Si7ju1UL9BHRRyd0NAEmsaGxWDChXKoN47dZAzjwt8rt6AV7WKar14yaK4c/uuEn9SoqOiYUNCrPdObdRvWAc2dtlw+/Y9ba8gvD2kylJeu3od4aHh8CxXWrmcZ0+fIyvohIJuBZQr6n3qNHLmykWWNJ8qb9jGZQyWMjgoWFlXhmPNmz63UKlyeZhbWCRajyarm9RS8md7Bwf13aTHMoYnJsS2gpBe5MyVU/v0aowWZVRUFE4c8yZXNQvsbG3UtsAgspJZgMpe5elPFpw47o1CHm7IleDkLFy2rHoQpSBkBox2XwOfBZELGYX8+fPC2SWHWvIXyIuoiEgljixZzGBhYU6x4ouMLLuhkZGR2pogCMZgtCgfP3qMHC7OyEuizOOaWy35C+SDk1N2PHzwGGbmZnDJmRN3b91DWGio+g5nav39ks/QCoKQPEaL0t8vQIkuKbld86hkDndTsOV0ye2CfXsPYdeOPSTWh0rIgiAYT4YMSOeukZjYWBULCoKQOlLVJWIsnLQRQQqCaWSIKAVBMB0RpSDoDBGlIOgMEaUg6AwRpSDoDBGlIOgMEaUg6AwRpSDoDBGlIOgMEaUg6AwRpSDoDBGlIOgMEaUg6AwRpSDoDBGlIOgMEaUg6AwRpSDoDBGlIOgMEaUg6AwRpSDoDBGlIOgMEaUg6AwRpSDoDBGlIOgMEaUg6Ayjpy14+OARngakbbIenqeSZ2kWBCFljBJlUGAg+n0yWFszHZ7bcub8ychmEze/pSAIL2OUKO/fvY9hg0Yjb35XVK1eSduaOo4cOkHHeYAfJ45U0+kJbyc8DaKFpSUsaRFMwyhR3rt7D98MGoMqJMjPBnyibU0d03+Zg2OHT6ZKlDdv3ML4H6bA2dkZQ4cPgIOjo7bnBYf3H8Ws6QtQu251fNynu7b17SDw2TO6/6nIkgX4esRA2Nnba3tS5mlAAMaNmojO3TqgfMWy2taMgWf3Dg8Lg42tHczNzVSI89OYiShboQz+75OPtFJCaskUiZ4H9+/jwoUr2toLeJboA/sPa2tvHz7XbiKMKn1ISChu+NzStuqH82cv4vsR4ym8eabWeU7/vl98iuatPlDrgmkYJUozrRi32AbOn7mAH6lVXPrbCm3Ly5w64a3K8F+OJ5ks9F9qsLezhZtbQXgfP6Oma0/I7Vt38Iha5wIF82lbXsBzZLKlYcsRHv5iyneG14ODguh4seovl+FWPynPnz+P389/eT0phvPwwp/5OEnL8nk4Lk/uWlKC7/XwweOoWKkcKlUuT+7/8WTPz7DLyMc2zKBtwHBtSe/NcD0Jr4XL8DEM95GQF88rBg8oBLlz+57aFhIcgli6psDAYHVufsd58+Ymi544Z/CqYzOpOTd7T3z9hn1XLl/Dk8d+yT6b151Xr1hof19JLP3HJLzvbZt34tKFq7hy6RqatmiM7E5O2p4X8NTqXKZqdS/ExsZ9+Tn9l1oqVamAHdt2k8V8qKZ0N3COGoa8+fLCKmvi+OWM9znMm7kIkfRSrK2sEEyVp13n1nivSUNqWLJg5/Y9OHnsFFyoZT914jSe0wvPYm6OXuT+Vq5SUR0jwN8fs6YtwLWrPnBwsKeKFwTPsqXQ+/OesNESVdwozJo2D48ePoGVtRVccrqgbv2aOHncGwMG9UXWrFnjj3PT5yasaZ2tXss2H6Bp88ZqHs+U8PPzJ0vpg+4fd1UewbLfV6np6nPmctFKxInur1X/YMvGHer8MXS/7zSqH/+EI+h70ybNgrtHIXTp3lHbyp7HA0z8cRp6fvohypTzjH9e/I6iY6KRLas1Pv3s/1DSs6Qqz8/rKDUQfI7L9L45VOD8wsqla9T+EUN/UNu69uiIGVPn0TFLo0mzxkoo/N1Vy9eo98BisrQ0x4DBn6lrYow597EjJymEyY6rl6+rd1nRqzwqV66AJYtXwsLCDEFBIfTca6FLt/bxz/R1x9UzJllKbn3OnjmnPvNN7911UH1meJr1DWs3Y9JP07B10w5tKx3DREvJuHu4wTmHE44fPaltiYu3jh0+hXKVysDK8sUEtQF0bX+vXk+Vsy5+nTMR02j5tF9PbKdG5OG9h1opEtTNOyhNL2j2wqmYPn8KvKpWxJYN2xBKLT5Xno3/bKMXbI6J08bil1kTMH7KDyS+x8piMVzu9wVLyUrnx4z5k9VxOndtS9/bovYz3JIvmPsHid8F0+ZOwq+0DBs5CDu27sIxahReBbuGllbWyF8wL9w8Cqpt16/4qL8G+Bj87AcO+QyzFvyizsGNx+NHvmo/Nx7ValbFhfNX1PMywM/RxcUJhYt6qIZl0bwlaN+5DabPm4SZ83/Bu+81UNuePI47DnP/3n3UqlMdC5fOUrE7i47Pmzu3C6bO+inZeJ4bka0bt6Nrt46YOvtnTJs9ARVJTHv+PaAsn7Hn5sa4DjV2/C5/nDQa98hibqZ3NWrct/RuflYN5cnjp3Dnzj1V3tjj6hWTYsr9uw/RQ32O2vVrqPV9ew7Guw9TJ8/CnyvWUkt1XlmQ9MDW3hZly5dWxwwlS8NwvBUVGQHPMqXUugEnstgjfxiGVm2bx88mXay4ByzMzfDE10+tM+5F3EmIFZTl5HJsIQOfBalGhZMW3OoPHf4lNQbOqrxLTmd40HduXL+p1u/euQ9f3wA0IYuXLVs2ta2kZ4l4S8vcvnUXj+kZtGjdVFlNpggJoUq1yjhx9JSqmMnBlvHkMW+UKl1MJbeyZ89O919Gxc+8j+Hv8jHKU6PkWba0ug++jsZNGsDGNu56mNKlS6i49BY1Qgw3JudOnydrU0GJ9ujhE/Ao7IYataqoY/C9165XXTUICRsBfl6c6OP9xhIdGUVWiqyjVZwnw1bso56d0b1XFzqOufHnpka5eMli6rNjdgd6Hg4oU8FTvROmaDEP9Q6fBsQ1PMYeV68Y5b4mhMW3d/cB9blNu2bkngXQS76IS+cvoViJorhw9hIJwwFjfx6lrMriBctU2bTClX33v/txnVy6UmThON7iiuqSM4dW4gXBwcE4tP8oTp08jSdkNZ4FPCVXLpqsepwbzpiZUeWiF5YS7BqeJfeY78Hn2g2Ka0KU68RuGsONg5WlhaogBrgCOJMFukdWheEybC04g8yNgoGQkDAULJRfxTxcOZPy+NET3CFB16pbQ3klTGESBVs43scuPH83OCiYKmycIA3w9XAcbiCXay5qlIqo+2DxcmPyjBqfsuU91f6n/k9xjqzysK9GqnWGm1d+Zv7auZnXPa/k4HPXqF0Vc2csxOoVf6MCxcfVanihELmuLBRjz50cNjYvGp6kpOW4eiDVorx88Qoeae7RF32Hqb/M7p37lSjjyII7t++qFHl64Zo3D0pQa8mVi11Zjrc+7tsjUYVkOIab+ON0JZj6DevAo6g7xR0WmEzutLGwFVq6eBXFMifI7XlHxYn5C+TF8j9WayWMx9bWBs1bN4FtkkpkT3FqSn15LL4AavVnUnyWFN6XMK5+HSz6mnWqYslvK1UDcYyeXyGyPPw8Dbi7u6EBuftJyZ/f+PMkB5+7bYeWaPRefZw/cwknTnhTAzUZderVQqeP2qkyGXXujDruf0Gq3dddO/aqvx5FCqFEqaJq4VbrOLlSERGRKFWmhKpQP46ZTDHlv6psemCoXNfJbfU+cZbcOnsllKTcunmXXLwI9B/UG3XeqaUqcDRZvbAw47KeDGcmz505j24fdyFBNaV7LA4ra2sVrxnI7uRIMWOEykQaYOt6/eoL98iO3O5s2bIql9WLXFbDwomQosWLJmslDe5ls1bvY/GKOYkW3sb7uAwL2pFcW+4qSegG+/r6I5AsaELcChVQ5b1PnsHFi1dV4sxwbpdcOZR7Wa5i2fjrq+hVUV2ja35XVcZU2Ktib8HWzh7VyWL2++JTfNijM4UhZ9UzzqhzZ+Q9/RekSpSREVGqYpYjf37EmKEY9t0gtbTp0AJFyK+/evU6BnzZB+06tlQxoEG0Ts4vd/qbAlcuK7J669ZuUgkMQxY0ISyEKIplbt64rSoFu7JbNmwnlzFEK/F6WIAses4scwzHYuNBCpx+N1CAxF6xcnlyzRapxI03ucqLFy4jUd7QSgAF3QogH7XMSxatUAkGvh5OQoz8ZhzWr92olUqMilWf+KN8xTLalhfwNt7HZVhU7EpzBvrAHo7xY+Hv54+/Vv6j4uKEcFxameLnjeu2kjgtUKpUXHzGcIKLG5YN9Ew5McX3um/PAQweMBzX6H2+ChvyAiKjovH4sZ9yp5PCocbQgSOUx8HXx7Ht2dPn1LPlZ5yWc78KY47L73LUsLHx75Q9rPHfT8L6NZvUe+KGbsWSP9WgF24E/0tS1SXCrc8Xgz9TnxPSsHF9tRj4oOX7+ADva2txHNh3RP01pUvEAFeuCl7lcGDvYWoYXq60DLst77xbF79OnqMqQtZs1mjW/D3kcHk59kwJFnub9i0wh2Ihtvbm5lkoNqoGzzIv0umctOjcrT3yF8yHndv30rmiUY/cZRc6z8ULl1UZTj5079UZf5Aohw4cTmWe07HM0ICu772m76oyCeHKwF0PnMDIm+/lFp238T4uU7RYYfJKSir3cOkfq1SWl++1XcdW8CM3NSncncNdJ0UoNk04Moobjd79elLsvwT/rNmstjk42KFrj04Ux3qo9ZQoXLiQ6kflUTyciOn9+cfanjj4+y3bNsOieX9g1rT5ahs3rH3ofPyMeTH13K/CmHvy9w9Q2Vr+y0SER+LBg8cqsce5B164IeXYPjQkPFkDkFHoephdWuCWO4SspK2dXYqx2+tgUYeGBKuYNLlB9Lyfu3oSxrWb1m8la3A+vp/SQHpcT0qwJWBPgK8xLcfmAQDs6huGzRkLn59Jqd/VcH18bSn9YwRTz/06Muq4GYkMSDcRdsVm/DIXhYu6oylZYraKnBmd8vMM1Q3RpXuHl5JQgmAMxv3TraAg9Os1SFtLGzPmT4IdWYu3gYvnLiq3kYd5Mezmcpz5YY+OcMyeXW0ThNRilCgZ+UfOyWNwcTkxkDVbtkQuqyCYgtGiFAThvyFzRL6C8D+EiFIQdIaIUhB0hohSEHSGiFIQdIaIUhB0hohSEHSGiFIQdIaIUhB0hohSEHSGiFIQdIaIUhB0hohSEHSGiFIQdIaIUhB0hohSEHSGiFIQdIaIUhB0hohSEHSGiFIQdIaIUhB0hohSEHSGiFIQdIaIUhB0hkmi5J/pv3ThsprOICV4H5cx/KS/IAjGYZIoD+w7qCaFvXgubsq35LhA+7gMlxUEwXjEfRUEnWGSKEuULIZW7T5IdnpzA/kLuKoyXFZ4s/DcmDxPo5A5MHoqvH+37Vaf3QsXgrWVFS5dvKLWXweLMiIiQs3NzzRoVA/29vbq8+u4eeMWxv8wBc7Ozhg6fECiGYgN8LTns6YvUFONf9ynu7Y188PzX/7953rs2bUf4WER9MwtUKFyeXTo0kbNNmwsPGHrzKnzcPfufXw7alCyz/B/lV079qBYiSJq5mc9kapJY5l3G9eHrYMN1v6Z/Jz9SWnZrimCngbj3+171HpqJo01iDIiPByf9OuJatW9tD1xREZG4tfJs3HG+/xbJUrfJ/74ZeIMElQUWrRthuLFC9OzuI11f21SMyJ//lVfFChofEXiyWyfPQtEkaIeMpGtxp3b9zB8yBjY2dni6+++StXzzGiMEmUkWTqf6zfVZ55j8tCBI9SKb1CCK1myuNqeFLakXIZd2Oo1qyJAm1vegyytlbW1+vw6WJQzf5kLW1tb5HbNjV59u8Pc3FzbC1y7eh1zpy9UxyvkXjCRKA1TevPc9UnnjWR3LpwsEU+5HRkRrix5cnNLPn/+XE2JztNz8xTrPDV60kptOA/D1xlL3+FGJGHZhMexpmtNaYpxhssu/+NPnD1zAV8N7Q+XnC+sYii5oDxNvbWlNfoM+FjNHh1O54qm+0l4voT3x1OKJywTGxMT/1wSws+VyzOG+TYTYmZmpu4v4RTqfFw+j+G7SacvT/gOMmJa+bSyY+su/LFoBV17NgwfPVg3FtOk+SnX/rVeCe6zAb1QpXplbWtijhw6rtwmFmXLNs20ranDIMo69WthB7nPg4b1p1j1xYPj67h5/TasslrCytIqXpRnvM9h3sxFiKSKyK52cHAI2nVujfeaNFQV1/vkGSxdvFLNurx75z48p0oTHR2TqEyAvz9mTVtAwveBg4M9AgOD4Fm2FHp/3hM2mqhu37pDZebh0cMn1DBYkYBcULd+TZw87o0Bg/oqkbOQFs9fhuNHT1KltqFKGorqtaqga/eOyU4wGxAQgB9HTUSzVk1Ru14NbesLzp4+hwWzF+PLr/ujoFsBbFq/lbadjz8fw/e3jO7vG3JXszs5JSrDk/+y9xEaEqbKGsid20WVZ8bR+R898lWfDXDFHTp8IDV+bqrh2Emez6rla+i5W6pGKGfu3OhH9cE1v6sqb3gHsbHPlVgjyKvpRe+ncpWKar9eSCjMYWQx+Zm+aTJF9tXdw43iKCdVsQ0EPnuGY4dPoVylMkqQBrhS/716Pd5pVBe/zpmIabR8Sq7v9s078fDeQ60U4OfrRxYrK2bOm4xZC6dRw/EBdpLwfZ/4qdmZN/6zjayCOSZOG4tfZk3A+Ck/kPgeq8aGYbH9vmApuT35MWP+ZMxeOBWdu7al721R+xm2NquXr8Wzp88wefo4dS0/ThqN69duYsvG7VqpxDz1fwpuJQu4Jd9qc3LNkhoaf784zyO1sKhmLfgFi1fMUcukX3+kcMIVdd+praaEZxFPmDo2fv+shVNQumwJVPIqjwJag3iaRL+B7nPAl33w69xJmD5/CgoXLYQFcxer58LLujUb6Ji11D1Pnf0zWrZuiv27D6lYWU80pHCMp8PnRmrc6ImqoX3TZApR2trbomz50ip2DCVLw/hQxY6KjIBnmVJq3YATVaqRPwxDq7bNlXvHFCvuAQtqrZ+QEA3kcMmhrBq7Y9ySl63gCXb+2N3i9a70ooYO/zI+qcJupEcRd9zQ3Pi7d+7D1zcATZo3RjZyfZmSniUSWQI/P39cvHAJLdo0VRWeyZU7Jxq8WzfRvSTk2bMgZdlTgq14ekWF7F6u/WsdhSSOqP9unXj31wBbxF3b95LX8IwarebqWXFDc2D/EQpJvNT9MvycG73fQF07Pxd2kcPDI+OfPx/3/WaN8cWQz+KflZ4wCDMsNFwJ88b1G9qeN0Om6afkys7W4fo1H1UxDh88TkItQ2LJoZV4QTDFb9u37MSEcVMweMC3GPrFCOWOJYyjuPolrYQJ4QrLbuCcGQsxdOAI9Ov1FQ7uO0IVLu4YLCgrSwtkz+6g1hk+nrOLk7YWVyYoMARzKO4dQtdhWNat2YhgcocjqVFJiqOjvUo+ZDQsuK2b/6UKeBv/16tbvEueEPZMOGzo1btbfGzL8WpwUDD27DxAz3V4/D1NHj+dvA9/dc929vZo0LgeNpLb/EWfwZg/+zecI/eZn6lesaB3qRcyjShd8+ZR3SvsPj588JAspQ+q1Kj8krA4Fvxx9GQc3HsY1ap5qThqzPjvVMxkLCz6pYtXqdjN1TU3evTqSu7raNSqU00rYTz8shs1aYB2nVrFL9wqd+3RieKYl8XHFZp5eO+R+suu9JVLV3H1ynUlpMeP/ShWjiY3M21dGyy49Ws3o13HFomSSQZ8rt3AHwuXq2tnDyEp7FkkvKdOXdugD8Xbbu5xMVn9BnUwZcZP6EmCZqZPnYdpk2ar5JDe4Lhy0dwlKpz5ZuQguBd++X7/SzKNKDnDV7NOVRWPeZ84CweyKMkNXrh1866yQP0H9UYdimk4McRZz7Aw4ytDUGAgzp05j24fd0FzioVKlCquMryc7DHAoggPj1CpdQNsCa5f9dHW4rKx1tZWKt3uVa1y/FK2vCdKk+tncO8SwrFzydLFsX3bLmXx2ZXmzC8nzU4cO4VN/2xVx8ubLy6hwigPgARrIJzcsFfB45HX/LkOzVq+j3IVy2pbX8Ax4apla1QirBG5dgnhDKqjoyNsybJWrlop/p64LN8Xhw8MH4OTbOXp+B/37o4BX/XGLYrXONGkJxImeliQmSbRw10iPLicF052GLh3/3789qTLg/sPtFJQ3zFs52OZiluhArCiCrpu7SZUq1k1WZfLjuLPqMgo1a/HloUr9pYN2+O7LYyBBciiv3LpmuoLZbHxIIUrl69pJaCSHlwR585YpF6s98nTWLxwGYnyRTzCrnW5CmWw5LeVKoHA1/PksS+mTJiBebMWK4ucFG58mrf6gCp1GCaNm6aspHOO7KhHDcyvk+co971V22bxguYuptvUEO3asVdlQW/43MS2rTthnoI7xmJZNP93iqmdUbW6F549fYqnAQEqccb3ycuqpWtUXNvwvfpq4Ajv54VdV74+7hM+sP+wGtjA5dn6/bNmA0YM/V7dHy+jho3F5vXb1H5+hhfOXyJBW6iGSi8k7RLRgyAZ3Q8e4C6Rvl98orKGDHeDHCDXdMi3A5EzV5xLOn/Wb+ovd4lwJdi4biuV26Bcv6zZrNGs+XvYs/sAunTroFrupF0GTNJzXTx3UcWTAQGBVBGzoEbtaggjoXCiwtD1wpVt764D2Ll9L50rGvUa1kFURCQuUuNj6KLgCvvXirXq/vl6+FgsZnZhDcmf5PD388eKJavJzTwV/z0r66woSS68oY+S4fvdtG4buaIbEREZrRqu95s1wlZqiL4Y0lfdnzFdIoYuD46Rk+sSYQYO+Uw9P25cjh4+gSWLlpP3EKz25c2XG916diWvIm5YpaFLxLA/Z64c6PnJhyjpWVKtv2m4kRwx9AcVvw8b+VWirrY3ja6H2aUFbtW5wz4tndYsBu5IZ/cxuQ5/3m9mliVRXJtcvyHD4mFrzVY4uf7JlODvsXVjr4D/TiTrWbWmF97/oFGi8/K18AggYwdmpAcsTn7GTMLBCwYMz4+3J7f/TcPD7EqUKBbft6oXTBo8oFxREmUViilSsnr37t7DsSMnlSg5Jnvb4P62GWRZCxd1R1OyxGy5eDjblJ9noHTpEujSvYPuKqGQOTAp0WMYQsd9Uilx984DVcZYi5rZYDe2KbmJ7Er3+uhzdOv4Kb7+cgTy5cuDZq3eE0EKJpNpsq96hOMjHukzfe7PmDrrJ8xc8Av6Dez9ylhREF6HSe4rp9T9fH2Rr0DeFONDjkPvkSXN4eKignxBEIzDJFEKgpBxiPsqCDpDRCkIOkNEKQg6Q0QpCDpDRCkIOkNEKQg6Q0QpCDpDRCkIOkNEKQg6Q0QpCDpDRCkIOkNEKQg6Q0QpCDpDRCkIOkNEKQg6Q0QpCDpDRCkIOkNEKQg6Q0QpCDpDRCkIOkNEKQg6Q0QpCDpDRCkIOsMkUfKPMfN8IvyDyynB+7gMlxUEwXhMEuWBfQfx45jJuHjusrblZS7QPi7DZQVBMB5xXwVBZ5gkSp7erlW7D5Kd3txA/gKuqgyXFQTBeHQ9aSzPrsyzDjs7O2Po8AFwcHTU9ryApz2fNX2BmvLbMMPy2wBPe7561Toc2X9EzdBsbWWBCpXLo0OXNnDO4ayVEtICTxpbrEQR5Muvn1mcGaNE+SanV2dR8lz+n/TriWrVvbQ9cfD05r9Ono0z3uffKlH6PvHHpPHTgOexaNG2GYoUKQyfaz5Yt3YzYmJi8NXQ/nDJKcJMC3du38PwIWPU9Opff/cVChTMZNOrR5Kl87l+U312cnbCoQNH1ISwLLiSJZOfpdkwsSy7sNVrVkWAf4Da7kGW1tgpwFmUM3+ZC1tbW+R2zY1efbvD3Nxc2wtcu3odc6cvVMcr5F4wkSgN05nHxsYia7ZsiaY056nXw8PCYGNrR/cWrix50jKMYfrwaDoWT7Ge7BTi2nkYvs5Y+g43IgnLJjyONV1rclO1G+Cyy//4E2fPXHhJfEGBgRg/diryU6OW8FkYd6+28Pd7ioCAABSmd2BO98P77ty6i2xUPhc9X3PzxNGMYYp6MzMzdW/8nYSk5r70yI6tu/DHohX0bLJh+OjBurGYJk2Ft/av9Upwnw3ohSrVK2tbE3Pk0HHMnDpPibJlm2ba1tRhEGWd+rWwg9znQcP6U6z64sHxddy8fhtWWS1hZWkVL8oz3ucwb+YiRFKlYlc7ODgE7Tq3xntNGiqheJ88g6WLV6IiuYO7d+4jgxRLFSsmUZkAf3/MmraAhO8DBwd7BAYGwbNsKfT+vCdstMp3+9YdKjMPjx4+oYbBigTkgrr1a+LkcW8MGNRXiSM0NBSL5y/D8aMnqWLbkHhCUb1WFXTt3vGlRoBh0fw4aiJat2uBalQuKd4nTlMDeQPvN2usZpM29l6LlyqGMyfPKoHmK5AfLds2xW90XXzvyd2b4bixsc8RHRNNwrXGp5/9n5oolzE8n5s+N2FL4Ujgs0C691ro0q39S+LVMwmFOYwsZkG3AtqeN0emyL66e7hRHOWkKraBwGfPcOzwKZSrVEYJ0gBX6r9Xr8c7jeri1zkTMY2WT8n13b55Jx7ee6iVAvx8/ahlz4qZ8yZj1sJp1HB8gJ0kfN8nfuQixmLjP9uocplj4rSx+GXWBDVj86OHj1Vjw7DYfl+wlNye/JgxfzJmL5yKzl3b0ve2qP0Mu5qrl6+l+PAZJk8fp67lx0mjcf3aTWzZuF0rlZin/k/BrWSefLnjNiShfKVyaN2+pRJkau7V3d0NU2f/jCkzJ5BVs8LiBcvx+cBP1b0NHz2ExHULVy5eVeW5sVk0bwnad26D6fMmYeb8X/Duew3UtiePfVWZPbsOkFhjMGnGT5hCy7ejBqsG7Pbtu2p/ZqEhhWMf9uiI0JAwjBs9Ud37myZTiNLW3hZly5dWsWMoWRrGhyp2VGQEPMuUUusGnJycMPKHYWjVtjmsyHIwxYp7wIJcsydUOQ3kcMmhrBq36uy2la3gCXY22Q3k9a70ooYO/zI+qcJupEcRd9zQ3Pi7d+7D1zcATZrHWSympGcJVK5SUX1m/Pz8cfHCJbRo0zR+yvVcuXOiwbt1E91LQp49C1LWLiEhtH7qhDc1QsfVwp95m7H36kL3WsmrnLKcthRDueTMgcJF3eFGLj+TN7+rmpX7/v04IR89fILCDDfUIEvN3+HnUbtedVhaWeP6FR9VJiQoBJaWFjDLEleF+NmM+Wk4NaCF1HpmwiDMsNBwJcwb5Im8STKFKBmu7P5+AWRlfJQFOnzwOAm1jKpgSQmmOGf7lp2YMG4KBg/4FkO/GIFHj3xVzGWABcgVLiU4TmPXb86MhRg6cAT69foKB/cdQSxZUYYFZUWVMnt2B7XO8PGcXZy0tbgyQYEhmENx7xC6DsOybs1GBJPLGEmNSlIcHe1V8iEh/mQ9OVz4c/nfytVaMPsPJXjGmHtNDnZ1E8bnCWFrfe7sRQz7amT8NX//3QQ8efQI/mSdmTrv1FYu68C+QzBh7GTs3blfXUtmxYLepV7INKJ0zZtHda+w+/jwwUOVjaxSo/JLwuJY58fRk3Fw72FUq+alYrsx479D7twuWonXw6JfungVVf7FcHXNjR69upL7Ohq16lTTShgPv+xGTRqgXadW8Qu3yl17dFLJl6TY2tup+PbhvUfaFqjMIFuhCVPH4qOenSnuy0pxrl263GtKsLub8Jrb09Krbw9UqFBW7edr+oHONYzcVo8iHti8cRuGDx6tC/cvtXBcuWjuEhXOfDNyENwLu2t73gyZRpTcqtesU1XFY94nzsKBLEpygxdu3byrLFD/Qb2pNa+lEkOcHQwLC9dKvB7Ocp47cx7dPu6C5q2bokSp4irDywkRA9mdHBEeHqFS6wbYul6nuMoAZyw5fuMK7FWtcvxStrwnSpOra3A5E5KD3OUy5Uph+7ZdL1ke7gI6sOcw8ubLq7K76XGvyeGSKwe5qpYoV7Fs/DVX9KpI11UaruTqMpyZjaJzsbvatkNLFVM6OTvTc7ug9mcWEiZ6WJCZJtHDXSI8uJwXTnYYuHf/fvz2pMuD+w+0UlDfMWznY5mKW6ECsKIYcN3aTahWs2p8pjAhdhR/RkVG4eaN2yplzxV7y4bt8d0WxsACZNFfuXRNCYHFxoMUrly+ppUgS0EC4Ozt3BmL1Iv1PnkaixcuI1G+iEfYtS5XoQyW/LZSWRC+Hk6UTJkwA/NmLVYWOSnc+DRv9QFCQ8Mwadw0uoareEouI39/9rT5yn1v3roJxXOW6XKvyeFVtaJqbDbQcw4PD1f3v2/PAXKPh6tuKL7uBbN/x7RJM1UDxufmwSF8b84umaf/NGmXiB4EyRjlSHNGkgeXM4bBAwwPIFiLVw8ieE7/bd24w6TBA0nhET0VvMrhALlrXNmTg92ud96ti18nz6HKw/121mjW/D2V2DEWFnub9i1UPLl1078klCyoUbsaPMvEdQcwnCDq3K098pMV3Ll9L50rGvUa1lFJlYvU+DDsWrdu31x1O4z6Zpy6Hj4Wi7nTh21SjOk4qTR4WH+sWLIaP30/Of577FYN+mZAfOVJj3tNDu6v692vJxYvWIJ/1mxW29hdZpe7MLmqfF8durRSXSL9Phms9vOIo2Ytm8LLq4Ja1zvcyLEgOX4fNvIrXY3q0fUwu7Rg6PhmN4+tiilwRQ8NCVYDB5LrGOf9ZmZZEsW1m9ZvxdnT5+P7KQ0YOvjZCifXP5kShmvgQQEp3Ud63GtKhIWGKpeYB1okHVzA8H4+f3KDC/QOD7MrUaJYvEuuF0waPKBcURJllaqVUrR69+7ew7EjJ5UoOSZ72wgLC8OMX+aqroWmZJ04Pnz86Amm/DwDpUuXQJfuHV5KQgmCMZiU6DEMoeO+upS4e+eBKmOsRc1scN9k02aNlCvd66PP0a3jp/j6yxHIly8PmrV6TwQpmEymyb7qER5yxiN9ps/9GVNn/YSZC35Bv4G94wcKCIIpmOS+8k98+Pn6qlEgKcWHHIfeI0uaw8UFOXOlLfEgCP9LmCRKQRAyDnFfBUFniCgFQWeIKAVBZ4goBUFniCgFQWeIKAVBZ4goBUFniCgFQWeIKAVBZ4goBUFniCgFQWeIKAVBZ4goBUFniCgFQWeIKAVBZ4goBUFniCgFQWeIKAVBZ4goBUFniCgFQWeIKAVBZ4goBUFniCgFQWeYJEr+MWaeT4R/cDkleB+X4bKCIBiPSaI8sO+gmhrv4rm4Kd+S4wLt4zJcVhAE40m1KG/euAVfzfoZM2ksl+XvCIJgHEZPW8AzMI8ZMT7RdOKpgWdh/u6Hr9Vcj4IgpIzRouRptb8fMQEehQuhXEVPbatxnD5xFj4+tzBizBAUKVZY2/p62MKO/2EKnJ2dMXT4ADWTc1J42vNZ0xegdt3q+LhPd21r5oWnM586caZy/5NSyrP4S5PRZiQ80W1oaKia2TqzTQhrDDxpbLESRXQ1izNjtCgvX7yCcaMnoWGjevjw/zppW43j9wXL1PTqw777MlUTyBpEGUEV9ZN+PVGtupe2J47IyEj8Onk2zniff+tEmd0pOypWKqttjcPewR5FixdJcVr29Iaf/8xf5qLvF5+gkLubtvXtgD2+4UPGqOnVv/7uKxQomMmmV2euXLqKsaMmwsnJAbldc2tbjePRg0cICAg0SZRcKXjqbj5nr77dE1VItt5zpy9UU5YXci+YSJSG6cxjY2PV1OQJrQtPBx4eFqamDI+MCFfTvyctwzx//lxNW87Ti7PbzdOXJ50M1nAehq8zlr7DjUjCsgmPY03XmtxU7QYMoixTrjSaNGusbX2B4Vj8HJIeh6c6j4mJiT/3q86bcNp2hsslvEd+RpwbWEwNareeneHu4WbUcTMTO7buwh+LVlA9yIbhowfrxmKm2lKmBVNFWad+LezYthuDhvVH/gIvHtzav9bj5vXbsMpqCStLq3hRnvE+h3kzFyGSKpa1lRWCg0PQrnNrvNekoapU3ifPYOnilahYuTx279yH5yTc6OiYRGUC/P0xa9oCEr4PHMhCBQYGwbNsKfT+vKdy55jbt+5QmXl49PAJNQxWcMnpgrr1a+Lkce94N5Pdv8Xzl+H40ZMkWhsScCiq16qCrt07JuuGvk6UDN/38SOn8PWIgbDT5gc1eA25c+dSU7vz9O+vOu/TgACMo0a2Sg0v7N99EOERkSTqMJSr4Knu8cqla5gyYYY6NmNwnVn4/Fxu+tyELZ078Fkg3XMtdOnWPlO6uAmFOYwsZkG3AtqeN4d5//4DR2mfX4m/nz/20curVLkcun/cRbmLxi6hwaF4QNaSP3PFNZanT5/h2OETqNegNgn0trICBlEHPnuGVcvWokadqgh8Gqi2VfQqTxY5QLXu1Wp6qUr0Qcv3kSdvHqxbswnlqKLbk8Ae0rXs/nevEtmXg/tRmSYwNzPDHhJohUrlVKVds2odgskC8otq1a45atSuju1b/iWrkE1ZDRbb7F/nIw9Z8G9HD0Grts2QJ08urFiyms5hh2pU2VncK5f8Bd8nvqol5uNUr1kFmzZsV5Y6uQaKrc+Rg8fg6GgP17y5lUgNCx1QWTM7eztqTPbDvbAbctM5mRskkh1bdqF1h+bInt3xtefl4/H7DAsNx+BvB6Bth5YoXaYktmzYgdx03spVKtKzKIuL5y5iyPAv8EGL99W5t27aod7lyHHfoHmrpihDz3Dnjr3wKFKIvKjMN4O1RxF32NPzPHHUG4cPHkXZ8p5wpOf3JjG6SyQ2Ns6gOjk7qZeamsXJOW0vy9belh5WaRU7hlKLz/hcu4moyAh4liml1g04OTlh5A/DSCTNYUVWkilW3AMW5mZ44vtiIEMOlxzKqnHrbk77ypKFYGeTXVFe79qjI4YO/xLOOZxVeZeczuoF3rh+U63fvXMfvr4BaNK8MbJpLmBJzxKqMhvwo4bs4oVLaNGmafyU67ly50SDd+smupfk+GfNZgzo83WiZSfF5QwLsVChgjh98pxyJZlzZy7ANV8e5Umk5rwN36sfX6agW34UcMsHf19/tZ4cIUEhsLS0gFmWuKrDz2TMT8OpoSqk1jMjDRvXx4f0vrmBGjd6Ir3jG9qeN4NJgwfeBFzZ/f0CcP2aj7KYhw8eJ6GWIbG8PHV7MMU727fsxIRxUzB4wLcY+sUIPHrkq+JLAyxAtmQpwbEiu7lzZizE0IEj0K/XVzi47whiKRZjuGJbUeXMnt1BrTN8PGcXJ20trkxQYAjmUNw7hK7DsKxbsxHB5A5HUqOSEi1av4+ps35KtLxDomIsLS1RrXYVnD1znryJp+o8LLZKXhXiXOZUnDe1XVR13qmtXNaBfYdgwtjJ2EsWm593ZseC3qVeSIUoXx96duv4aaLlj4XLtT1px5Vc0BIli+HIoePkfj4kS+lD8VDll4TFseCPoyfj4N7DqFYtzoUdM/47irWMd5tZ9EsXr8KC2YvhSu5pj15dMX7KaNSqU00rYTz8shs1aYB2nVrFL9wqd+3RieIYW63Uy3ACJjtZ/YRLwhi0VKliSpyXKfa76XNLiY2tvQFTz/s6OEv5Az3PYaMGk5X0wOaN2zB88GgVX2dWOK5cNHcJhSZZ8c3IQRQWuGt73gyZxlJytrEmxY/XyW31PnEWDhRz5S+QV9v7gls37ypL0H9Qb2rVayl3juO0sDCKyYwkKDCQ3MHz6Eaxc/PWTZULzhleTvYYyO7kSHFZRKLBFGxdr1/10dbisrHW1laqIntVqxy/cNxSmlxdg3ttCvYODqqR8j5+BsePnlICyaG52hl5Xs7KRtF9srvKcei3JE4nZ2flPmdGEiZ6WJB6SPRkGlEyPCrIitytdWs3oVrNqvFZ0ITYUfwZFRmlEkMcb7FrtWXD9vhuC2NgAbLoOQPJWU0WGw9SuHL5mlaCLAaJnbO3c2csUi/W++RpLF64jET5Ih5h17pchTJY8ttKZUn4ep489lVZzXmzFiuLnBKckOEMacIlOCgoPoZkD6FaLS9cungF3qfOqgbL0F2UlvMmxMY27vk+fPBYiZGfw4LZv2PapJmq4eLj3iArzcd2dolrEDITSbtE9CBIxmhRGirDm4RH9FTwKqe6KLjSJYe7u5uKvX6dPAfdO/XGV59/o7KinNgxFhZ7m/YtcPTQMfT66HP06tYPV65cg2eZkloJstzUOHTu1h4t2nyAndv3Yvkfq+GazzU+7mNYOK3bN0fZcqUx6ptx6nqGDhyuGo5OH7aJF1FyJJfomTF1nupTNZCXzudCMayNlhE2kJbzJiRnThfUb1SPGp6F+HbQKARSo9ChSytER8Wg3yeD1XF/nTQLjd9vAC+KZzMT3FixIHnwAFt7PY3qMbqfkjuS+V99vNu4vspMJgf3nyXEnYfklS9j8oietMAtO3dwc4c3x16mYOhg52RIch3kvN/MLEuiuHbT+q04e/r8S8PhDIMM2Aon3J7RpMd5+RhMwn5I7q/kZ8yucmYdgsfD7EqUKAbX/K7aFn2Qakv5KovZsk2zRAsL8k3BQuTkiKmCZLhrhGO35ATJnfNTJvyqGiJ2cZnHj55g355DyJcvrxrpkhCuuGzp/0tBMulxXj5GUuHxM+HjZlZBMvUb1tWdIBmjLeWtm7fx3ddj0zTM7vvxw3Xjt6cH3LG+YO4f8f+Q29w8i4ozOctp6PsThNRitCjZQs6YOhfHDp/UtqSOmnWq4ZO+PbS1tweDi8vJk+TGzwpCajFalAZ4PGp4KroXGM7ivU0WUhAyklSLUhCEjCVT9VMKwv8CIkpB0BkiSkHQGSJKQdAZIkpB0BkiSkHQGSJKQdAZIkpB0BkiSkHQGSJKQdAZIkpB0BkiSkHQGSJKQdAZIkpB0BkiSkHQGSJKQdAZIkpB0BkiSkHQGSJKQdAZIkpB0BkiSkHQGSJKQdAZIkpB0Blp/t3Xk8dP4a+V63H3Ttw8jTwfZJsOzVCxcuaahUkQ9ILJoowID8fkCdNx6cJVNfOUa964iVIe3H+A2NjnKFO+FL4Y9Fmqp+8WhP91TBbl4vnLsHPHHpSr4In/+6SrmuGK4clN585chPNnL6NZy/fQtmMrtV0QBOMwKaZ8cO+hEqRLTmf0G/hpvCAZ/tz/yz5wcnLExnVb1Yy/giAYj0mivHjhsvpbu16NZOfP59mnqteqqtzYSxevaltTD08m1KfnF/h28BgEPnumbU0MT3vereOnmD/rN21L5iacwoLxP0xWk88mB9/n23KvbxqeNPbe3bhciJ4wSZQhQSHqr8srpix31eaw5Pnw08qD+/dx4cIVbe0FPFnrgf2HtTVBMJ47t+/hNwrBxo2apD7rCZNE6ZQjbkLUR48eq7/JYdjnnMC1NQV7O1u4uRWE9/Ezag7IhPC89TwhbYGCL89Xz1OCs3XlGJetT0J4WnB2q3luSZ4mPLkyDM/JGRwUpPbz3+RmsTachxf+zMdOWjbhcfh86U3Ce+XzJ+VV5+dnwM+CvxdK+y5fvBL/LDL6ut8kXGd4ct/g4BCMG/2zriymSYketn6D+n8LR0d7NTtz0lmLA/z9MWLoWLrhYEyZ+RPFl6YJk93Xmb/MRZ36tbBj224MGtZfdbkY4KnNb16/DauslrCytMLHfbqr7We8z2HezEWIpIpmTe41P/h2nVvjvSYNkSVLFnifPIOli1eqWZd379yH57GxiI6OSVSG72HWtAW4dtUHDg72CAwMgmfZUuj9eU/YaNOtc6Mwa9o8PHr4BFbWVhRju6Bu/Zo4edwbAwb1VRPIckXnpNjxoydha2uDkJBQcu2roGv3jslOMMuCmDpxJsqUK40mzRprW19gcF2T3iuHCjwdfAR5D71oX+UqFdX+152fBTdu1EQUK1EUx6iMmZkZhg4fqN4t3/9Nn5uwtaf7fxZI91YLXbq1z9RTqidlx9Zd+GPRCtjYZsOw777SxTyqJlnKnLlc8G7j+nj2LAg/fT8Zfr7+2h7g4f2H1PJMQlBQMJo2b2yyIBPi7uEG5xxOqmIZYMtw7PAplKtURgnSQABVsr9Xr8c7jeri1zkTMY2WT/v1xPbNO/Hw3kOtFOia/ZDNJitmzpuMWQunoWWbD7CThO/7xE9Zj43/bKPKZ46J08bil1kTMH7KDyS+xzhy6Lj6Plf23xcspRY3P2bMn4zZC6eic9e29L0taj/Dln318rV49vQZJk8fp67lx0mjcf3aTWzZuF0rZTp8DevWbEDdd2qpY0+d/TNatm6K/bsPISwsLFXn5/v+ceIozFrwCwq5u2HPrgOIpu9PmvETptDy7ajBqoG6ffuu9o23g4ZUj9lihoaEUb2dqBraN41JomTadmqJ4iWK4P69R/iy3zCVbOFl6Jcj8fiRL8qWL43W7ZprpdOGrb2tOt4Z7/P08OLcKB+qWFGREfAsU0qtG+BGYOQPw9CqbfP4JFSx4h6wICvyhIRoIAfFw2zVuNVnC1O2giey0PaQkBC13pVe1NDhX1Jj4KzKc6bZo4g7bly/qdbv3rkPX98ANKGGJ1u2bGpbSc8S8RaK8fPzx8ULl9CiTdN4byJX7pxo8G7dRPdiKrEkmvDwyPj7ZAv/PlnXL4Z8pq4pNedv+F79+HtlOG9gaWkBsyxxVYTvfcxPw6mBLKTW3yYMwgwLDVfCvHH9hrbnzWCyKNn1+YZazz79P0Ye11zaVrJq7gXx1def09I/Xd0cruz+fgHUyvsoC3D44HESahkSy8vJJnabt2/ZiQnjpmDwgG8x9IsRFOP6kosXq5WgCswLVeKU4DiN3dw5MxZi6MAR6NfrKxzcd4SEEHcMrtBWVGmzZ3dQ6wwfz9nlhWfAZYICQzBn+kIMoeswLOvWbEQwucOR1KikBTtyKxs0roeN67fiiz6DMX/2bzh3+ry6diY15086yKPOO7WVyzqw7xBMGDsZe3fuV8/1bcWC3qVeMFmUBqrV8MK4iaMx9ufv1DKCrFTZ8p7a3vTDNW8elChZTLmPDx88JEvpgyo1Kr8kLI4Ffxw9GQf3Hka1al4qthsz/jvkzu2ilXg9LPqli1dhwezFKovco1dXcl9Ho1adaloJ4+GX3ahJA7Tr1Cp+4Va5a49OFMfYaqVeJpZi3KTwdXHMmJD6Deoo97Jn725qffrUeZg2aXZ8ssbU83Mi5Ad6bsOo4fUo4oHNG7dh+ODRunDv0huOKxfNXaLCmW9GDoJ7YXdtz5shTaK8eO4iRn8zDp9066f6Ennhz6O//RGXkunCSAvm5uaoWaeqioe8T5yFg6M98hfIq+19wa2bd5UF6D+oN7X2tVRiKJosR1jYy9nVlOBs5Lkz59Ht4y5oTjFaiVLFYWVtrZI9BrI7OVLFj0iUTmcLdZ3iLgO2VOmtra1UBfeqVjl+4UarNLm6yfXxWtN5crg449Spsy9ZJo7dr1+9gbz544Y0MhxXcjKrfMWy+Lh3dwz4qjdukXAePnhk0vkNcDY2iu6H3dW2HVqqmNLJ2ZmeywWtxNtBwkQPCzLTJno4EbLmz38wfuwv8PG5pTKXbIl44c8+FHf99P0k/P3XukQuY1pxK1QAVuRmrVu7CdVqVo3PgibEjuLPqMgo3LxxOy6lTxV7y4btKlY0FhYgi/7KpWuqL5TFxoMUrly+ppUgS0Ji5+zt3BmL1Iv1PnkaixcuU6IxwK51uQplsOS3lcrC8PVw5nrKhBmYN2uxsnxJYcv/TsO6ePzwMRbO/h0P7j5QGVLORM8iK2id1RpVyANg+Fijho3F5vXb1DXytV44f0nFgixIU87P8PYFdO5pk2aqBoq/d4PeM3/XmRqMt4WEghw+erAuBMmY9+8/cJT22Wj+Wvk31v+9heJKK2pFW+CTz7qjWaumePf9BlShasPBwQFXr1zD+TOXlChLUatsCk+fcob1BLXulcgyZacKmRXPnj2jCvsEbdq3UCl+hrsgmIpe5eHo6KAs4+8Ll+PvP9dj5/Y9qFSpHB5ThWILkYfcUbYiZyn24hFJPPqISXiunLlyIidVaI69Vi1fiw3/bIaNnQ2cnbNThbdU5+Gug1JlSqiEys7te1XXRBk6vhu9WM5kslvPZYsWLwx/snCL5i1R1/Pvtl1wo7ibuxayJdOoME7OTvAgF+ogNQRrVq/Hlo07sG/3fpVs6tO/l0rWMHz/uel+Vi1fo65z/d+bVdzd85MP6RxuSuCvOz+7uft2H1TXzs+G4XsrXLQQjh46QZV2Jdb+tQEnjp5UXTT1yPvg/ZkdbqR++Xkm7Oxs8c2oQYm62t40qe6nvHrlOn74boJysUaPGwZ7EmBycJfFyG9+pBgvACPGDKWX7KHt+W9g9yuErKStnZ0ShymwRxAaEqySIMkJiPfzv5BJGNfy8DgWvKGf0gBbMrbWbIWT659MCRZNeFjYK+/DcJ18HVwuaZzNmHp+HjTAz5It79vUP8nwMLsSJYrBNUE4oAdS3eRtXreVXjrQt//HKQqScXB0xCd9upHrA2zZtEPb+t/BFZgHx5sqSIa7RvgekxMk9wNOmfCrGsDAbiPz+NET7NtzCPny5VWxYUK4QvMzSY0gGC7/uvswXCdnY5MTJGPq+fne+XtvmyCZ+hQm6E2QTKpFeenSVeWiFSlWWNuSMiU9S6okw4Wzl7Qtbw/stjZt1ggH9h5Gr48+V320X385ggSZh1z591IUhyC8jlS5r/fv3sewQXFdA7369tC2vhru5+P+vfFTxsTHLG8TBteRkyMcn6bWEglCUlIlSh6czCNZeDQMD7UzBs7Y8ZC2/GQx7SjeEQTh1Zj8ywOCIGQMmT+3LQhvGSJKQdAZIkpB0BkiSkHQGSJKQdAZIkpB0BkiSkHQGSJKQdAZIkpB0BkiSkHQGSJKQdAZIkpB0BkiSkHQGSJKQXgF/KNh/zVZTp48K/90SxBeAf+KRJYsZupnV/hHw/jnTs1oyahflxBLKQivga1lbGyM+gGxiIgI9Vu7YaFhiKTPKf1MZ1oQUQqCCcTERCuBGsTJs56lFyJKQUgDz5/HKnFGhIchOvrluUFNQUQpCOkA/wA4T2MRlWSuF1MQUQpCOsGTD0dERCp3Ni2IKAUhHWF3ln+cOy0WU0QpCOkMZ2t5ykJTY0wRpSBkAOzKRkVGm5SVTfPggfPnLuHoweO4fi1uCrgiRT3UZK6lShdX64LwvwzPAcqzxaUGk0UZSa3AvJmLcIFEyaMbXPPmVlOP85RzPMNT6TIl8HGfHnRRb9/EMIJgLFnMzGCTzYY0YrxTarIoVy5bg707D6B6rapo27EleK5KhtPCfy7/G4cPHEOdd2qiQ+fWarsg/K+SWmtpUkzJk6KyIIuXKoqu3dvHC5LJmtWatnVA4aLuqkxAwFNtjyD8b8Kzm6dmYLtJlvLUiTOYP2sxWrVvhoaN6mlbE7N1479Y9/cmfPJZD5Sr4KltTR23b93FtMmzERYSptatrC3hmN0RFSqWQ+OmDRM1Bq/iaUAgpvw8Q806XaZcKW1r+vPwwWP8vnAZ7ty+Bwd7O7Tu2AIVK5V75cDls6cvYPavC7S1xPT+vGe6XC9XCJ4w1sLCyuhnJqQvNjY2Rs/xaZKl5OnNGSfn7OpvcjjncFJ/uaKmBWsy/S3bNcXHvT/CRz06oX6DOjh25ASW/rZSjT/UC6GhYXRNK5ArTy6MHvcNmrVugjUr1+HB/YdaiZSxc7BDp4/aqXtMuOQvmF8rkTYiIqKwYM4S7NuzX9si/NekZuC6+aef9h2lfX4lHCsunMsv9iAuX7qKsNBwPLz/CCdPnMbhg8deWi6eu4TgoBA8eeKLM97naDkPzzKlqLU21474ep49C8Tpk+fw7nvvoESpYnDNmweF3AsiD/3ds3MfSpYqDgfHuNmkeZ7IkOAQdV1kmhKdh6+dr6mUZwnkzpNT28pTsEcjKDBYdfZaWJq/NJe/wcKEhoSrTuFXzaYcEhyGPbsOKM+Br5Gn/Tt6+KRy43O9YtpAnv35yuXraNGqKdwLu6l7NCzZsr2YDfp118rw4Gi+Dv7XDDwlPE/9zs+Fp7r3Pn5aeRmurnnU99mb4ucV90+R4o5luN/YWKjnx+cMDQlVnwP8n6rG2DG7g7L8xjwbY675TXDh/OXXTuVoTJnUwPduYeSs4kaL8qbPLaxdvRH+vgFxFZ9g0fF6cgvvY7gsrz8ii+lZtiRZ1zgLagwsylPHz6Bi5XKqMhgICwvHwQNHUbxkMSWypwHPMHv6Qvy18h/s230AWzf9q0ZUFC3uoR5GcqLkrpxfyKXdu/sgdu3Yq/7mL5APLjlzqP18zFnkVq5dvQHHj5zExnXbqHIHomTpYslWLs5AX7l4Bc+eBqJYiSL4Z81GVSEbNKqLrNlSDvJZlFwBqtesQuUST8lu4HXXylZ6yaKV+OO3VcqL2L5lpwoxSpcpqfrKpk6ajXt37uPaFR96bkdQqnQJZKH/Jk+Yjly5c8Y/E7ao8ygsCQsLQeEi7iqzzpP+cnfXquV/UwPrh/IUOrDI2FNZuvhPHDl8HJs37ICvrx+KlyimBMyC3bf7EGZMmYNDB49SA3qAlv1q9u/s1DC8STb8swXL6Lo5FOJ7TA5+fn8sXKE+FyteRP1NO1lUwscYjO6vMPSBlqX4sH7DOnErRrJz+x6cJUsZTa12esDW14paHScnRxIcVZDFq1RlGD95NGxsbeBz/Rbmzlyk3MIG79bVvvUCjvmW//4nWrT5ANVqVFYdvP9u241lv6/G519+oio7zz4dQwH6mJ+Gw57iw5s+t7F8yWrcvfMAboUKaEd6AXf9NGnWGPNnL8b3I8bT9Vji4z4fITtdY1ow5lqPHDyu3OShw79AvvyuSqTcXbWDyrXv1ArDvvtKiauUZzG82/gddVyOs42BG8bqBfKiR68P1T2yG7Z6xXoEBgbie3o2jtnt8eSxH+ZMX4CddL4mzRvBz9efrnEP2tK5466Zv/MPPdOj1JjkVf9I+E1RuUpF5dGs/XOjapgaNq6v7Yljx9ZdyvjY2NmgklcFbWvaYW/CWFLtT3AlK1a8cKoWFo+p8FCly5eukMU8jWPkDv6+cDmWkUXg5JFrvjy4f/ce7t97gJZUaVmQjAe5gQ0a1cHJY6eVS5eUU+Ryu7kXQJVqFZQrxu5btRpeVOkscYMEzQSTa2ZJldBcs4qFPApS5f4yWUEybB2CgoLUvxaIIMv80f91QIGC+bS9r8b3sS++HTwan338VfzC1o0bHGOutX7D2vhm1CAlSMbGJhtKlCyuvJMIOkZaYM+mZu1qSpCMv38Arly6hvc+aKQEyeTMlQO169VUFp2fN2cbWYiWlnHfMTe3QIcubdDpwzZvVJBMHtdc+GJQX2SjZ/T3nxuUCA1sXLdVbeN9XIbLphdcP4wl1T37ySUSz525gCVkrcxpZ5ceHV8ezZPcl4yEX/Du7fvIH7dCdFQkAoOC0aJ1E6qIdVUFDQkJU766g8ML95bJkycPgoOPKJcsKexiXjp/BWOG/6xtoYdG/wVR6//0WVwXDlfEhXN+x7dDxlCsVwiVqdUsV9ETtra2an9SvE+exdLfV6EJVVaOpVYsWYM+/XsqV/vPFX+jXcdW8aJJirOLMz7t2x129nGVnLGwNIM1uVjGXCvHjTdv3MbRQydw/aqPalCCngWhWMmiVDJtxGWOX7w/DkeCg0Px+/yl6p0YiIiMoOu1Vs+bRepVrSIWL1hObvwmlC1fWlmogm751Tt70/B76PfFJ5g2aZYSYUx0LCKpbm0hN5y79D7/8tMU39V/Qbo8IXanuBI8pQq0fcuLlic9yJo1Kz79vCdG/zgMI8d9q+Kka1dvqIqYFgoWyk/WtUn80qpNU5XdLVM2rvuGX8o3o77CF4M/U4kbvsexIyfiLrmTSWFrtH/PIbJmFZXVati4DlnrQsqtvnP7LgkoSLnAKcExKgsyu5ND/MKJojhBvP5ad+/ch1nT5sPcwgytOzTH18O/RPPWTdW+jIBDhXrv1k50TR3IVW3fuZXyVtgaNm/VBGMnjECzFu+rhmXapJn4a9Va5f7qAfZ8Pv+qj4otueuOBcmf+33ZO0VvKC0Y3qUxpIsoOatnIEeOZLpJUmG6XwW7UO82rqfctgvnLqptnACKpRftHxCg1g3cuXVXdcskl2TJkcNZZQtLly2NCpXLqaVshTIo6Vki3mVhaxcVFateEFewgUM/Q3bn7Lh48bLanxC+u1i6R+4iinMxLdCibZwoOPYrWboE7Cm+NYXXXSu7uOfOXKTnUl/Fj+ylsFv5TLOiryOhSJ6TyxkZ8Wp3l11jK2srarTyxV8PL6U8S5LLXES9I3bV2I21tbNFleoVVfdO+85tcP7sZWqg4hKAesCdhTnwUxWm8MKfeVtGwD+8ZSzpIsr2nVurVoaX1u1baFszBm7hOCPGsQCn5PO45kG+Anmxfs1GNdKILSjHNnv3HETFymWT7SyvQNvv3X2ArZu2q0rN/Z2HDhzFyG/GwcfnlqqonF2cO3OhyqByJbt96x78nviT8Jy1o7yA3UyOYzmRwcdluCuBKy+PA3ZweOGWppbXXaulpTkc6fj8mV1lvn/O5p4+cVY7AlQZOxIIx5hxx4ghwdggfwFXOu4OPHr4WIlo984DeELx7avIQa42eyt/Lv9bJaH42fBznz19Pv5YyH3HMbhBrvSo4T+peJivh6/rwtlLcLC3VXVET3gUcccnn/0f+nz+sfqcUaTGbTe6S8TPLwBHDh6DG7lynvRSEsIt+a4dFPdZWOD9D97Vtr7g/NmLuHXzDqrV9FIv1ViS6xJhV48zjrv/3a+sD4uhaLEiuHr5uhqPu2ndNpXpbdzkHdSpVyPZLhF2JTm+YWGvWbVOpfRvUUVi96tUqeLqO4U83HDi+Gn8uexvbFq/DadPnUHDRu+gZp0qL3WJsHV0K+SGpwFPsXLpaqz/e7Pqtsib15XcyCbq+2y1edB+Ul7XJWLMtXK/7cG9h1WX0OYN21VDUriYh+qWqlylgkoK8XNnF427BAoWzK+SZPny51VdJ3y97AIXJ0uXleJCB0d71V2Q3LXxvXoU8YC/nz+W/7EaG//ZSvd6AAXomG06tEQ2m6yq24Pjy9Ur1mL92s3Ytnknudbm+Khn51cOOHlTcH+koXspo2CNGDuix+hhdtzBPfXnmajboCa5SS8PMt++daf6a0i5J2Tl0r+wd9dBDBjcV2VjMwq2AvxTDLZ22ZQLaQyGbGFcLPRya8b72ZU19phxliEU2chtTliet3Nnfmpii6S86lrZYrHnwHAyKrnzcJnIiChYJ/EeeBuLJrVJGLbaPFjBigSYnEdi2M9ZWM5o/i+TocPs6L0mC4sxOUH+l3DF4FbeWEEyXFnY4qZUIXl/ao7Jx+EkTdLyvD0tgmReda18bD5vwgRRUnh7UkEy7FKmVpAM3yM/m5TG0xr2/68L0sws7sebjSXVlpLdyFwJhqoZAw/P4gxcRltKQdAjqf2nW0aL8sGDR/hhxARtzTRGfD80XTtkBUHvZPg/cubxkyEU15iCLcVBb7JDVhDeBKm1koxJ/55SEITXw+OfWZCc4EsNqY/uBUF4Ley28oCE1AqSEVEKQjqjstzktrKlNAURpSCkIzycjuNIS1pMRUQpCOkEu6zW1lZqMEVaEFEKQjrAQ0z5n32lxUIaEFEKQhpgd5XH+VpnzWZyDJkUEaUgmAAPIWQx8hBCdldNybKmhIhSEF4DZ1N5/Cr/Sw8WIg8uN4gxI37eJMvVa7dk8IAg6AixlIKgM0SUgqAzRJSCoDNElIKgM0SUgqAzRJSCoDNElIKgM0SUgqAzRJSCoDNElIKgM0SUgqAzRJSCoDNElIKgM0SUgqAzRJSCoDNElIKgM0SUgqAzRJSCoDMyxc+BzJ/1G/btOaStAY6O9momYp45mKdaNxbvk2ewbPFKfDNqELI7OWlbBUFfpIsoL52/hONHvXHjxi217uHhhkpVK6JEyWJqPa2wKHle/QaN6qr1WLriU8dPw/vUWXw55DMUK1FUbX8dIkohM5Bm95Xn4j99+jzqNqiNwd8MUEudd2rD+8Rp7Nt1QCuVdnhOeq9qldVStXpl/N+nH6JoMQ/s3/vCgjJRUVF4GhCAwGfPEBMdrW1NGZ5yPDgoSH0nLDRU25qY1B5TENJCmizlxXOX4O19Fp26ttO2JGbFkj9RhUTkUcRd22IabCmZj/t0V38N8HY/P38MGNQXWbNmxRnvc5g3cxFCtTk0bWyyoVffHihb3lOtJ7WUoSTCxfOXkZU/qebPDAkJRfVaVdC1e0d1PBbszu17sGr5GjVhS0xMLCwtzTFg8Gdw9yikjikI6U2aLOX+fYdQp14Nbe1latO+wwePaWvpCwuKXdqcuVyUgG7fuqNE+l7TdzF38XS18GfexvuSEhMTg9XL1+LZ02eYPH0cps2ZiB8njcb1azexZeN2VYaPv5U+d+3WEVNn/4xpsyegYuUK2PPvAfV9QcgI0iTKx4+eIFeunNrayzjncMb9+w+0tbTBAjl2+LhaNq3finGjJ+He3fto2Li+2n/08AnkK5AXDRrXg7m5mVr4M2/jfUlhC3vxwiW0aNMUjtmzq225cudEg3frksU9j1CymtGRUYhm62gV93P05hYW+KhnZ3Tv1SVDfoRXEJg0idLCwpwq7astRnpZFE4i/bn8b7X8s2Yjnsc+x4jvv0ZBtwJq/1P/p8hBjQBbTQP8mbfxvqSw6IICQzBn+kIMGfBt/LKOjh0cGITIyAjkcs2FGrWrYu6MhRhM+5aS63v9qo9yYwUho0iTKHPnyQM/X39t7WV4X768ebW1tOFVpSImTB2rlv4De8Pf3x9PyFKnBQtLCzRq0gDtOrWKXz7s0RFde3SCja2tsoZtO7TELzN/Qpt2LRAQ8BTjf5iM5b+vEvdVyDDSJMoatapg356D2trL7Kd91WtX0dbSjxKliqFM2VLYsG4LwsPD1ba8+V3x8MFDFWsa4M+8jfclxZZEx3MJFiiYLz6rywsnhUp7llATf3Kihy2qrZ093UdV9PviUxJtZ3Jvz5KVDdSOJAjpS5pEyf2D3FWxctlfuHP7nhJIWFiY+syZV3YtCxfx0EqnHxzbcSx5w+c2Th07rbaVq+AJX98AbNmwTV0HL/yZt/G+pPB1l6tQBkt+W6kSQSzAJ499MWXCDMybtVhZwuvXfDB04AgcO3JCuax8b2dPn4ODo32aJwYVhJRIt8EDRw6fjM9yFitRBJW8yqNI0cJqPa0k1yXColm8YCl8rt/C0G8HwN7BAZcuXKFtS3D/3iNVJm++3OjWs6uyrEzSLhEW7l8r1uLf7XuU6MzNs6Bi5fLKheXkT8IukfCwCHUMt0IF0KdfT7gmY30FIT1462bdYiGFBAerz7Z2dmoas9fBAwJCQkKU9UuYKDJg2M9ToWWzsdG2CkLG8NaJUhAyO2mKKQVBSH9ElIKgM0SUgqAzRJSCoDNElIKgM0SUgqAzRJSCoDNElIKgM0SUgqAzRJSCoDNElIKgM0SUgqAzRJSCoDNElIKgM0SUgqAzRJSCoDNElIKgM0SUgqAzspw7d1l+DkQQXgH/zpP6rSf6n1kWM/psBjPzjLNnYikF4TXwj7HFxsYiNiYW0dHRiIqKRFRkpPpBNd6e3ogoBcEEWIwsUBYmLyzc9EJEKQhpwCDO6OgoZUnTAxGlIKQDca5tFFnNtM8xI6IUhHSCXdiYGHZn0yZMEaUgpCMszLRaTBGlIGQAsbExJseYIkpByAA4ARQTa1pWVkQpCBkEW8pYEyYXFlEKQgaiBh2kcoCBiFIQMhAW5HMRpSDoi9RaykwxIP23eUtxYP8Rbe0FuXK7YMg3A+CY3VHbYjrR0TEIDQ2DjU02WFiYa1sFIX2wtLQyehB7uojy0sWrOHX8NG7dvK3WC7m7oULlciheoohaTyssSj8/f9RvUFvbEoeVtRWKlyyqZlhOK7du3sHcGYvwyWc91BTqgpCeWFhYwJwWY0izKHfu2At//wBUq+6FnLlc1LYnj31x+MBR5M2XBzVqV1Pb0gKLkuneq4v6mxIREZEIDwtDFjNz2Nrawtw88dTqnJ4ODg5FbEw0tVoWsLOzUf8kJyoqGlcuXcWSxSvRtVsHFCxUUO1j6xkWFp7oWEktKp8zMjJKrT959ATRMTHIXyCvKhsT81xNy/48NgZZs2WDNTUiSQmjY0VGRia6HuHtw5zqioWFccYjTaK8dOEqzp45j3YdW2pbErN6xVpUrlIBhTzctC2m8TpRsth279yPv1etgyVV/AgSpkuuXOhNVi9P3tyqzNOAp5g7azF8rt2Eg70dAoOCUcqzOD7u3Q1XL/tg+i9zVDmmZKni+OyLXur+Vi3/K5GLnNSibt20A8ePnoKllRUd5zpq1qqqrtNwvts3bsGaBBlCjUGzlu+hcZOGSsws7KWLV+HkcW84ONjT/mAUK1lMXQ8LXHi7MDMzU3XEGNKU6Dl04Ahq1q6qrb1MDdp39PBJbS3jOON9Hls2bEffAb0wadpYTJk5Hh6F3fDbgqWq8rPF2rxhByzIGv048TtMmPo9fhg/XFm240dOolyF0hg+ejBykaXnv18O/SxZq5YSD+49UGKcvXCqEiRbz8ULlsHFxRmTpv+krmkwCXsXeRWnTpxW3zl/9iJu+NzEyB+GYfyUMRj943AEU0Nx5fI1tV94u0jNIII0ifLxE994lzU5nJyd8OD+A20tbXCip1e3/okWtlIxMbE4fPAYqlSvpOJLhmPMBo3qIjAwCPfvPlCuZ6cP2yqx8TUxOUgwhUi4N2/ExcFpoVDhQqhEHoHBxb1z6y6ePPFD0xbvx4ubG4lKXhXIMp5W18xuqzm1nlloYfh6vhk5COUrlFHrwtvFfyZKS7I8HGO9ipjYNOeRFF5VK2AiWbiES70Gdej80co13L/nMIYP+R7fDh6jlmmT58Df7ynFdGHq+3ydp0+dx4K5v2PE0O/xZb9vKO49bvL4xISYZTFPFAvyOX2f+GPy+F/jr4ev7ejhE+pa+ZrLVfCEA7nEI4eNxY9jJmH7ll0IoNhcENIkypx5clLFT7ki8T5X17iYLq1YWVqpuC7hktDF9CxXEm3aN49fOnRqhU/6dIObe35lmVYu+wu/L1yKPHlyo0uPThjz03DUqFlF+3b6Y2tngw+av5fomj7s3gFNWjRWmTi+/i+HfI5RP3yNipXL4RgJdtS3P6mGQ3j7SE0CL02irFatMg4m039o4BDtq1bTS1vLGLiCOzjawyabjeqGqehVXi1lyQ30LFsK2anyBwcF4cK5S+javSOaNm+MEiWKIGtWKwTS9tfBbkdC1yMqMgpRUVHaWvLYO9jS8a3hUcQt/np4KVWmJIoWLUxurpmy3BER4SoRxcmfIcMHomSpYjh13Fs7ivA28Z+JsmjxwnB2ccLqVf/g7p37KsHBXQj8mTOv+QrmhXsaM6+vgys4J5sOHzqmXNi4yh6Jjf9swejhP+HJYz+V9bK3t1PZURYUlzl66ASuX/HRjgJks7GhJwc8evhYdZGwEPO45kQ0fd6y8V+Ekkv6+JEftmze8dr4oEDBfMibzxUrlvylzs/lb1OcOXbkBGxev1WV4cTU+O+nqPMxnCy6c+ceXHLmUOvC20UWM+NFmW6DB44fO4W7VPGYIiTWipXKwaNwIbWeVozpEjlxzBvL//gTgYHBapuray50IctoGMBw6cIVLJjzO54+DVRCrlbDC+HUgGTNmlUdl4+xY+tu/LVqHXJQQ8PZUkdHB5VEWk7i4sSMS05ntG7XHNs2/6usrqFL5PzZy6oLJaE7HfgskK5nNU6dPKPcZ3Nzc9R7pxZatWumyhm6RE7QczPsr1GrCjp0aZOqzK+QOfhPBw/oCRYWDw5gkuuIN3TmW1qYk2VMvi/QkLhKONSOj8tuK48gSi1sdUPpnDa2trC0fPmlGAY8pLRfeDv4z4fZCYKQMqkZOMCkKaYUBOH1sChTg4hSEDIQFqRhgIixiCgFIQNhUYqlFASdwIkdM/PU/9tcEaUgZABsHc3NLEz6p3giSkHIAMzMzI3uAkmKiFIQ0hG2jPyPmfkfNZuKiFIQ0gkWpLk5j9xJ2288iSgFIR1gVzWtFtKAiFIQ0gAndHhcKwvS1BgyKSJKQTABgxh5kDkvpmRZU0JEKQivgQWnBgEoF9VCDS7nsawsxtQODDCGLFev3ZIB6YKgI8RSCoLOEFEKgs4QUQqCzhBRCoLOEFEKgs4QUQqCzhBRCoLOEFEKgs4QUQqCzhBRCoLOEFEKgs4QUQqCzhBRCoLOEFEKgs4QUQqCrgD+H8ulYrmTHyttAAAAAElFTkSuQmCC;" vertex="1" parent="WIyWlLk6GJQsqaUBKTNV-1">
          <mxGeometry x="-20" y="50" width="151.89" height="260" as="geometry" />
        </mxCell>
        <mxCell id="sDRr9QzIVoGOXBDVQPze-7" value="" style="edgeStyle=orthogonalEdgeStyle;rounded=0;orthogonalLoop=1;jettySize=auto;html=1;" edge="1" parent="WIyWlLk6GJQsqaUBKTNV-1" source="sDRr9QzIVoGOXBDVQPze-1" target="sDRr9QzIVoGOXBDVQPze-6">
          <mxGeometry relative="1" as="geometry" />
        </mxCell>
        <mxCell id="sDRr9QzIVoGOXBDVQPze-1" value="click on Features sub menuItem in Roles &amp;amp; Features menu" style="whiteSpace=wrap;html=1;rounded=1;glass=0;strokeWidth=1;shadow=0;" vertex="1" parent="WIyWlLk6GJQsqaUBKTNV-1">
          <mxGeometry x="160" y="140" width="120" height="60" as="geometry" />
        </mxCell>
        <mxCell id="sDRr9QzIVoGOXBDVQPze-3" value="&lt;h2&gt;Create Feature&lt;/h2&gt;" style="strokeWidth=2;html=1;shape=mxgraph.flowchart.terminator;whiteSpace=wrap;" vertex="1" parent="WIyWlLk6GJQsqaUBKTNV-1">
          <mxGeometry x="180" y="-20" width="150" height="60" as="geometry" />
        </mxCell>
        <mxCell id="sDRr9QzIVoGOXBDVQPze-4" value="1" style="ellipse;whiteSpace=wrap;html=1;aspect=fixed;" vertex="1" parent="WIyWlLk6GJQsqaUBKTNV-1">
          <mxGeometry x="120" y="-10" width="40" height="40" as="geometry" />
        </mxCell>
        <mxCell id="sDRr9QzIVoGOXBDVQPze-5" value="" style="shape=image;verticalLabelPosition=bottom;labelBackgroundColor=default;verticalAlign=top;aspect=fixed;imageAspect=0;image=data:image/png,iVBORw0KGgoAAAANSUhEUgAAANQAAABKCAYAAADDsnorAAAAAXNSR0IArs4c6QAAAARnQU1BAACxjwv8YQUAAAAJcEhZcwAADsMAAA7DAcdvqGQAAAnSSURBVHhe7Z19bFVnHcd/vfdSks6yEtgwNAVHaOjElbAElFkB60vUMF2mQjYys/kSYnxZjIn/GU38x8yYGP8x/LOZmZk4WWKcGYZtGJZmMFA36siqNTbQXFY2mlbKutHee67f7/Oc0x7uetuyPrfe9n4/zdNz7jnnnrfn+Ty/33kpNOTz+ZIJId4zhULRxq6+bQ0NGcvE04QQ75FcLmulqGSlUiShhAhBVKJQJqGECAJkKsEoCSVEACKkexJKiFAw31PKJ0QY3DUUfiSUEAFoQFHKJ0QgKBPTPgklRACcUEBCCREQCSVEAPwtCaV8QgRFQgkREL1tPgPJBWY5laaL2qOhgTey302l6Qvl4utvWjablVBpEmH8ECceQ/6IpU0D69KJVJoSKrRYXqichEqgRL64T3b2WbP/vJyxkYsNFhXcImIJksmZrV5fsk3bI9v2KU6BXs4vDsNJJaFSJDIxGI2+Gdnxx7I2fCFsDyb+/6zZULLuh4rWckuGXgWVKhGq7m9KpGXiG8PHH81IpmUK65X1y3pmfU/VfUB0lw/wnPIknz2Gkz6oU7KcYf2ynv2fW8QTA1LXrWe6hypZFJVs4BXJVA+wnlnfrPfQUUotCMk0T2gURTbyuk5HPcB6Zn17kcKm92pBrodCCoATrLt59QHr2QuFD+5XOOpeKOjkeiqfAoh6gfXt0j38hEQRCrjQH7inEjUOZapCnde1UMkJ1U3y+iSp95BiKUIJERAJJURAJJQQAanrd/mSZxHFQtEmJibtiR/cFM8JyO1m93/XrBmjl/9i9tSTfvKsfMLsoS9h+E+zx37hJ83EgV+ZtVwyO/zjeEIZbn48fh3jZie/b9Ybf1wQt5rddhuGo2YD2N+lwsFH3rLGxhWWzWXd+3yZzMJii97lWyRau7xMhWtmazf78UUF2x29+O7ydjx7wdxhtvdBlM/Gn+scCVVlOiGRXUHv/QaGbWY7ELFmYk2nWfuH0dtviSfMQDPmcZl2LDtvEDl+95Oy8nOz/ng2ab1zjvUyCnF++TIb8fnmeLzRz1/D8Xj58mNx20FxnUp6Gaxn+36zrRgmTB1rss4lglK+aqZ8d5k98IBZjqlb3uxQt9nYGbPfPhrPj9nzQ7OO9fEHMIrlm9jQUilf58Nmuzr8OJnAvGtYpnmulG+W+QY57jlotm5V/BkUhs3O/BLpIDsA0IaG/snd8CXrP5OJ82bP/dRs8Cs4pl3xxJi+b5qdqJCy7oPIrRi6dDNZZhDbxLE3Yf2jJyH742Yfwfxt7IgSCmYX/mh29Nn4cwCU8i1BOtAbN2E48i/8OoFrqCIE2OQbVUIHGiBlmhjAImh8f3oC7QeRDB3+FM1fRmSDTAU08tOQ5AjK0Lq4p18Ae+71Ml3Ctd0RioBhhHCw4+vxunFtdNfHsC/ID8+iEzj8I7OX/43PiCQ7sU88puNo5BMY5f4f/7XZq/zeDdCIY534h1kPvvsi1tcKSSmTOx+Q9shvsH/vmG34PERDVKt1JFQV2cyLdVzDnH8GQ8hwCdcuzF86EbkSNkMwLvMaGlQfevR8j9mxl/y8hDshUw7DwafQoHvNhlGOPu3uLcwNxDsEAdPlABqtIZXagHnj58z+8CTWiUl9GPYjYuTQyNEXIE9FxPgOIurPzE4hsvIYTmPbFGgVIyoiVf9/uSDAxH7sN9dzQ2B7zxw2O4fvDmJ9nVsxDSnyyUewP/g8/KLZ89w2TsBG9xe3tY2EqhafQ1tGeGJUuRpfC1we8rPWutbquel9+IXrnFNxikXG0GOPxeOkmSkZ7BlK35ZDQxuDiHOCxsmGni4DiDKGKMDoydTya4iMSdlCUUAzUjI33IFUE2nr/ZCK8w8hqrnoGej1kgkcV/pYV/FYkXl/NLVP+xElSdMtfljLSKgqsf12H1XY23c/6MseNE7ShMh13fU/Gud16RsaVeqSpSJI2ecG6RpTsXQ5DRkTxhEhBl5Jlb966S4wmiKS3vNVZH4fMCviGnAAkaLnzz5CVZW3yvbpb3FngGha60ioKrERIjGVO1fWmPvYUBEaNiGCkSuIIEwDt6WuD1qR9jB6JFwewS9MaE2lioyALfOxrhKIUkwZG9ECzqT2rx/XewMnzXpfw8w4il06htQPkeI4ru/ORfNoNIiwDJ6N+PJUR4HjW7kyHp8Fdz6w3DjS5Knz9nfsA6Iz/+GcWkdCVQNcsK9Doyig9+9JpVosJ9Dj8s+u1sS3z3vZ60KMLd8z6/q42db9iGZlt69P4XuMChu+iHmfQfqIcgAp2XwCVEWwTkah3Eazu7+N7SIl5bb33mf2aUQld0Mxfli1GoJzvtvu3rLtXvXH07gWURn7386OAenrCMVAp3L3w4jMBxHpcHxr59EB9EKcAs7d1m+Z7eT6UPZhn7q+gZLuUGoUCVUFutr9cJi9fDlPYzq67xzSvi40vvzjSMEoVYtv0F270Rifd5dV0+BzzwuQCg2t/QuQCiWL7+TndVeiMicOQ3JI1QxhupCSUuimdxCFEIn6uMDvMX4eskA6zu/eh8Y+UJbyQcyzXBhRdiefJUE80vMcro1gWjPM7OjCei/Mb3/z2DY7EN5t5LOpbpRWhDm+ZXI0larWKnoOVe1Xj+YL5OIrPLxdnE/doCinjQ12yN8RC0a87UqvD/Eh6/sh/Phs+4Z1tK3GfpV9n99txLQbvvsH+CCYKecQUr70jYsQVOs5lISqFaHEoqIHu0IsASSUEAGRUEIEREIJERAJJURAJJQQAZFQKfh/CYnlTzXrua6F4vMHkjyIu3kdX6IRy52knpN6T9pBCBShgDuhKG13TMZTxHLG1TPqO6RICXUvFP//Vf+kvME+uLdgLesVpZYzrF/WM+ub9c6fkChCuZ4KJyKTQTHbdd+4pFqmsF5Zv6xn1rcLUO5XOOr6XT6+x5eUYjGyyclJKxSKbtj3wkrLv7rSrryRtagYPjUQi0MmW7JVtxat9UPXrGP3NVuxYoXlclk3zGYpVRypFiiWXo6NoUz+vzaJ3EuyFKpQLEIwFIxzOk8QlxNLC5/ScZhxL8Fms1nLsXDcvRTLrGThMhEJFZNEKFrD/3fVSQWZoogF0zDuXIrPucSqfaYEQVVxNAOJfJrnhaJMGcjEOg0RnYiESlEuFSMW/7TDF06v+1O0dIEsjEL+GtlHpNAyEQlVRiKVd2d6PJke5rSLxYRVmUhDb7w80+OhZCISagYozvQQJ5syuWoRSxmoQ4Mwho4xliikTERCzUIiVjmVpovao5IwoUVKkFBCBCQRCldnQohQSCghAiKhhAiIhBIiIBJKiIBIKCECIqGECIiEEiIgEkqIgEgoIQIioYQIiIQSIiASSohgmP0P/3wHricx+RcAAAAASUVORK5CYII=;" vertex="1" parent="WIyWlLk6GJQsqaUBKTNV-1">
          <mxGeometry x="-20" y="320" width="150" height="52.36" as="geometry" />
        </mxCell>
        <mxCell id="sDRr9QzIVoGOXBDVQPze-11" value="" style="edgeStyle=orthogonalEdgeStyle;rounded=0;orthogonalLoop=1;jettySize=auto;html=1;" edge="1" parent="WIyWlLk6GJQsqaUBKTNV-1" source="sDRr9QzIVoGOXBDVQPze-6" target="sDRr9QzIVoGOXBDVQPze-10">
          <mxGeometry relative="1" as="geometry" />
        </mxCell>
        <mxCell id="sDRr9QzIVoGOXBDVQPze-6" value="click on Add Feature button" style="whiteSpace=wrap;html=1;rounded=1;glass=0;strokeWidth=1;shadow=0;" vertex="1" parent="WIyWlLk6GJQsqaUBKTNV-1">
          <mxGeometry x="160" y="230" width="120" height="60" as="geometry" />
        </mxCell>
        <mxCell id="sDRr9QzIVoGOXBDVQPze-9" value="" style="shape=image;verticalLabelPosition=bottom;labelBackgroundColor=default;verticalAlign=top;aspect=fixed;imageAspect=0;image=data:image/png,iVBORw0KGgoAAAANSUhEUgAAAekAAAFECAYAAAADTManAAAAAXNSR0IArs4c6QAAAARnQU1BAACxjwv8YQUAAAAJcEhZcwAADsMAAA7DAcdvqGQAAGVrSURBVHhe7Z0HYBTH9cYf6hISQhWQANF772AwYJobxr137NhOHMcJ+SdxuhMnsZ3iksQl7t3GvWDAGAwGTO8d0UF01BHq/N83uytOx510p4IP8f3wWnezbXZmdr55b97uNcrIyDgphBBCCAk4guy/hBBCCAkwKNKEEEJIgEKRJoQQQgIUijQhhBASoFCkCSGEkACFIk0IIYQEKBRpQgghJEChSBNCCCEBCkWaEEIICVAo0oQQQkiAwteCknrn5MmTsnXLDsnKzDLfExLipWPnduZzTSkuLpGN6zdLYWGR38fLzzsumzelS2lpqbRqlSqprVrYa7yTsfeA7N2bYT5Xd77a5O37xrVsquNsuzZCzkYo0qTeOXzoiPz59/+QQ4eOmu+t01rK7x6eIrFNm5jvNSErM1v+8OtH5eDBIzLqgvPkhw/caa+pnh3bd8uf//APOZ5fIDffdrVcdsVF9hrvfPbxdHnztQ/M59jYGPnNH38mbdq2Nt/dqU3evm9cy6Y6vq9rKysr1/wd179lEhkVKRER4fYaQhoedHeTemdb+k45ejRTIiMjJCQkWPZnHJCdO/fYa88+cnLyZOo7nxqLuSETExMtzZsleV1iYhrbW55ZcnNy5be//Ivcc+cU+Wr6HDuVkIYJRZrUK7B2lixaaayfTp3bS8dO7aW0tEy+m7/UuMHPVlatWCtLvltuf2uYTLryQnn6+Ue9LrfccZ29JSGkvqBIk3rl4P7DZo4TDB7aT7p062g+b9qwRY4cttzf1VFSUmpcyFgwz+sP2N7ZF8epLQmJ8dKnbw8z6Phg6udy2Mdr8IZr/jxdG86Tq5Y71hccP90FXd16zC3nZOd6PX594FpfnvLkDdeyqOpaYUmXl1sDvBMFhWZ7XKMzj+56fk91jsFhXt7pZeYp3bV8PR3LdT3+4jshdQnnpEm9MmPaHHn5hbckLr6p/P7hn0tefr785eEnpLSkRH7807tl2PBB9pang077vbc+lq9nzpUi27UcHBwsl04aL+MvHC1//v3fvc77ZmflyKsvviNLFsOKLzNpcLffeMtV0qFTO3nkj/+s0Zx08+ZJcte9t8p/n35RO+YcGX/RaLnjrhtMvhzQYVc3J71v7375339fk/T0HRUde3BwkHTs2E5+8KPbpGWrFJOGMnj8r/+W9Ws3mSCtX//up9I4OsqsA65zyEPPGygP/OzuSnlZsXS1/OOx/5pzPKDlPXzkEHuNZ2oyX+9w7GimvPHK1EplDhCDcPvk66V7zy7SqFEjO9UCwrhh3WZ59aV3Zc/ufXaqBcr6xtuukcFD+pn9XMvVHZTJ77R9tWufJiuWrZHH/vK0Sf/lbx6Q/gN7m88OrmXqWj/u6RdPHCtP/fN5ydh30Kx3PRamOmZOmy0ffjCtktBHNY6Sq66+RCZcMkbCwkLtVEJqDi1pUm+gI4NbGKS2bCEJSfH6t7mZz4RozJ+32Kt1e1w7vn88+h+Z9vmsCoEG6Py/+HSmfP7pDK/u8iOHj8mffv8P+W7hskpiceJEobz56lRZtLDmbuqS0jJp1jxRLhgzwnyfN3uBiswW89lX4P7/zS/+Ips3bzPl0LRpEzP/i89I+91Df5OVy9eYbREU1advd/N5f8ZBOXSoskDt2LazIshr5/ZdZr7clbVrNprjwgPQsUv9RWJv37ZLfv2LRyrKHNeD6wIQ38ceeUpmfvlNpTrD52mfzTKDNkegsU9iUoIZaECMn/rH8zJn1nyz7kwCy/zF596sEGhX0Db/9dgz8sZr7xuBDlcxRvkiz/iO9GeefslsR0htoUiTegPW4tat283nbt06GcGJjo6Wrj06mbRtW3fIgf2nd4Lgm68hfpvN54GD+8qzL/5dpn7ykrw59Tm5/qYr5RvtuJ1ocVcgEJ+q1YtzwzKdcPFoefXt/5h98XfU2OEqDDMrhM1fCgsLtfM9IWMnjDSPbmEA8YYKP1ydvgD3+NtvfGAGDO07tJF//fvP8r9Xn5CX3nhK/v7Uw9IipZnJ29tvfCSZx6xH1jp16SDhWnZI37/vgEkDEDk82uaA4Dw8KuaA7bepiIM2bVtJfHy8+VzXQIww+IFnAQOw3//p5/Li60+a60K9de/R2ZTTh1M/k9279tp7We0Dgy3UmWtZPPPC4/Lkfx8x3gSsm6EWK9zQ8MY8/dyj8vzL/zRWNoC1j7p95c1/Gyu6rli1cp0cOnBIfvzgXfLyG09r/Twpvfp0N2U+a8ZcWamDT4jzTbdeLS/puXGdr73zX7nmustMu1uyaIVpw4TUFoo0qTdWLltjhCIqKlJ62dYg3Jb9BvQ2Ud6w+jau32rSXUGHPG/OQmMBprVpJff88DZjqQC4EC+74kIVyVHmuzuYA1+2ZJX53Ld/L7nl9uvM+QH+4jvSawvyc+VVl5gOGcIz/YuvvVr2rnw75zsdmBxSwYk1blbHrQ3S0lrKffffbvIJy9KxpvEsd+u0VPMZlrFznvz8fLWedxvx6q9lioC8bekuon3kqBzS8gBdu3WU0NAQ89lXFqvQvPDM6x6Xzz+eUeEFWbNqvYk7gGjddd+t0qNX1wq3NsrpXr0mWMeob1fhwrX/+dFfm/X3/+SuSmXRrHmyXHn1Jebz0WOZcuRwpvl8pkAdTPnVj2TEqKESHdNYYmJiTPkhjmL2V/PMNmiDaIuOWxt/r7jmEhk8pL9pu2jDaMuE1AaKNKkXYF2h8wattPOFu9uhbdvWkpJqfV+6ZKWZC3Tl8MGjckStQtBvQC9pEhtjPjtAANB5us7NOuxTSxNzl2DYeQNPmxfE9zFjRxhxrS2Dhw2oEPwZ0+fItq2W1eqNIr3OzZutILouXTtpGTQ3n11J07Jp066V+bxJhQ+CjOvs0KGtSYMoQ5wBXLEHDx1RAYzXvPQ317R1y/YK8dy7Z7/k5uWb/Xv06mbS/AHXM0sFydOySuvWmUpYZ7vUW6u1DovYnWS1rrt2twIGd+/ea7wIAPWYnJwoF2h9uL9QBtddXPL9PeKGOkBduIMpB3gs4NlAmTuDEYeQkBAZasdZoA2jLRNSGyjSpF7YuydDdtnzjL379pDGjU8JKl5iAhco2LFt12kBQ9nZuRXBOHhsyxNxcbESE336c7qHDh4yfyFMKS4DA1fiEuIkIjLC/lZzIPjX3jDJvNwEHoP33/30tAGHKwUFJ7TTtuaUDx44JC8//9ZpFuqbr0yVrGPWIAPu46KiYvO5rw5W4H2AKDvzpNvTdxrhb9061QScNYltIrt27pXMzEwjcrC6AQYDzVQo/aWq56Sb6rkgT7heZ9ohLztP3nr9/dOu6cVn3zDeA5B5NEsKbZF2QFQ25rQRnPfM0y/LlAd+L3fd+qA8959X7S3OPEFBwacJMEBbxYAEfPXlN6ddK5YF3y4ydYU2jLZMSG2gSJN6YdGCZUZAwFczvpEH7vlVpWXRwmVmHYQL0bhnK3jr2KQrLzZW7Lq1G2X+3O/sNVWzc8cejxYqlgMHLBe1K4iQTkyMN2W6TwdAsGKd+ejuPbrYQXktJDsrWw5kHFKBOCEZGdb8dI+eXT16HaqjquekH5jyA2NNuoIBxNdffevxmjx5GTCQQDu4784p8tDP/2yi5+fOWWgGeGgXzZol2lsGHqiHBfOXeLxWBAZi6oGQuoAiTeocRMZuWH8q4hnWBDpw18XVwsDc9dk8dzd67HDp0rWjsbC+nDZbjh6pfv70wksuMAFQVS0//b97JDw8zGwPa71te8uVvG7tZlPGu3buMfPRbdulmaC8jp3amTxs2phuosDhmoVFB5E+E2BeHAFUnq7FWR557DfG4gfr1mySZ556SXJy8yVer+O6m66Qvz7+W3nxtSdNgODtd91otgtEUO6PPPZrj9fouiDYjJDaQJEmdQ5e+YlXf4LRF5wnP/vFfR4XrAOw+LZv220+AzyGg+dNAeZYPQERyvLgSmzWvJn56x4J7QrSsb6ugCv/uhsvN8FGiK5e8O3iikA3V/Ce6cRkyzrMyc4zc+3o7L0tCFZyXK54vGfgoD7mM/KfrpZpZmZ2xaNtAGIMUYZLdpda6rhGzP07QWf1AQYRsPBBrg60IiIiPF6Ls+CanXiARQuXmqhvBJU9/NdfylXXXCodOrWttE1NwL7O/p4sWljBeKa7JqRqeeLYsPTLy8s9XqPr4m+wHiHuUKRJnQIXJl75ic4RLla81GHIsAEelzETRhphw7aIZMa+ILl5oiTZHT8Cy9w7VLh6ETnruNNdaamihc4RzJm94LQ5YnxHel3TWS3p0WOGm8/z5i6S/fYcrCuwdvEoGli7ZoPscBmYOOTl5ZsXuMzXY8BadgUWM64NAUnLl64y1w/r2fmBCQRfQTDhDl++bLVJw2NJ7oF3dQkGEX369TDChaA2XJc7mHP++INp5qU0eATNqWdnbrd5i2SJbRprPjtgmzWrrcDDqnCO4QriFRpHWYO8Des3VZzPYaMfb7tzp5UOeJxpBzy/7enXwlavXCfvvPmRmWf3tJ4Qf6BIkzoFnR9e+QkgKp4imB0wz9rOjgZetXxtRccJC3L8RaNMxw/L9D9Pvmh+SQtAZD96/wuZO8fz3G9Ky+YmqhvgzVEvPPe6ET6Avy//762K/NUlEKuJl08w14SAISfC3J0Ro4YYyxFW7n+eetG4rB0RgXWGN3Z98tGX8sy/X1aBsZ4Td0hqliht2rQyx184f4mZE+7bv6e91hKnLjoIQPQxhALlBwH1FABVl/Ts3U3ad2hrBlsoX5zbEU+80OaTD780P0jyv2ffMI+gOflBZDdI37zNvPTGVbxnfDnHPAvviZDQYLXgrYEJhBw/r4mBmxNtDm8FnjcHs2bMkw/e+8w8x47t5n3znXlJSU1J0mMPP996a9v8eYvkw/c+rxgIIv9rV2+UZ//zihmUvPrC2xWBf4TUFIo0qVOcX7wCeFOWY+V5Auuct2lhH+zrMGzEYOndp4f5jPnt++/5lVx7+WS59fofGpFGUJMTIe4KBODiiePM89Vg/tzFMvmWn5h98XfRgqVy653XV7wMoy6JT4iTG266wjwv7A08/3ubnh+vKEXE8y9++rDcfuP9cu+dUzR/D5jAKYgU3mg2aEg/ey8LRJN372ldMwQRUdZ4g5sDrr2XCib2x/qmcU2lfcfTH4mqaxAFfsfdN6qVH2uehf7rn56U22/4odx31//JbTf8yAg0BLRXn25y0cSx9l54hK2/2Qcu7yf+/pzcc8fPTFDhnTf/WF5/+V3p2KWDvWVl8EIcPIsN8Jz9nVput9/0Y0nfagXSYfrhEh0woR5w3vff/Uzuuu1Bs91/n3pJeuvABT/0UhNQxpfqsfv172XK+UNti3fcZNUf6hGvm0VUPmIIbpt8Q6WnGgipCRRpUmegQ3R+8crXZ3P79OtpOjTsg0hfxz2Izu3B/7tXLlHBdRU9zM1eOmmCXHLZeGkU5Ln5JiUnyG/+8FNjUbu+xxrCePPt18rgof3tlLoHAuA8J+sN/NDIXx7/jXRREYK1i+eGMb+MMkAA1Z133yR3/OBG88ytO87bx0Db9mlGsFxxXOKgPt8y5g6ej0bQl1PmEF5MU6BNIL7g8qsukp//6v5KotWqdar84qEfG+8DcAIMwW133iAXXTLGfHYHQokgszHj8Ly7Vb9wP8PN74D3ff/wJ5NNeTqg/vFGMLxHPDjkVLvwF1zDz375Q7nltmvMtaHeUH+oR+QHAv6nvz1k5tcJqS38gQ0S8EC44R5GoE60Wm3+BOPgxR75efkSpIKOgYMn4fs+cfIH4MaF6Dru4LMV1/qCaDWObmwGI96AmxgvaCktKfO7npxzoU04wYbuYHrAipGoOh81wTXvwN/2SUh1UKQJIYSQAIXubkIIISRAoUgTQgghAQpFmhBCCAlQKNKEEEJIgEKRJoQQQgIUijQhhBASoFCkCSGEkACFIk0IIYQEKBRpQgghJEChSBNCCCEBCkWaEEIICVAo0oQQQkiAQpEmhBBCAhSKNCGEEBKgUKQJIYSQAIUiTQghhAQoFGlCCCEkQKFIE0IIIQEKRZoQQggJUCjShBBCSIBCkSaEEEICFIo0ISSgKC0tlcLCIvsbIec2jTIyMk7an4kflBSXyBuvTZUd23bbKado1yFNbrntWgkNC7VTag46rKLCYomMipSgoEZ2KiH1g9OuO3ZsJyNGDbVTzxxlZWXy3tsfy+FDx+Sue26W6JjG9pq6xxkIRESEm7+EBCIU6RridGZNmsRI126d7FSLqMaRkpbWSoKCa++o2LwpXaZ//rXcdd/NEhMTY6cSUj983yINMo9lSV7+cWndOlUaNaq/gemH739h/l51zaXmLyGBCN3dtaRZsyTp3rNLpaVtu7QKgT558qQUHC+QvLw8ry48WMtYjwWfHdBhFp4olLKT5ZKfV2D2d46Hda5gnXN8121wvN279prvDs758vOOG8vFHV/yDHAcT8fAd6S7XktV58S64/kFUl5+aryIbZDmKX+gYp+ycsnOypHdu/dVbIt1+/bul8OHj1Y6poOTF9fydq7Z0/UiDeuwjTu+5t2XMkV9Yb378bzhekz3/GF/HAf5c67X2zU458X68vJyO7VqcG2oS+zn3hZBdddb1fqYmGhJSoy3v1k453PaD67JuR7nWMiHs11VZXhq+2KzIA9OOwBO2Xm7Nle8tQ3s554Hp5w95Q3r3I/j2rZcrxHp7ve0g+t2riCf7uXstAtP9ySoqhwq8mbff7jfnLy7tg3XciU1g5Z0DUGjrc7iwE3x2cfTZcO6LRIZFSEnCgqld78eMvGy8cYVjka9dPEqmTljjoQEBZt9SsvLzMi+e48uMn/uIpk5/RuTDvoO6CWXTZrg8byuVoGTt8jISNmj4pWXmy83336NdOnaUbZu2S4fTv1cTuoNiHOFh4XJNddPknbt08z+uTl58t67n0rG3gyJahwlx3VwMGBQb7l44jgJDrby6JCVmSMvv/CmnD9qmAwc3NdOFXOOTz76Um6/8zpJbpZccc7CE1YnEREZLlddO1E6dW5vvnvyFmTsOyjvvfWRXHfTlZLasrlJcwX7TPvsK813G9myeZuWdaEOmJJl9LgRpsy1cCVfOxGU0zU3TDIuzerKe87X82XD+s0y+e6bzLWb9drJvP36hxKfGCeXaBm4W3a+5L26MnXNV2hIiBQVFUl8Qrxcf9MVkpycaI7pjnPMvVq/0dFRp10rOsgXn31TevbuKitXrJVibRMo/85dOngsj5O2OHfv3kWysrJNW/HWrp36LNGyCQsNlYKCEzLhotEybPggUz7VXW9169Hu09N3VEwZHdh/SKa+84kcUwsb3+PiYqX/wD6yacMWsw1Ae0/QMturx4RoFBcVS3LzJLn51mukqW7vinN/uE5VOfdHRbmqCAaHBKvglMvwEYNlzPjzT2v/YO3qjTJ92tdyx903VtQVynXa57Mk82iW3HjrVWY/p5whahgIJSTEybU3XC4tUpqZfdyvGbi2rYjwCK/3tCve+iXX/sG13lF/yBOu9ebbrtH22sJs51pH4eHhckKNhQvGjpARI4eY60HePvtkhtl+y8Z0adOutcn7zp17KvoXGCrFJSUV9xepGcFTpkz5o/2Z+AEa9to1G8zNltamlZ16Cqyf8eVs0+Hdfd+tMmbc+dK7T3dZ8O1iI96wtg8eOKzbzJGx40caoRwxaogENQqSxd8tl549u0qHTu0kRTv5jL0H5IEpd0ufvj29nnfTxq3mb7funSq2yTyWLbfojXzZFRdKYlKC1dm9+4lMuHC0Od/5I4eZG3bOrG+lS7dO2gFEyMIFS+XYkUy57/47ZPSY4dJR87B0yUpp2SrFuPZdQUefmZmtQpFhPAhBQUHm3N98vUDimsbKgIF95eDBw/KuCtZ52tHdesd1MuqC88y+X834Rtp3aGuspqNHM2Xb1h3Sb2Av0yEAdEIb1m2SHr266nmjTZor2Gf5klWms77uxstl8ND+WgZbZM2q9XLjzVfJRZeONXlfOH+JNNfOGtdfXXk3jWsiy5etkZTUFpJgW3L7tOwXL1qm9TdSmjZtYtJc8SXv1ZXpFu3wvpr5jVx3/eVaVxfJ8POHmLyuWr7WlGuICrcrsHBma52dUHHEvO0F2rb69uspixYu1zyEmY6zWC3Elbp/oQr+7ZNvkHETRkn7jm1kwfylRsyaaZns3bNfPv1ouhHY62+6ynTAhw4dUeHZoHXTxmO7zs3N00HQDOnVp5t2yteYAVpiYoJ8M2eBdNRBV2MV3equt7r1e3bt03aVZe6XkpJS+UDFAvXxg3tvNUKBto97CwKPbQDa+6GDR+T6m6+Uiy4Zq/nrLqtXrpfyk+XmXnMFItO3fy/Jys4xInn/Tyab9gGBe1/PhYHGvfffbsqsnZbDrBlzdZ8gaZ3W0j7CKXC969dtNnlB/kF2Vq7MnjlPhmmbx/FRvxhQXn7lxSrMet+peCKvi7TdYaosXO8j12t2BgOubQttwNM97Y4v/QPyh4Es6v3q6y7Te3OQGdhgcNmpU3szMEU5oO3erWU+Uu9ZlMOMabP1Hog1bQd5W7F0tfTQ++a2O6839yHqCsft1r2z3Kppw88fLKHBIbJxw1bpooND93ZMfIPu7loCS/e3v/xrpQWjzOycXNmxfbd2QiOMEIF4vXEGqZikb9lhRqa4gR/8+T3awHuboDB0DugcS4tLJUdHsrWlj3bczZon29/ECEcr7UjQgeFcOGc/7axCdOS+e89esw06foyqG9lBauh4fvTA5IoRtis4RlcdyR88dFg7j0yThnzv3ZNhLDiMpHHO5GaJMnTYAHM+LPiMNKyrDXFxTaVbj44mH1FRkSqyTfX6UiUlxbK8MRWB8xw5fMx8r668Yb22aNHMWIoYvIBtat2gM2zR4lQ5+ktVZYpOdfWqDdKnTw/TEQJ0ZueNGGgE8ZAOctxB3i+5bJyx3prEWgOnWB1AtGzVwrgdXRmiZe20P5RL8xZJkqPiBLZuTjff+/TtYY6J88IjgnL0BkQUAoZBp9PpprVpaTwT6OhBdW3InzaG64eYDj9/qBEzgHLq5sEyQ3t3rFmIequ0VB0kW3nyhf37D8qhw0dkvA5i0Z5AmgrzecMHyfq1m8096w4C29q3T5Otm7ZVuHbR/oNUaNu0a1VRv117dNZBWxfT5lBusMxLVdR27Dw98LQq3O/pmlBSWmKm0IJVQAEGBRMvv1AmXXmRuWdRDhh8YwDlWPWID8Cgc+OGLeaaANrcwEF9K9pBeVmZGRQ6++Baz1OhvuX2ayvqjvgPRbqWjBpznvzytz+utHTo2FY7okI5fvyEfPDep/Kvx56pWObOXmDmjEr1RgFwK32jaS88+7r8/dH/yPPPvGbch+5zVjUh2O4EHXLUwktP3ylP/eP5ivw8/8yrRmDzsq1BwYBBfeR4/nF5/K9PyysvviMr1LJEfryRqh0srOYtm7ab7xB7iH5LFUuAc8bqeufGBfiMNKyra3DsqgL2qipvdDa9VSy3bd0peXn5plPGgAqC4Jp/f6mqTMu0YysoKJDlapU88fizFfXy2itTzcDBkzAA7IfB4AfvfSZPan3+7U9P2pZj5XbjWGWe8FQ3kRERxqNQFcg7rMBXXnxb/vnYf+Vff3/GuKKd+ezq2pA/bQzXD2usSeypKG90/rFuXh3g3t79xdO5QJIO9FzvWXd69u5uxP3QwaNGwCBkHTpZXiKnfjHHjnw7OOXs3He+UttrBIk6GO2rA7MPpn4m/3z8GeOax8DC6XNQDvAAvqz167RHtM21OtjAteCaALxQ+l8F8CYMGTpAvp23SB77y1PGxY57ydme1AyKdC3BnC7mIl0XZ2QZEhqsVuNAmXDxBRXLxEkT5JJJ483cEtzPz/z7ZePqGqLb3TH5Bpn8g5uM27m+SE1tXik/F148Rq65bpJ07mbNbWGUfv+Ddxk3Vyu1zOCe//cTL5i8egIub8yLQTAQLLJu9Ubppseqz0dnaoov5Q3rB+zasVf27ztgOmdn7rym+FKmnbq0r1QvF18yVq674XJJ0fpyB0LwpXasH38wzVj5k6680HgI+vTvaW9Rf2CQ8+Lzb8rqFeukl4oTXK/3/+Qu4151qO56/W1jgQ68LLj+LZvT5agOeA9kHJSeanW6inIggUHs2Amj5BcP/dhM/aBOX37hLfnyi1kVVjLuidEXDK/UJmFpw7quauAHTwyOe8XVl5jv7779kbzzxodmKoHUDIp0PQF3WVhomDTTG9g18hvzdnCxQsgx34RO9oabrzTuYXwuKio2wRbVUeZiaePG8uUmQMBNaEiodO7aoSI/Xbt3NnOCjpsQLjscD65H3Mh333uLcXEir97o3LW9EWgINVzLnbqcCmZJ1mvKPJpZKbIUn5GGdQ6YO9T/KoDVgqCuusSX8ob1AysI84iwiOCKbRpbtWVZXd6rKlN0eDHR0RKhnWK3Hp0r6qWLDnTQVrCdO8cLjhsLBfOSmOPHnGtYeJgU5J8e7VsVaA9Htb5crXUEoGVlZtvfTgeuUERE33Tr1WbaAIGB5XqtcHM6VNeG/GljGPQW6fkO7D/l9odltm9fZbd+XYBzod6yMnPtFIv9KrqxavUieMsT8ETA27I9fads3phuBqiOSzokNMRMHyDGANfsgHLOzsyRpGSXe0DvaWeaBbiWqb9U1T/gHKhzWL6Y6sD9cNnlF0r65u2mbUVFRem1hkvrtJSK9ogF/URam9ZVeqpwb4fqNWPgjoCxG2+5WvYfOCSH7Skn4j8U6XoCrixYR19+/rWxEHBjIBr6jVffk4+mfmFuHLgaESyCIAyA9Qu/XVLhdgIY0ZaUlZqAEXRu6BBSUlrIsqUrzWMYiNpF9C6iWqsDc2KYP547Z6G5adHZrVy+xri89uzOMHn6+P1p8ubrH5jHK5DnfWpNYl4PefVGYmKitFCLb+nilfo5Xq0/K2IVdO7WwcwpwlrCObHgM9KwDiDwqKy8XObPW2Q6DzwnO1/LARGidYkv5Q3rB1YQ3H9wdSMav6pOqbq8V1emOHa/Ab1lzcr1xu2LOkEZwSX/H7UukUd3QnXwByHYvWufaRPYZ82qDbJrtxVX4CtoDzm5ufLdgqXmOEXawc6eNU8tK+/TEOjAcb79GQfMtcBNPf/bpWaeGVR3vf62McyZI7gKEcOLvltmIvkRuIb2Wltim0Rr+WYbbwmuqVlzbccpzWXWzG9MuaNdID4B7bpHz25VTnnA2wJRRTBjzz7djYcJoD317t3dHAf3Kc6DMkM5h0WESavWVjBay9YpKuSHZJnuj3s6Q8tkycIVZu7eH3zpHxAw+OQ/npP1azeZa0S9I39oU2hbuH+TmifJ559+ZcoBdWR5oV7RvmOBfZTTwbbPPPWS3gtLzHWiTe3YtlOCg4KM0YLjzJ3znbz56lSv0xvkdBjdXUPQ2XiKonTAzdlG07OzsuWTj6bLnFnzZcmi5cZ9efFl48xNHB/f1AjGF5/O1Jt2vqxft8kEdR0+eKQiMhiWXbZ2JF/oDYNngRFNiYhvRFTP/mqemf9BhGnbdq3NKNY1uts9b40bNzbWy/x5i+XLL76WubMXmpv30ssm6Ci5rSA6u1XrVFmn+UCeEKWNR5JGjBwmeEQG6z2BACDc7EsXrzCBIjiGg/s5533znRzXThGj7NSWVjQsHk+Ljm4s3879zpxzk1qxw84bJId1QNFZR+TeortheblGVbtGsAL3cvClvEFERITxCqhdI6NGD6uyc64u77FNY6ot07j4WF2siOWvps+tKCO4DJ1HdFyBFyZOrwVC/tX0b+Rb3R5vpIuNjdFOPcRcvxPd3bFzO+MxAO7lgbpJSk6Ur2fOMxHMC+Yvka6678mTeEQo3mO7RkeOx5I++2Sm1aaXrJSuXTuZwQ+ECser6nrhOaiuPFwjnWGJIsYDUevLFq82A6dOek0QU8ybukZ3u7d39/bgDgI5IWDTv5htpq3gkcB9tHPHbvn8kxnmkTzU56jR58mgIX29tn+A/XFPYm4eEei4Jx3c6xf3QmhoqFx7/SQdzFsDE8tj0kjP+a0pkwwdBA0bMchMuaCNos6r6m9caaYDm6r6BwQbhoWFy7QvvjJ1/+3cRWYwcOW1E7UNNTHXWakctJ5X6GC+V+9ucsGYEaYOPd1/MCgSkuLNkxu4ThgDCKC98upLjfBj4Lp86SrjjcFUSX1O6zUk+Jz0GQCjSgSSoaPx1OHDcoLbFR2+t/keHAO4rveU5iu4YctKy0znjshed7Ae0adV5ckVjMThNcDjGOiU3MEo2rG2cE5P83XYBo9xhFUhinVBdeUNCwDPRsO6QYfrC77kvboy9aWMXMHAyImUdiy3muAcB3mvakDiCsroxIkT2tFGVsRguFPd9fraxpA/FIVreXh6rrimwNqEi9b1+L7ck66g7hCAdeL4CfMOAE/eF1/qC9vgvkZ+akt1/YPTL2Eg5C0/vtSzO851ojh9acekaujuPgPgJjGuJC+dCdKxvqrOAOvc13tK8xXclI2jozwKNMD66vIEcKPDXbhw/lIzl+stMhg3KubAsHi7aZFe3wINvJU3Olp0Sps2pJto3R49O9trqseXvFdXpr6UkSuoO9Shtw7WV5zj+CN26LBdgyQ9Ud31+tLG4IqFexRWLeoGYEph1cp1ktwsyQhMbUG9uZe3L/ekA/K1Z0+GiWGoanrEl/rCNnUh0AB5ryr/WIdrrCo/vtSzO851+tqOSdXQkia1wnkrWvOUZI9vdzqbwHPJLz73pmRn51R6gxb5fsH7Bj764AsTaAUgAnDLXzppgpkO+j6BxY03fO3ascdENnt6Mx8htYEiTWoFLGm4eWtrzQUKcMHCkmFHG1g4LtTyk2Umytofq7++gVAjLsMfa5MQX6FIE0IIIQEK56QJIYSQAIUiTQghhAQoFGlCCCEkQKFIE0IIIQEKRZoQQggJUCjShBBCSIBCkSaEEEICFIo0IYQQEqBQpAkhhJAAhSJNCCGEBCgUaUIIISRAoUgTQgghAQpFmhBCCAlQKNKEEEJIgEKRJoQQQgIUijQhhBASoFCkCSGEkACFIk0IIYQEKBRpQgghJEChSBNCCCEBCkWaEEIICVAaZWRknLQ/1xvlZSJ7N4qcyLMTbCJjRFp105FCsJ0Q4DjXERwq0rKzJjSy0sHRvSLFBSIpSCeEEELqgDNiSZcWiyyfJrJpgYrchlPLoR2W8NWG1V+JzH3D/lLPONcx8zmR/VvtRJvtK0TWfWN/IYQQQuqAM+ru7jFKZNzdp5ZBk0RCwuyVSmG+yPFskZPldoILEMi8TOuvK0VqvRYdt7/4Ac6FxaGsVCRfz118wk6ogqbNRZZ+Vv223vLsgHScE+d2vnvbHudy3ZYQQkjDp8bu7tWzLOsxM0OtYTfhuOdZ+4MNBObzp0R6XSDScZCd6AJEdvYrIgfSLdHGMnaySLN2ligtfE9k61KRsAiRkkKR3uNEBlxi5WHldD2/inp0U5EL7hDZuVok+6DIhHutY0P0vnxa5PybdZt4kWmaj5gEkYwtImk9re1wHd++rSMWHbJAIJHH864TCQ6xjuHgXAfWb/nO+ttnvLVuySenzltVnuEihyWOY+UetdbB7d9piFricyzPQiPNx/gfiLToWPlYoeHWAGbEDSLt+1vn9cTz99kfCCGEBBRBqivxqVYf3kd1oTr8tqRzj4h8+KiK0kciR3efLtBVATGGaDqLY4mumGbN8972d10eF+k7QWTu65ZVfUTPkXNY5JrfiNz6mMhFPxTZtkwFUdMgkN1HirTqKnL9wyLJbazjVUVpkRZQisjd/7YENfuQyDK1ijEowPlvfETPuccSTG9ERqvgXqrbzLby505VeXaA2F7zW5FbdH20Dhp2rhG57g8it/9DpG0fPfZca7uti6z83KT5QtmMuVNksZZ91gFrPSGEkLMHaCa0ExoKLYWmVoXfljQOihMkpon0v0ikZTe1fFVgq8KxQLGfK31UjHuPEflCBRNWdotOVjoCzOaoZX3etVZgmUFzWaDph7arZfm+JVYtOlS2YIH7d3dL2vmMfcGGeSqgy0VG36KFYVvOG1Qgj+1Tcf2RjmJcgtpcPQIYBX3zqkhhgciFarku/6LyeQ1e8gxLGi7zwZdbm3m7BkwJTP+vSPP2amkPtdaVlWjZ6Hl7abl1GGClEUIIOTso1T5830Y1Tqef0tKrfmWv9IBfljTcy85BJ00RadO7eoF2Be5ouMKdBSJVohkuVCFb9KHIJ2pVYpn5jKarIJZhzjZLZJqK+IsP6gDhL1Ye/LHeqwPHh6X66T9PnT99ieVyhiB6A+I9YKLlst662E60qas8w/WOQQCseidvn/9L5LgOPDzNWxNCCAlsoJnQTmgotBSaCo3whl8ijblbAAvaH3GuilA9TmSsJeBw/boubfpYli4s0tv/bqWNvUskPMraty6IjlPrVi3Vm/5a+dwX3695i7A38kJssjWnsPZrtZhz7USlrvKMufkI3W/gZZXzhqXLMHsjQgghZx3QUGgpcLTVE36JNILEAFzcdUVEjIpkOxW62VakNsCzyB+pEOWplQoQMAXLFsK3balakjlWOoBFC6vSeZQrvoWOTPZqXvfr5uWWYLpu705qFz3PMZFda/SLHh/HmvWC5b72BQR8mTnlVXaCTVV59hVcW7u+1qNrzrwFrstMOeg1EkIIOXtxtNTRVk/4JdKOy7aurGgHWIqwWt94SOS1/xP5+iWRrudZUdiwGI+pMCH9lZ+LHNqpwh5t76h0GqwCpiL78k8tcU/rJRKXIvLBIyIv/sR6zCqqib2xB5o2Exl6lciC90Re1ePjPBgsdNHz+wIiwAdp/l0jwavLsz9gLhoDial6PTjexzp4QaBcnA5GCCGEnL04WlrVdKhfgWPOoz3uj1jVFbBiIZAQVWOFOmgOEYCFCwqLtNPqmro+Rx0fD49iYcABsXd/NIwQQsjZSXW66pclXd9gDrZxUzeBBo0s4a43gQZ1fY46Ph6EGWVDgSaEkHOHgBJpQgghhJyCIk0IIYQEKBRpQgghJEChSBNCCCEBCkWaEEIICVAo0oQQQkiAQpEmhBBCAhSKNCGEEBKgUKQJIYSQAIUiTb5Xrr18sv2JEEKIOxRpQgghJEChSBNCCCEBCkWaEEIICVDO+E9Vrl61Xh7/y9MybsIouePuG+1Ui8LCInn8r/+W9Ws3me/BwcESF99UunTpIFdee6m0bJVi0vfs3id/efgJ+cG9t0j/QX1Mmisrlq6W/z33hvzmDz+V0tIy+fMf/iHH8wvstae4+bar5bIrLpId23dX2iY8LFTiE+Jk8LD+cuU1EyUiIlyyMrPlD79+VA4ePGK28cQvf/OAdO/ZxVxDn77dzbHByZMnZfF3y+Wt1z6Qw4eP6nUF6bWkyh133SDdenQ227jnwRX3fCYkxMvvHp4isU1P/6HsBfMWy9NPvCCjLjhPfvjAnSbtmadflrlzFprPrjRvniQP//VXpoyxzdLFK+VXv31AunTrZG9hsWLZGnntpXfMtpFRkZXqyBNOfn25bsxJT/3kJfOZEELONarT1eApU6b80f5cLSumWX8HXGr99Rd02h+/P80IZ+axLBk0uJ8RQAekL5y/VDp37SBXXztRhqhIdtfOPH3rDnn37U8kJbW5EWoIxab1W4xgDlCRDgo65RDAOT75aLpERkTI+ItGS25unixZtEKuUpEfO2GkDD1vYMXSpWsnaRIbI1lZOZW2GTSkn7Rq3VK+mjFXdqkwDhjcR0JDQ825Bw7ua/YNCQ2Rk+Un5bY7rpPh5w82aR06tTPb4Rqat0jW6+ho8gThfPH5N1XwL5V7fnSbjB0/Uo4dyZSP3v9CunbrbAYE7nnwls9v536nA4Ysads+TfOYao7vUFxcIu++9bEcPHBY2rRtbfIKli1ZJY0bR8ktt19b6bhYn9oyxQyGsA3K+fChoyY9TAcqDgf2H5I1OrgaPWa4RGnZJzdLlP4DeptjJDdLkoO6/vbJN8jI0cMq5deX637/3c/kmusn2WcihJBzi+p09Yy6u4+oNbVl8zaZdMWFUl5WLttUFDyRltZSBXqAWYaPHCIP/f5Buea6ifLqi+/I3j0ZRkBGaHr6lm1y7GimvZcFzrFpwxYVmj4VQhMWEiI9enWrOKazpLZqYdYD920uvOQCIyybNm2VjL37zbH69OtZsR55hCU7UAXdSYtXi9SdosIimafCCuGdcPFoI0wtUprJLXdeZ6zJ1avX21v6ls+Yxo2NAC9fukbKysrsVItdO/eooB40eXMnKTnxtOPielzFuKta0Dk5efLN1wvslNOBoHfv0aXiGF10IBIZGSH9BvSqSEN+/bluQgghnjmjIr1183YJU0uzd98exhJcuGDZaULjiUaNGsnoscONW3bVirUmrVOX9uYvjunKtvSdUqYWbs8+3eyUmtOkSYyxTo8ezbJTak5RUZH9yQIehAd/fq/xGPgLLP2NOhDJ2HfATrFYu2qDCmRKJVH3h2bNk+SKqy6WLz77ygyG6oK6vG5CCDnXOGMiXVJSqqK8VLr26CQxTaJlsArN5k3pKoDH7C2qJiYmRlqpAO3bawkTLMOu3TubY+LYAIIPCxPWXWJigkkDJ/Uf3N6YV3aWnOxcKS219vPGoYOHjaWZmBhnp/hPuIrS2Amj5JvZC+Vvf3pSNm/cWpFfd3zNZ/sObSVB87R00Uo7Rcx2ixetkP5q0YaFhdmppyguLq50XCwFx0+f/4ZnoHXrVHnnzY/MAKWm+HPdhBBCPHPGRBpu2J079sjAQf2MZYz5W8xvrlrun9vz6NFME2CGYwwbMcgcE8e21h0zwn/e8IHGLeuQr2L014efkHvunFKxPHj/b2TP7lPWYrEK4fq1G02gE+ZS//vUS/Lcf16VgYP7SUu3uV9/GTK0v/zxkV+YufOHf/cPufX6H8qjf35KBxz77S0sfMkniI5pLH379pRVq9ZVBJph6qBYy6VXn+7muzvfLVhW6bhYXn3pXXvtKWDpXnvD5eZ4S7QsaoOv100IIcQzZ0ykN67fKpGR4RLbNMZYceXlJ6VNu1bGfe2PxRYXHyvh4Zal2L5DmsRENzbHBumbdxjhxwDAlejGUfLrP/xUnn/5nxXLk//5i7ROOyW+pZqHLz//Wt5+7QN587X3ZcG3i41L9o67bqwk+DWlfYc28qvf/UTeeO8Zefgvv5TgkGB56P8eMZHoDr7k02HQ0H5y7GiWpKfvMB4ETB30GdDTeBg8MUwHLq7HxXL75OvttZVp37GNXDxxnHww9XMTlV0bfLluQgghnjkjIn1cLcSFKnoZ+w7Kz3/yB9uS+5l8+80iE0iGgKfqgMWYkXHABEXBigZwgfcb2NsI/YkThbJMO/5uPazIYlca6T/ML2NO21kQ9BUSEmJvIUbcf/GbB+Tp5x+Vp597VPr27yWb1Cr3Zc7cH3BOzKf/9P/ulf56jm/VanfO4Us+HVJbtpBu3TvLd/OXyv6Mg2r5blchHlRRNu7ABe56XCxROijwBI4xZvz5Wr7R8tnHM0zUfW2p6roJIYR45oyINAKcDh85Jn/626/MM7HO8sqb/zZBTgh4qgo8VjV71jxjOUI8XemvIg1398b1W2TP7r1VCpWvYB76sssnyNZN23QAsM5OrRmY1/71Lx4xz4e7Aus8zPYI1ATsf/7ooSZQDs8xx8Y2Oe2RrNoAgYbbGy5vzCf7S31dNyGEnEucEZGGiCQnJZwmIo2jo06bWwUnCgorgpvWrdlkXrQx9e1P5NLLxle80MShtVrWicmJMu3zWWqFehYqTwFZWDC37Q24zHv06iqffzJD8vLy7VT/SUiM12tPlJefe9MIFoKn8vLy5NOPpssiFcABOshw3On+5rNt29YSGhoiH38wTc47f4h5FtobngLHcnPy1Jott7c4ne49O8vgYQNk5vQ5dorv+HPdhBBCPHPGRBqPXXkSkV59u8uh/YfN3KrDh+9/URHc9PhfnjKRy7/548/kksvGnWYlI9AJL0XBG7B6qqh6OoengCwsX1UhPnDPXnblReZFHYsXLrNT/QfHueveW6RD5/by2CNPy03X3COTb3nQvHDlpluulmEjBttb+p9P85z2oL46OImWfgN62qme8RQ49ttf/kWFOtfe4nQgoldefYmkpPr/SJc/100IIcQzZ/y1oOcyeJQKHoOg4EYSHR1da7f82UJV183XghJCzmWq09UzFt1NLOsS1i8C3s4VgQbn6nUTQkhtoUgTQgghAQpFmhBCCAlQKNLke4Xz0YQQ4h2KNCGEEBKgUKQJIYSQAIUiTQghhAQoFGlCCCEkQKFIE0IIIQEKRZoQQggJUCjShBBCSIBCkSaEEEICFIo0IYQQEqBQpAkhhJAAhSJNCCGEBCh+iXRQiPW3tMT6SwghhJCa4Wipo62e8Euk41Otv/s2Wn8JIYQQUjMcLXW01RN+iXT7/tbfFdNpTRNCCCE1BRoKLQWOtnrCL5HuM04kMU3k6G6RT/8psmsNxZoQQgjxFWgmtBMaCi2FpkJbvdEoIyPjpP3ZJ3KPiMx6yTo4IYQQQmoGBHrcZJEmSXaCB/wWaYfVs0S2rxDJzBApL7UTCSGEEOIVBIlhDhou7qosaIcaizQhhBBC6hc+J00IIYQEKBRpQgghJEChSBNCCCEBCkWaEEIICVAo0oQQQkiAQpEmhBBCAhSKNCGEEBKg1Pg56WNHMyU3J0+Kiork5Ek+ak0IIYRUR6NGjSQ8PFyaxMZIQmK8neodv0W6uLhEMvbul7DwMGkaFyuRkRESFESDnBBCCKmO8vJyOXGiULKzcqS4qFhSW6VIWFiovfZ0/Bbpndt3S5OmTSQhIc5OIYQQQoi/HDuWJbnZudK2fZqdcjp+mcBwccOCpkATQgghtQNaCk2FtnrDL5HGHDRc3IQQQgipPdBUaKs3/BJpBIlhDpoQQgghtQeaCm31hl8ijShuBokRQgghdQM0taonpKi4hBBCSIBCkSaEEEICFIo0IYQQEqBQpAkhhJAAhSJNCCGEBCgUaUIIISRAoUgTQgghAQpFmhBCCAlQKNKEEEJIgEKRJoQQQgIUijQhhBASoFCkCSGEkACFIk0IIYQEKOesSONXRwoKTkhZWZmdUjtKS0ulsND7z40RQggh/tIoIyPD+29kubFpwxbp2r2z/c13MvYdlFdffFtOnCg030NCgyU+Pk4GDeknAwb1kZCQEJN+Jtm5Y7e89vK7Mv7C0TJs+CA7tWZA6N97+2M5fOiY3HXPzRId09heQwghhFRNVdp6xkT6rTfel6FDB0h8QpxJy8nJlXnffCfd9HiXThovwcHBJv1MAct3z+4Mad48SaIaR9mpNSfzWJbk5R+X1q1TpVGjRnYqIYSQuqCoQOR4tkhktC5N7EQvlKg9mJ8lEpMIo9BOdKG69WeaqrT1jLm7Q4KCpV2HttK9ZxezwHq96tqJsnlTulqgR+2tbDf08QLJy8s7zX1cXn5SjucXVLiWd+3cLSXFJR7S9xhXtrPPMRXQ3bv2mvUOQZqfZs2SJCw8zE6xwP44N/Lg/kPcVeUtJiZakhLj7W8WTr6wPfLpimuesXg7J3DW5+cdrzP3PCGEnE0c2iGyb7MafVu0/6ymG4SY79uk/Xm+neBGdesDiTNmSb/31kdy3U1XSmrL5nbqKTf4VddNlC5dOxrh++zj6bJh3RaJjIqQEwWF0rtfD5l42XgJDQs1QvXis29K67atZMP6zRLcKEhuv+tGaRLb2KR37tZR1q/bJKXFKnxai1ddfamsXL5WMjIOSHFJiYSHhcnNt12jeWhRcayLJo497dyNY6KMYLZv31auuWGSRESES25Onrz37qeSsTfDWN7H8wpkwKDecvHEccYLMH/uIklP3yG33Hatyauz/V4dHASHBKu4lsvwEYNlzPjzzfbO+Xv27iorV6yVYhXxwhNF0rlLh4pzQrCXLl4lM2fMkbDQUG2Y5eZYzjUQQsi5ACzfbctFotUOyj0iktZLP1tO2QpOlqtBo7aQ2l+Sp3bf3o0ibfue2q669d8nVWlr8JQpU/5of66Wo0eOSVJyov3Nd/Jy81X8NkmPXl2lSZNoO1Xk4IFDsnXLdhk8pL80joqSGV/OlqysbLn7vltlzLjzpXef7rLg28VGQNu2S1MhKzaie1L/Tb77Jhl34ShzPCc9SMXvrh/cLOePHmaOP2P6HOnfv5fccPOVMmToADMPffRolhFlZ5+OndtJYlKCbFy/VVatXGvOPV6P26dvT7M+Lq6JWb9wwVI5diRT7rv/Dhk9Zrh07NROli5ZKS1bpWgeYmTPrn2SmZll8gwxfV8FGm7ve++/XcZNGCXtOrSRWTPmqkAHSeu0lhXnLywqktsn32C2ad+xjSyYv1QSEuKlWfMkyc7KNQOHCReNlquvu0zOGzFI03LM4KZTp/bSKIhudUJIwyfnkEh+pkjz9moFZ2mCCi5c1Q7Zun7HCrW2d4kc26fWpwoxrOQ4tWXCIqtf/31TlbaeMXc3hLWgwHL9YoFgzvhyjqSqyCUlJ0h2Tq7s2L5bBXCEcR0DzF8PGtpf0rfsqAg6A0OGDVDrOcb+dooBA3sbKzZIxat5i2RjjXbt0dmIJT536NBWRS5bR1On3N4ORSqWwcEhZl/QNC5W7vvxHdKlWyfz/UTBCWPFOsIIcf7RA5M9WrT79x+UQ4ePmKC0qCirBaSpMJ83fJCsX7v5tGtxrjclpbnmO0lysnPM9xId9pXp8A/5ArDAJ15+oUy68iIdkPDpOUJIwwczgDlqPUdoN9m4qTUfnaeCDasYFBeowbfNsrJ7jhLpNEikINtaB6pbH+icsZ4ertzXXnpXHnvk32ZBZDWE68qrLzHR3XBtHz9+Qj5471P512PPVCxzZy8wrudSp0YUX4PMQlXcQkN927ZLtw4mKvupf/1Pnv/va7Jw/hLjsnZAFPrx/OPy+F+flldefEdWLFtTMe/tDkQY54Yb3pWkZol+XUuiWtR9+/aQD6Z+Jv98/BmZ9vks2bsnw8xnE0LIuQBEtkDtliZJagGrjRTXXNO06y2ARa0UaDddWiyS0EoFTe2ZsCj93NJaB6pbH+icMZGOjIxQy/ROeeSxX5vlj4/80liEjqUJ8GjW0GEDZcLFF1QsEydNkEsmjdf969cnERMTI3fefZPc/+Bd0l2t77WrN8rTT/zPBLaBZs2Tzbq7771VWrVqYdzw/37iBTmw/5BZXx/AWh47YZT84qEfy9jxI82g4eUX3pIvv5hlXOqEENLQyTkqUlYqcninyMZvRfZuEIGdkn3Y3kA/w9no6rauFLFd3foAJ2B8phDrsNAwadYiuSICHEvHzu2lfYc29f4sNaKmMU+cnJwow0cOkR/88FZz3g3rt5j1iLCGMMK9DeG8+95bzFz0tq07zHpXIPgIXMvKzLVTLPZnHJTYuCYSER5hp1QNAsdglSNQrY9a1Jhbv+zyCyV983Y5XnDc3ooQQhomiOLOVTEODbdc3c4S2diyrkvwkI1a1xBxWNcOLs7K6tcHOAEj0k1VvDp1aS9ffv61sU4hUFmZOfLGq+/JR1O/qHfLEc9s/++Z1+TokUzzHY+FHdx/WOLiYs25P35/mrz5+gfmsSnkbd++A5KVlSOxTWPN9q40a54oLVKay6yZ35hrgHsaAXJLF6+UHj27mXlzX9i7Z788+Y/nZP3aTeYYRYVF5jhwy4fqgIYQQhoyhWqLYElKsyK6nSWlkyXQiNKOVtEOURE/sssS38I8/bzbPoBS3fpAJ2BEGsFd48aPlI6d2sqz/3lFfverv8kTf3/GWNgXXjqm3gOl8Nw2gs2e/tfz8ttf/tXkoU271jLi/CHm3HC9l6q1/bc/P2ny9vYbH5h9uvc8PWweVv+kKy40ecc1/P6hv8m7b39sjtV/oLYwH2nVOkUuGHu+fPLxl+YYf/7DP+Xo0UyZdNXFJhCOEEIaMjlqRWMeOqbyKyhM8Bjc1wgoC1Z7JaWjNfe8YZ7IjlWVI78h0FWtD3TOyHPS/gLXMwLJwsPDfLY66wq8dKSwqNDMgXtyseNxMESH4zluXwLYcLyiomKft/eEUx4hoSEUZ0II8YQqGSxlzD838mTTVbf+eyQg3jjmDxAz49I9wwINcE7MKXubA4dIIm8+R5jr8fzZ3hNOeVCgCSHEC2pxh6hV7VWAq1sfoJxl2SWEEELOHSjShBBCSIBCkSaEEEICFIo0IYQQEqBQpAkhhJAAhSJNCCGEBCgUaUIIISRAoUgTQgghAQpFmhBCCAlQKNKEEEJIgEKRJoQQQgIUijQhhBASoFCkCSGEkACFIk0IIYQEKBRpQgghJEDxS6QbNWok5eXl9jdCCCGE1AZoKrTVG36JdHh4uJw4UWh/I4QQQkhtgKZCW73hl0g3iY2R7Kwc+xshhBBCagM0FdrqDb9EOiExXoqLiuXYsSw7hRBCCCE1AVoKTYW2eqNRRkbGSfuzTxQXl0jG3v0SFh4mTeNiJTIyQoKCGH9GCCGEVAfmoOHihgUNgU5tlSJhYaH22tPxW6Qdjh3NlNycPCkqKpKTJ2t0CEIIIeScAkFimIOGi7sqC9qhxiJNCCGEkPqFfmpCCCEkQKFIE0IIIQEKRZoQQggJUCjShBBCSIBCkSaEEEICFIo0IYQQEqBQpAkhhJAApeYvM8nKkdzc41JUXMKXmRBCCCE+YF5mEhYqTZo0loS4WDvVO/6/FrSkVDL2H5aw8FCJi42RyIjwKn9mixBCCCEWMGpPFBZJVk6eFBeVSGpKsoSFhthrT8dvdzcEGiOA1OZJEhUZQYEmhBBCfASaCe2EhkJLoalV4ZdIw8UNC9oXE50QQggh3oGWQlOhrd7wS6QxBw0XNyGEEEJqDzQV2uoNv+akN6fvls4dWtfIxY2f5yoqLpXSkhIpLi2TMl0aUsAZyiQ4JFjCdAkJDZXwsJB6/wnPhl6mdQHrJbBh/QQW30d9nOug7W3Ztke6dEyzUyrjl0hv2rpLunZqY3/zjdLSUjlxokgKdDnXiIoMl0hdQkK8BwXUhHO5TOsC1ktgw/oJLOqrPsgpqtLWeh0i5eWfkGOZuefsTYHrxvWjHOqKc71M6wLWS2DD+gks6qM+iO/Ui0hjxHosS2+IAlYqQDmgPFAuNYVlWvewXgIb1k9gURf1QfynzkW6RCswMytPSktYka6gPFAuKB9/YZnWH6yXwIb1E1jUpj5IzahTkcYIK0srkEEYnkG5oHz8GYmyTOsf1ktgw/oJLGpSH6Tm1KlI5+QV8KaoBpQPyslXWKZnBtZLYMP6CSz8rQ9Sc+pMpBFUcK64lcpPlkthYZFZ8NlfUE6+BGGcS2VaF7BeAhvWT2BxpuqD1I46eQQLbg9E/zVkTuq/nKxcyc7OkYLjJ8x30Ej/RTWOlNi4phLXtIlJ85WE+CZeH2s4F8q0LmC9BDasn8DiTNcH8Y16fwQLzx42ZIqLS2Tntl2SkXFAjh8vqGjYAJ+Rtn/fftmxfZf5ARJfqarcGnqZ1gWsl8CG9RNYfB/1QWpPrUUab+9pyM8eFhYVy/ZtO82vllTHiROFskO3xc3gCyg3lJ87Db1M6wLWS2DD+gksvo/6IHVDrd3dJwqLJTc33/7mHwUnTsj2rTslKSlRmqck26kW+cfzZXv6LmndprV5Nd229J3SKq2VccXs3LFHsjOz7C1P0aZDW8nPzZOCggLp0LGtBAdbLpis7FzZpY0O6x1XTll5mTl+aGiotG3X2qS5g3mabZq/khKrscIlhDeilrsFpARpIpKckWlEeJi07dBG06sfAzVpEi2REWH2N4valKk7R44ck9Ur10jmsWzp2LGddOvVzeQPoJxQrmUuo+aEpARJbZUiwUFBZjSdvmWbFLvd2GER4dKxc4dKP6+WqfWxW+sluUWypKa2MGkH9x+WA/sPmM/uNI6JlvYd28iRg8c8btMipcVpbcLhbK4XtF3kG9ceHBRsp1pllZuXZ9LLyk6eVu4xmp+27dMq2rT7PRAeGSFttB1HRUbaKadAB71NjxcaFlpxX3iqe4dgrVdsBzxt49Sda/5dOVvrx1OZoB0mNU809wOo7p4AWJ8QH++x/VbVdxUVFDao+4X4TlXu7lqLdF7e8RqPXtF5PP+flyW2SYzcMvn6Sjf9rJlzZP7cxfLAlHvM3MnT/3xObpt8o/Ts3U3eeOVdWblstcTENjENzuGGW6+WPBXpj6d+rvvdV9FoZ06bLZ99/KVMuGSMXHbFxSbtyNGj8tRjz8qEiWNlxPlDTZo7Bw4cUnGzbiicp1VaqgQFN5I9O/dVNHA07NZtW0pZabns27O/ooE3a54kiYkJ5nNV4JV7MTGN7W8WtSlTB+RjzlffyicfTNMbPEoHOuGSryIQHh4u9/z4Tklr00r27N5nyjVEO2WsLy8rk2wd0HTr3klu+8FN5rdOn3j8v3JCyz8y6lTnHxcfK5PvvVXzHW2+41zvv/OxLJi7RLp07SB3/egOI+Dz530nX8+YZ7Y5UXDCjNCb6iApKDhYmjVLlNv1HAvnL5bPPpxRke4w9sKRMmLkMPtbZc7mekHbzczMlnvuv7NisATQ3jeu32rSC7WcXMsdec/LyZWkZklyr9ZdfHzcafcA6hbWzKSrLpURo4dViArYuH6LvPDsq9qJRsj9U34gKdqhw+X5+kvv6LmKpLRYxS0vX9tJY9MOQkKC5Mbbr5PQkJBK7cOhTdtWcuNt12pb8twpn631434/OOXSWu+VO++5WRIS4s39UdU9UVZWbtYPHzlYxk24wF57iqr6riOHjzSo+4X4TlUiHTxlypQ/2p+r5ahaY0kJTe1vFvk6+qupqyMkJFiKdES6fMlK6d2/hzSOijLpEO8ZX3wtLZony+DzBqjw5suSRculT7+eptGsXb3eWA4//cWP9EYYJaPHjjBLolqBZSo0S75bIR06tdVtk81D97NnfWvOgxuoT79e5rw7dMS8esU6GXfhaIm1rWt39u3Vxmo3YjTuGB1MQJiioiMlNztPR6NWw24c1ViKNM+5OXlmW4DIx/iEOPubd07qMdDAXalNmTps3pguU9/6WCZeeaFMvudWuWDc+TJi1FDZumW7rF+zQfoM6GUGPyjXW+64Xq676UqzTdfunWXm9NmSrIKQkBgvixcuk9HjhptjOOU85LyBlTrobC2LaZ/MkIGD+8nWzdukS7eOpkwxEHD2kaCTxqr/2a9+LBddOlYGDulvvBg7tu+slO5sj329cTbXC9ouOt8Bg/qaduhgyuHwMZOO4Cf3cke7/e7bJeZ6O3Zuf9o9MBbtWDv+Tz/8Upq3SNalmTkuOtuZ0742ooAfSghWAW6vVlsTLbMRI4eaY3fs0kFWqHA47WDkBcN1INBUcnRg4No+nLrp29+6h7xxttaP+/WO0XIdet4gc7+sXbNR+uh1e6obLM49gUhprG/dpqUpZ3eq6rsa2v1CfMeTtjpU78eoBvyCTG3o3KWjubEgKg77dZS/d9c+6T+oj1eXmjeStLEnJifIpo1bzffs7Gw5qCPJISMGSrZaMLl5VuTnzh27zXbY3hPoSF1veHR2GdrYc7QBozG31NGo07AxunYdfQI09tKy6oMvPJVfbcsUrvwl2lG0a5+mwnxehVUVpYOgK66dqPlubUbqnojTzrlxNK4p206pnu3pO8zNPGhof2mq+6/XDq2+OJvrpTagXBPVmjp2LNNOqQzqGAPaHr26yiKte+eNUMeOZkr61h0yYGAfM3hau3K9mWaqLxpa/eB+mHjVJbJ/7wHZpX3G2cb3WR+kbqi1SDsjtJqS1DxB2ndspx37poqOZfP6LebmSFMx8UaeNrK1q9bLquVrzLJh/WYzXwQXVFrbVnJg/yFjkR87Yrl5unfvYlw7BzOsdMwNpaQ2r+SycgUjZndcG3hMdLRp2Lm5ebJ/34FKDduhqKh615un8qttmRYXFpvRNsrVdd4YtGqVKtdcf7lx3Xki8+gxOZ5/XJo2PTWqy9h3sKKcsaDsHDAgWL96g7RplyaprVqYskddeBsEeKKwsFDWr91Ycfy1arlgftATZ3O91IZizXN+br6ER3i3VjCgTW3dQg4fPFxR/rt27pWTZeXSpn1r6aQD4gMHDus9cNCs8xUEEbnWP+bPvdEQ6wfTCxFREXof7LdTqr4nqsNb3+UrZ8v9QuqGWot0bUHH0rt/T7Wc95o5GYzyN23YLB27tDPBMt44pmLyxacz5JMPvzTLrOlzpEgbL+jarZMcUpHOPpYtWzenG9dfauuW0lIFChZ0nlrTRw4e0U7LCvTwyKnpotNo5LKuqrZZXv79NNyi4hLJV6ENCqniIlx46/Wp8oeH/ia/+8Uj8sTjz0r79m2ku1pkDhvXbq4oZyyrlq+211gBY9vUUuvVt7upS1hsh1Qkdu/eZ29RPQX5J2TmF19XHH/apzMlKyvHXuvGWVwv/rJq+Tp55/UPzPKfJ/5nAsuGDh9kr/UOBqO4Rgyg1qxYZwZQEJq0tJZmCmj5slP15wuLvltWqf7T07fZazzQgOunXMvToap7ojqq6rt8gffLuUWtRRrzGbUFgSghYaGyfdsuOXr4mBw5mim9+vTU9uX92G1USH79x5/Lw397yCwP/t8PzTwLaJ7azMy/7dm9V3arJdGhUxsTpNOpWwcz4jUBE+XlalW2NNt7IjQk1P50CuQHkc+Yz8vLzzcR6LGxMZLSMsVjXkNDq4929FR+tS3TiMgIM4+UlenlxnVj6LCBcvlVF5vOPCEpTq675SpxjRIed/GoinLGcuW1l9lrrLlvzOV9MvVzI/Sv/O8t7XCKZe3qdR5H5Z6IT4yTKb9+oOL4D/3+ZxUR4u6czfVSGzAP/NDvpxhPSFWcKCiU6GgEgIWaSGBMRWzZlC5/+s3j8uifn1Qr+KCkb95uLCdfuenWayvV/wgvAUqgIdZPSWmxifh29S5VdU9UR1V9ly+cLfcLqRtqLdLBVQSQ+AoClHr06mJc3uvWbDCuWIz6awpuptTWqbJRLfKc7Fy1DK0AjtSU5pKrI84N6zZJs5Rm0tTLRD0IjwiTYJfoSTTelq1TTGM+XnBc9u3OUOs/w3xu2jTGNHrXBo438LhG73rDU/nVtkxxXjxutWn9ltPmMOfNWSi//b8/m+h2h3Yd2krfAb3l4svGGVf54gXL7DVVAxfdupXrVdi1/np3ly5dO0q3Hl2kbbtWKgQ7TMBfXXM21wtITk4ykbaYK3SAxbtnZ4aJsHXt6voO6GmifrFcdOk4vZ6q3wSFul61fK15fArTOFs2p0txUbF003sLdWPVT1cdvGWbucf64GyvH3cw0Fy1bK1x57auRZ/0ffF91gepG2ot0mF1UDloFD16dpfdu/bI0kUrpbt29N7mih3KSkrM41YIdnAWZ04bj47AekbwWERkuCS3SDLp+Is5vTUr15lno6tqfMhT06ax9jcLjBbRmJ1HF7DgM0ai7gPJpnGV9/WGp/KrizIdMnygCSZ66dnXjTWVrYMTCPRnH00zUaqeHqtorgOXoSMGyaIFS82ctgMe03Et57y8fBWWcjl65Ijs3rNPLrlsQoWYYLlcrQoIASLJfQFeDTxC5HoOxA144myvFwgm5hTffeMD2bc3w0wXfPHxTFmzar3WS0+vjzV5wrkHcIzF3y2TZ554wdT5yDHDzQBqw9qN0lXvpVvuuO5U/dx2tbRISdb7bLkZHPgC5jtd6wbl6s1LcrbXD3Cud9fOPWaq4YtPZsqoccMlubnVjwBv94SD+3rXMquq7/KFs+V+IXVDrR/BwnQFIgBrS2TjCFmtVkCuNriLJk2QuLhT53EejXB9BGvdmo0yd/Z8mfPVvIqlTds0sx6grUFsYCXi0SA0VrzMYef23bJXrYgL1TLBYw9VERkVLsfw4gG7P8KjCcgfGrUDPiEQBOucmxCudvMsog8vAcBgJNStgddFmUZGRkr33l1l47pN8uXns2T2V3Nlx7Zdai2PV6tsjOYx+LRyRRnB0luxbJUczy+Qtu3bmM4fQS6u5bxav/cb0EdWr1xrRuEXThwrzuNzAAOhzRu2mECnnn27m3LAoyN7dNSOR1oiXIKfkA7rb8G8RZXOEaXtwdMjLOBsrhc8JtWmTWtZvmSVTNd6+WbWt7I/46BcfvWlct7Iocaaru4xHuB6D+AYWzelS/de3eTmO2/QeyfWBDnN+HK2jBk/0sRiOOAxHgzY1mm76N23h4n4d28HDk76iqWrKtUN6rFP/95eH8M6W+vH/XpRByXFJXLtTVfIsBGDzf3h1I23ewJ4Wu+UGe7H6vou0BDuF+I7VT2CVeuXmWBUd+So74/rnG1g7m7vngz7W/XgRk5rZz3S4AtJiU3NzeBKXZdpWVmp6bxwIyF/DYGGUC+wfkpLi6Vx48YNpl4cGkL9NCS+j/ogvlPVy0xqXaqomIb8EDuCK2CJwMKpDpRF67apPjdslJunhl3XZYrXQMJiakhC0BDqBdMt0Y2jG1S9ODSE+mlIfB/1QeqGOinZyAZ+YyDIokOn9mJexeehkWOOB891d+zcznS6vlJVuTX0Mq0LWC+BDesnsPg+6oPUnjr5PWmAH/8u8OMFFmcrCA7BM40V8zb6Dy868NcaioqKlJjoqoPjzpUyrQtYL4EN6yewOJP1QaqnXt3dDqgovJi+oYPoWbiO4QrCUpN5XpSTLw37XCnTuoD1EtiwfgKLM1kfpHbU6URCbEyUcZkQ76B8UE6+wjI9M7BeAhvWT2Dhb32QmlOnIo0H3+PiYnhzeAHlgvJBOfkKy7T+Yb0ENqyfwKIm9UFqTp2H5OFFIvGoQLqbKoHyQLmgfPyFZVp/sF4CG9ZPYFGb+iA1o85FGmCElRDXxAQVECu4AuVRm5Eny7TuYb0ENqyfwKIu6oP4T72ItAOCChLi9QY5R0P0cd24/roMrjjXy7QuYL0ENqyfwKI+6oP4jl+PYG1O3y2dO7Su0TwP3gZUVFwqpSUlUlxaZn4kvCH9BinKBC+ZxztsQ0JDJTwspN4f8G/oZVoXsF4CG9ZPYPF91Me5Dtrelm17pEvHNDulMn6J9M7d+6VZcryOrCLsFEIIIYTUlIIThXLocKa0TUuxUyrj1xCpSZPGkpXj++/QEkIIIcQ70FRoqzf8EumEuFgpLiqRY1k5dgohhBBCagK0FJoKbfWG35MNqSnJkpt7XDIOHjFmOudyCCGEEN+AZkI7oaHQUmhqVfg1J+0KRgA4QVFxCYWaEEII8QEE54WHhRoXd1UWtEONRZoQQggh9Qtj6wkhhJAAhSJNCCGEBCgUaUIIISRAoUgTQgghAQpFmhBCCAlQKNKEEEJIgEKRJoQQQgIUijQhhBASoFCkCSGEkACFIk0IIYQEKBRpQgghJEChSBNCCCEBCkWaEEIICVAo0oQQQkiAQpEmhBBCAhSKNCGEEBKgUKQJIYSQAIUiTQghhAQoFGlCCCEkQKFIE0IIIQEKRZoQQggJUBplZGSctD+Tc4CTJz1Xt7d00rBp1KiR/aky3tIJIWcWivQ5giPC1l/tgPUv/hHi0AjtwojzyQqRplgT8v1CkT4HgDBbi/kma2aJ7FgVJFn7G0l5qdmEnOMEhYjEpZyUdn3Lpfc4pKhkG83G37oR6tXa7ravEMnMELa7WoC6ik8Vad9fpI+pK9KQoUg3cByBhtGcfaRc5rwSLMf20Doi3klofVIuuKNMmiYFQatrLdS5R0RmvaSDgGSRriNEktuKBKvQkJpRpgOcwztFNs0XyTosMm6ySJMkeyVpcFCkGzCuAl1+slw+eTxIju1lrCCpnoRW5XL5L8olqFHthfrDR0U6DBDpPdZOIHXGmq9Fti0XuepXdgJpcLDHbuBAoyHQa74SCjTxGbQVtBm0HbShmgIXNyxoCnT9gHJF+aKcScOEvXYDpcKKVjO6vPyk7FzNqib+gTaDtoM2dKo9+QfmoOHiJvUHyhflTBom7LkbNI1Mx1peXi5ZB1jVxD/QZtB2LHGumasbQWKYgyb1B8oX5UwaJuy5GzLG+hHT0TKalvgL2owl0vrF/M9/cAwGidUvKF/e3w0XinQDRiXaWEGWy5IQ/0HbMa5u/UcIOfNQpBs4xlVZQyuIELQdy91NCPk+oEg3UJyOteZPtxJi4bQhijUhZx6KNCGEEBKgUKQJIYSQAIUiTQhpWJwUObQDj5DZ3wk5i+FrQRsozvOtZaVlUlxcIm/9orG9pm5I6SQy+HKR+FYiIXjERltRQZ5I+lKRxR9a29Q3rXuIhEWIHNgmcjzbTvSTjoNFRlwvEqrHcQfH/OZVkYwtdkItwPFbdrM+79soUlJofQ50bnr8uISFhUpwSLB5LWhQkH/j+ufvE7nnWftLLSg+IfL5UyJHd1vf8YbScG3Sscki/S7SttAdida6YxkiXzxprZ80RSQyxkoPFPIyRT59XCSpjciEe+3EWlJX5UwCD1rSxG9aaYc4+g6RZO1kigtE9mwQObJHBTNKpNcFuu42e8N6ZsiVIuffpAOGznZCLYBoonN3XbIO6vUV2RvUkuQ0kfOusRZ8JjUjIlqkbR9d+oo0by+Sc1hkxjMi896yfngCNG0m0meCiveFKtC6PSFnM8FTpkz5o/2ZNCCcSNyT5WpNl5XLullh5ntdcP6NIompahGqhfnpP0S2fCeyaYFI0XGRFh2sX+TBLx9B+NLU2o2O19FgsEiPUSKN4069HQmWRKoKbEIK8itSmG+luwJrGW9Uct0GVmlaLx0sdLUsaYgpDLy8Y9Y+zvqk1npuPR86cm8ktLTymJ8l8v6fRTZ+e2pJXyJS4GKhI6/N9friW+i16uDE3RqO03TkKaFV5fM2bmrtB+8DLMCcQ8bxIOGR1vaw9NzzjmMd1zzFalk620To0nO0HkOvFeULqstTbek1rkSCg4ONBV2TH9lYMU1kwKX2l1oAAd6q9YGB4IR7RDoNtn60A20qS8tzxwqRmARtl1r2yCE+xzUXCQm39gelxVqmOZZVrpdk2qQrJ8u1vnU9yvFkme7r4ZZB+zuhS4kO3vASEcex4OyLl4qgfvArVU4dA5wTniYct1yXLQutdoFrqAvqqpxJ4EF3dwOlvtzdEJCRN1sdjSdX8MhbVKRUwDercKMjgyu5SIUjRDtEiEzGZpGZz4uM0u3a9D7VUZZq55a+WORbtYgArPVhanU2TdYvti6go1s7R+Rgulrrt1udnAOO+8VTlvt60OUqks46bd3ZKpbfvS+yVy1+dxx3N0R66p/sRDcgmNimRUf94paXFV9Y32HRdxxiu/6BnvfwLpG5b6hw6GDB3aWO8sEAoPd4vZ5tVt4BRBfXBlC+EHZsAxGH8EM4sO/ar6vPU10QaO5uMPEnKta2+IF8LcfP/mkNaC76kSXEldzJWherZmq5TFexV6EGwVqOKL/OQ63vmL/+Sttltgo+wFgE0xNj7rDc5hiAzn7Fmqqwx79mwDnuLpFm7U65sJGGvOI4sOYHTxJZpvWxaobup0KO43YYpO11kzX4pLubVId/dxw552mq1gnEJl87JU9ztfNUlD561LJEHRo3sayd+e9YnRV+qB5in3vU6hix5KsIQTDRsYGeF6hFniiyc43Imw+JLP7YSu+sQohOcqGKLizVUh0ILLc7wVi4OfXYcInCsofoblKLJVqtqoETK4ukP/TWY8JaPbhDheIJkQXv6gBEO/ueasXBEuqkHX27vlZHPu9N67wHdCABkeg+UmS/ltOST1SUc63lu6laPvPtg/sILEMIxFw9PvatLk/nElE6+INAoz0Vah24c3Sf9ZOOrVR0J6vQ366CDo/Pum/UKlbrFqI65zXr78UPiNyp5YmBHto3LFSAbfdrnQ65SuQH/xW56tdW+hJtl7DQHXAuDDCvf1ikr7ZltN/VX1lpN/1N5IZH9Jx2OyDEFyjSxC/Cwi1rwLVjqg5YOos/soQbHV+rHtb+K7UD3LnaWraqFQ2L0Jlf/vLfIm//Vq1J7TwRwIV90bGFR6nox+o+Ky1rHoKNzhnHhWXeRC1vWNWwyGEdLfpQrRr9iwCjNj2tY3sC1jIsEdcFXgEILaxZXAOOtX+ryIZ5Iru184U1h/xuXSTylub1Yx2cbNZBAc57cLuVP+QH+c8+aFlSWDL3ixxRK9sfcEwICdykoLo8nUvAGwMPA6xkZ17aFXh0kB6lg0W4qNGGLvmxyNUqtJhGwCAqU8UVA0RMLWAw12uMZZX3xE9sahuDK3myijdiLuDOTmxpTZXk6uCysMA6D8AUyyC1ntHeUBfpy/SvHg9BlvDuxMTrgFHXw21PiC9QpIlflKvIAH+mJmHtYo4OwIKJ1M4SHRdcxLBasCBCFy5xx00NVzY6xit/JXLHv0Ru+7sVEGTO66XVwpqCuxkuY+e4t6j1AgEODrW8AN6AixRznq4Losab6jGdgcGltpWFpZNa9MgLrH2AAQJco7c+bllrfS+05yz9KKeqgJXuzDf7mqdzBhVR0y61XUBA3UGAI6K/MdB76ac6mHrMGtQ45XlkryX0EF4HfG/ZxRJVDB4xuNquA8PpOnh7U8X95Z+J7Fmn6+yBlwNE35nLxvGPZ1qeHExVODTRY6LuCPEFijTxC1h0EN0YFQpPP0EI4YUrsFc1P/JfrB3Y7vWWOxDLjlUqjEtFdulnWDKYq+syzBKdvRstl7YzX1gdsIqc42LBb+3CokEEujcQpY45YNcFFrIDgoVcj+nkd+8mywLDdWPuOUut5C26H1zSnqy6uqSqPJ1L5OsAC+2yiYphhAcLFYMlzB1f/VvLEoZlvXCqyKc6+IO7u1p0EIBphjmvqCZrncKNPfFBy4XtC0bE9RgO+L2b+m4bpOFAkSZ+sUOtiUztEGHxdj/fTrTBozGwKDF/ekI7Tk/AOsWcHDpOWNeOIMKygcsaf/GIUpRaGohgnv6MyNcvqgit1sZajVWao9sjAA1gjtY5No67TS1jDAD8JVuPiWjfYL1Tdq09dUw8D75XBxmwzuDaRDzVxgUinz95an64Om9DrlpZiPZFYJIzXw6XrKeoYld8ydO5AsRu9QwVasQ0DPJcdphawSN1KFu4oq/9vRXzgJgGDPzwKBemTdA2HbDPcns6BmWNKQp4aOACR5wBXN2uFrQnUKeIk0DQH+rMAQM5RIIT4gsUaeI3CNI6rkKLx2Cu+4PIBXdq53W/9Xx0hArObhUOWK7eMG5CbXm9xon0v0Skm4r9iBtERqo1Cjcxnk3GfC7c4l2GinQ+z1of4+bGLS3Rw6jYY34WwVsQYTzeBIt2zORT+w2/1opI92T5VwfmjiHymEMcdJk1V4lo6/OR31utDrtM8wE3a/N21jkRpIYAN9dHfJxrgpsfc/IY0KCzPnFcJD5FZPw9IqP0eAP1HK6Ry57wJU8NFTwChcEIItwRiPiOCi4GJe37W23AE/DEfPSYWs/vWcJ8dK81j4/4CrinMQWDtrFmthVwiG2++0Db+XRrW0yVhOqC+oKQ5x0VWfqZHiPdPkEVdB1u1fs3aoVjXyyw4pFGiC/wOekGSn0+Jw0LF+5FzPXi+VxYFbAmYX0gcGrRR9oJqYXjPIMM1zYsZAd0kIjAbtbGchmm9bSsSUQvz1crFJ0gBKiZdpypXayAL3RqcLPDUtqj1iKetYYwooOFJZSg+cDA4NB267wpmg6rHoE8COxZ/qXup4MHd7zl0RXkF96BZnoebNuyq+UJgFgguheWEqx/5NecU/8e22dZboiCx/w2HrfCAMY8L91RzLPjiBzGdSKPpixVrGHxQRTALrXicF5cn3Mch+ryVFcE2nPSCAJE/WMgCAHFY31DrrAGRs6gCFHars8hx6k1C08HIv3XQYjnW23nfB24YWCF/dDOMPjZMFdk/TeW5dxFB1ywvEPseAZMJ5j1usBKRv0iVgDbAU/PPsfEWYNLTLlgMLFN/+LZbrRJDNj4nDSpDj4n3UCp79eCOqBTglBibg/Wnb9U9WpP59gQUHTM3oBAYdDguj9ED4FAiAivSb48gY65qld7wh2KjhuP4SA/nsAxIOaHdlbeH0IMsXcvg+qoLk+1JVCek64L4J5Ge8BgBoNET0Dg4fXAm8qwnSu+7O8NZ18E/FU3nVET+Jx0w4Ui3UA5UyJNGjYNSaQbMiznhot/dxwhhBBCzhgUaUIIISRAoUgTQgghAQpFmhBCCAlQKNKEEEJIgEKRJoQQQgIUivQ5At7MRYg/1EWbwTH4nur6BeXL+7vhQpFuoDhvhnIego9txp6S+IfTZpw25O/bxkB86qlfQCP1A8oX5UwaJhTpBo7pWHVp1bPETiHEN0yb0bZTE3F2wDu18RpOUn+gfFHOpGFCkW7AaPdqOtigoEbSbVSpNE2hNU18A20FbQZtB20I/2pCn3EiWYdF1nxtJ5A6BeWK8kU5k4YJRbohY6wgreSgIF1Eht5QQKEm1YI2graCNmP9sIYmmv/VjHGTRbYtF5nzssiBdM5R1xaUH8oR5YlyRfmShgvf3d1AwXu7nQW/glVSUiKlpWXm7+ZvwyVjfbjkHg6W8rKad76k4RAUfFKaJJdJao8i6XJ+kYSGhkpISLD5Gxx86hewauP6Xj3L+jUo/IIZfiWN1AwEiWEOGi5uWtANH4p0AwYCXV4OoS43P7QBkS4tK1PR1kU/Ix2Vj+3IuYvlzsbfIPNDGvhpyhAs+Gx+WAOemNoJNCGkJoj8P1lPn73m/gQYAAAAAElFTkSuQmCC;" vertex="1" parent="WIyWlLk6GJQsqaUBKTNV-1">
          <mxGeometry x="-109.58999999999999" y="380" width="241.48" height="160" as="geometry" />
        </mxCell>
        <mxCell id="sDRr9QzIVoGOXBDVQPze-13" value="" style="edgeStyle=orthogonalEdgeStyle;rounded=0;orthogonalLoop=1;jettySize=auto;html=1;" edge="1" parent="WIyWlLk6GJQsqaUBKTNV-1" source="sDRr9QzIVoGOXBDVQPze-10" target="sDRr9QzIVoGOXBDVQPze-12">
          <mxGeometry relative="1" as="geometry" />
        </mxCell>
        <mxCell id="sDRr9QzIVoGOXBDVQPze-10" value="Enter Feature name &amp;amp;&lt;br&gt;Add permissions" style="whiteSpace=wrap;html=1;rounded=1;glass=0;strokeWidth=1;shadow=0;" vertex="1" parent="WIyWlLk6GJQsqaUBKTNV-1">
          <mxGeometry x="160" y="312.36" width="120" height="60" as="geometry" />
        </mxCell>
        <mxCell id="sDRr9QzIVoGOXBDVQPze-15" value="" style="edgeStyle=orthogonalEdgeStyle;rounded=0;orthogonalLoop=1;jettySize=auto;html=1;" edge="1" parent="WIyWlLk6GJQsqaUBKTNV-1" source="sDRr9QzIVoGOXBDVQPze-12" target="sDRr9QzIVoGOXBDVQPze-14">
          <mxGeometry relative="1" as="geometry" />
        </mxCell>
        <mxCell id="sDRr9QzIVoGOXBDVQPze-12" value="click on create Feature Button" style="whiteSpace=wrap;html=1;rounded=1;glass=0;strokeWidth=1;shadow=0;" vertex="1" parent="WIyWlLk6GJQsqaUBKTNV-1">
          <mxGeometry x="160" y="400" width="120" height="60" as="geometry" />
        </mxCell>
        <mxCell id="sDRr9QzIVoGOXBDVQPze-17" value="" style="edgeStyle=orthogonalEdgeStyle;rounded=0;orthogonalLoop=1;jettySize=auto;html=1;" edge="1" parent="WIyWlLk6GJQsqaUBKTNV-1" source="sDRr9QzIVoGOXBDVQPze-14" target="sDRr9QzIVoGOXBDVQPze-16">
          <mxGeometry relative="1" as="geometry" />
        </mxCell>
        <mxCell id="sDRr9QzIVoGOXBDVQPze-18" value="no" style="edgeLabel;html=1;align=center;verticalAlign=middle;resizable=0;points=[];" vertex="1" connectable="0" parent="sDRr9QzIVoGOXBDVQPze-17">
          <mxGeometry x="-0.2" y="2" relative="1" as="geometry">
            <mxPoint as="offset" />
          </mxGeometry>
        </mxCell>
        <mxCell id="sDRr9QzIVoGOXBDVQPze-20" value="" style="edgeStyle=orthogonalEdgeStyle;rounded=0;orthogonalLoop=1;jettySize=auto;html=1;" edge="1" parent="WIyWlLk6GJQsqaUBKTNV-1" source="sDRr9QzIVoGOXBDVQPze-14" target="sDRr9QzIVoGOXBDVQPze-19">
          <mxGeometry relative="1" as="geometry" />
        </mxCell>
        <mxCell id="sDRr9QzIVoGOXBDVQPze-21" value="yes" style="edgeLabel;html=1;align=center;verticalAlign=middle;resizable=0;points=[];" vertex="1" connectable="0" parent="sDRr9QzIVoGOXBDVQPze-20">
          <mxGeometry x="-0.35" y="2" relative="1" as="geometry">
            <mxPoint as="offset" />
          </mxGeometry>
        </mxCell>
        <mxCell id="sDRr9QzIVoGOXBDVQPze-14" value="is&lt;br&gt;Feature name&lt;div&gt;entered?&lt;/div&gt;" style="rhombus;whiteSpace=wrap;html=1;rounded=1;glass=0;strokeWidth=1;shadow=0;" vertex="1" parent="WIyWlLk6GJQsqaUBKTNV-1">
          <mxGeometry x="170" y="480" width="90" height="80" as="geometry" />
        </mxCell>
        <mxCell id="sDRr9QzIVoGOXBDVQPze-16" value="Display error message&lt;div&gt;&quot;Feature name is required&quot;&lt;/div&gt;" style="whiteSpace=wrap;html=1;rounded=1;glass=0;strokeWidth=1;shadow=0;" vertex="1" parent="WIyWlLk6GJQsqaUBKTNV-1">
          <mxGeometry x="320" y="490" width="150" height="60" as="geometry" />
        </mxCell>
        <mxCell id="sDRr9QzIVoGOXBDVQPze-23" value="" style="edgeStyle=orthogonalEdgeStyle;rounded=0;orthogonalLoop=1;jettySize=auto;html=1;" edge="1" parent="WIyWlLk6GJQsqaUBKTNV-1" source="sDRr9QzIVoGOXBDVQPze-19" target="sDRr9QzIVoGOXBDVQPze-22">
          <mxGeometry relative="1" as="geometry" />
        </mxCell>
        <mxCell id="sDRr9QzIVoGOXBDVQPze-24" value="no" style="edgeLabel;html=1;align=center;verticalAlign=middle;resizable=0;points=[];" vertex="1" connectable="0" parent="sDRr9QzIVoGOXBDVQPze-23">
          <mxGeometry x="-0.0824" relative="1" as="geometry">
            <mxPoint x="1" as="offset" />
          </mxGeometry>
        </mxCell>
        <mxCell id="sDRr9QzIVoGOXBDVQPze-26" value="" style="edgeStyle=orthogonalEdgeStyle;rounded=0;orthogonalLoop=1;jettySize=auto;html=1;" edge="1" parent="WIyWlLk6GJQsqaUBKTNV-1" source="sDRr9QzIVoGOXBDVQPze-19" target="sDRr9QzIVoGOXBDVQPze-25">
          <mxGeometry relative="1" as="geometry" />
        </mxCell>
        <mxCell id="sDRr9QzIVoGOXBDVQPze-27" value="yes" style="edgeLabel;html=1;align=center;verticalAlign=middle;resizable=0;points=[];" vertex="1" connectable="0" parent="sDRr9QzIVoGOXBDVQPze-26">
          <mxGeometry x="-0.76" relative="1" as="geometry">
            <mxPoint as="offset" />
          </mxGeometry>
        </mxCell>
        <mxCell id="sDRr9QzIVoGOXBDVQPze-19" value="is&lt;div&gt;permissions&lt;/div&gt;&lt;div&gt;non-empty&lt;/div&gt;" style="rhombus;whiteSpace=wrap;html=1;rounded=1;glass=0;strokeWidth=1;shadow=0;" vertex="1" parent="WIyWlLk6GJQsqaUBKTNV-1">
          <mxGeometry x="167.5" y="600" width="105" height="80" as="geometry" />
        </mxCell>
        <mxCell id="sDRr9QzIVoGOXBDVQPze-22" value="Display error message&lt;div&gt;&quot;Please add atleast one permission&quot;&lt;/div&gt;" style="whiteSpace=wrap;html=1;rounded=1;glass=0;strokeWidth=1;shadow=0;" vertex="1" parent="WIyWlLk6GJQsqaUBKTNV-1">
          <mxGeometry x="315" y="610" width="165" height="60" as="geometry" />
        </mxCell>
        <mxCell id="sDRr9QzIVoGOXBDVQPze-25" value="Display success message&lt;div&gt;&quot;Feature created successfully&quot;&lt;/div&gt;" style="whiteSpace=wrap;html=1;rounded=1;glass=0;strokeWidth=1;shadow=0;" vertex="1" parent="WIyWlLk6GJQsqaUBKTNV-1">
          <mxGeometry x="160" y="710" width="120" height="60" as="geometry" />
        </mxCell>
        <mxCell id="sDRr9QzIVoGOXBDVQPze-28" value="&lt;h2&gt;Edit Feature&lt;/h2&gt;" style="strokeWidth=2;html=1;shape=mxgraph.flowchart.terminator;whiteSpace=wrap;" vertex="1" parent="WIyWlLk6GJQsqaUBKTNV-1">
          <mxGeometry x="753" y="-30" width="150" height="60" as="geometry" />
        </mxCell>
        <mxCell id="sDRr9QzIVoGOXBDVQPze-29" value="2" style="ellipse;whiteSpace=wrap;html=1;aspect=fixed;" vertex="1" parent="WIyWlLk6GJQsqaUBKTNV-1">
          <mxGeometry x="693" y="-20" width="40" height="40" as="geometry" />
        </mxCell>
        <mxCell id="sDRr9QzIVoGOXBDVQPze-34" value="" style="edgeStyle=orthogonalEdgeStyle;rounded=0;orthogonalLoop=1;jettySize=auto;html=1;" edge="1" parent="WIyWlLk6GJQsqaUBKTNV-1" source="sDRr9QzIVoGOXBDVQPze-30" target="sDRr9QzIVoGOXBDVQPze-33">
          <mxGeometry relative="1" as="geometry" />
        </mxCell>
        <mxCell id="sDRr9QzIVoGOXBDVQPze-30" value="click on Edit icon button of one feature in table" style="whiteSpace=wrap;html=1;rounded=1;glass=0;strokeWidth=1;shadow=0;" vertex="1" parent="WIyWlLk6GJQsqaUBKTNV-1">
          <mxGeometry x="753" y="70" width="120" height="60" as="geometry" />
        </mxCell>
        <mxCell id="sDRr9QzIVoGOXBDVQPze-31" value="" style="shape=image;verticalLabelPosition=bottom;labelBackgroundColor=default;verticalAlign=top;aspect=fixed;imageAspect=0;image=data:image/png,iVBORw0KGgoAAAANSUhEUgAAAFIAAACdCAYAAAAnki/6AAAAAXNSR0IArs4c6QAAAARnQU1BAACxjwv8YQUAAAAJcEhZcwAADsMAAA7DAcdvqGQAAAhoSURBVHhe7d0PUJP3HcfxD9NQktSC1MVAEFZwIxSZgEIndNWupZveinqlnehqB6Lojmo9nJSzW09dz7or1yq1FoS2ylnWjrtVr9NtdAcoYou2cPPP6AlIkCBGmMQ7CBJy7veEnxgjuKrfQty+rzsMz+95eHzy5vc8eYh34tXUbLoKdte+Ix/ZXfpWZmRv60mcbrPDzxiDqf5y0JXDBtM/v8Cx2lZ0TwxGQuKjeNgwXq60wlTTjItyyd13xT5DxD6tTXU40xOA6T/UQyXXAQOwnPoKx79sQDsCEJ0Yj+lhvi7r5b7VAXg4Rg+NHFUMu7/+TpyurEbN2cvQBkQh4bEohPhdO84bfQshrSj/3XrsOQNonliLggyjHJd6TqIoOx9VVjX8HtTCe6AHln/b4PfEi9iaOU08uQaUZpXg+ODG6LbY0K99ADqtt3NkauorWJWoRv2OTOSZUpD3hyTolBWODhzYuAmlDeLv1U3E/fJrYUzB5leTEDhO2egkdj6Xjxo8gNm5W5ARcz3KTfszl2Pj+jI0eusRGa3HlRMn0Nijxex1m5AxQ+38GlfD570bHbU41DAF8xc+iH37j6A+zYho55NQWFH1hoioehzZhYsQPWFwtLe2GDlivChqB1YnGJH69mtIda4ZfOLtC3OwOXmSc2QkjbvzUHru+0h940XMCx58WvbWg9iUU4Ytu8OQnx7qHFNotHZUvVuGOe8swtShY7tR/aciov9c/P6tBQhxbmPD8W252PZRNZJnyNguyK+RpkOVaNFNQ9zCGYhziKhfDMg1wtkK7D+lxlMrr0dUaOJTsOwXidD0dsiR29RXhwPll8VsTR+KqFAFz8W6tFB0l1eg3iEHBV1yCp5CBbbtbpYjw1AOe6IW1+eeGjPXvIWSazPWDXHINhw73Ald4kyE+IRjeiRwrOYr2OVae/t5WBCFCLezHfBF9DNLkfFkkFy+TWYTTA49YiJ95cB1vmHh0DnOo931ojvOiGeWxaP/r8Uoa5JjbiITHoffmTLkvvQmivbX4nSrbeh5DIc2ZNNxHL0wCbPilSC+SHgyGqg9gpruwdWXurqcj+NHOJ3uWHeX+Aapht+vViuuuzb0isulK038YrwQ34l9BQfR7jJbr1HFLEJ+4W+x9Mc+MO//AFvWvYT0lW+jyiw3cEMasrGqUjyhSyh/cwOyszbg5ZKvxWgDKmutzvU6Q4D48zKsMiwZQzC+h050DbdfcytaxGmp0crlIWokpD+PyHOfYOfBTjnmZkIQZj+3Cq8WvYP3Ctdi/sQTKHr9E5jkald0IR0NOHrYBk1YFOKiwhGhfMTEItogAlfXiZcZITIWceMa8FmF27VQfG1JWiayS9vkwG3SR2D6ZBuq/1aHXjk0yIaailpg8jREDndh838U6UumoGXvn3DohhnbhqqCPSj7cnACKFR+RqQsjAcudImpcjO6kA31qO6ZhKSMVcjIFNc7+bH6WXF6N5Sj/KzYxicGKaniwEvzkPfxSbR3W2EV95ylG7fj731GJP/0Dq+RCMK8X8XD+8i72FhQDZNF7NeixHgdO2vFrU76zxEit3Snm5uBZ6fUi3taOeCkh9Z2BPsKS3DgVKc4g5TjrMb2YrGRMQwPya1ckYWsr6xAry4OcWFyQFLF/kjMwk4cPTY42wKTX8bWjFC078tHzor1yFqXj0r7Y1izYy1mD3fz/g1pZizD1twkeH9egleyxH6zNqOozg/zc8V9n8v94k3G6ZG8ZoG4NLgaj5nLc5AaahLf5A3Ich5nCU75JyH7N3PE1f9mY/qztr3HCrvKF5rBe206feLFRbku+sjlu9Fvg7W3HyrNrY+T37QgQnv783+MQxLhkEQ4JBEOSYRDEuGQRDgkEQ5JhEMS4ZBEOCQRDkmEQxLhkEQ4JBEOSYRDEuGQRDgkEQ5JxMtsNvO/IhLgGUmEQxLhkEQ4JBEOSYRDEuGQRDgkEQ5JhEMS4ZBEOCQRDkmEQxLhkEQ4JBEOSYRDEuGQRDgkEQ5JhEMS4ZBEOCQRDkmEQxLhkEQ4JBEOSYRDEuGQRDgkEQ5JhEMS4ZBEOCQRDkmEQxLhkEQ4JBEOSYRDEuGQRDgkEQ5JhEMS4ZBEOCQRDkmEQxLhkEQ4JBEOSYRDEuGQRDgkEQ5JhEMS4ZBEOCQRDkmEQxLhkEQ4JBEOSYRDEhn1/xr2QocFve6/o/kWAgP1uM/nPjgcDvzxwz8jNjYKEZHhcq3nGNWQFstFbM/bJZf+u1mJMzHv6SRnxJL3P0ZTYwuCQwxY8esX5BaeY1RDnm02obhgLwxBAQiPmCpHhzdhwv2IeyQGAwMD2PP+R2huNGFKsAHpyxdD5a2SW3mOMQn5yKxYPL3gZ3J0ZPZ+Oz4oLoWppQ2BBj2Wr3zeIyMqxuTFxsvLS342sv4r/Xhv14fOiIYgPdJXLHFGVGaoJxqTkFev3vokuNJ3BcWFe3Gu1eyciWnLl8BHvOAc+PQz55gn8rgZabP1OSOa284PzUQlYnXV56g5fMOvZfcoHjUjlYi7dpag3dxxw0xUXLrU7Xz0VB41Iw/+5R+wXLiIAMNkEXHxUMR7wZiEHIm/vx+MkT9AWsZiqNUUv/d+9HjUqT3nJ4n45dIUaDRqOXLv8KgZeS/jkEQ4JBEOScRj37Rw9/W/Gp036csyl+Ch0BA56jlG+W20TmzPK5RLd2Z19grodJPkkucY1ZCKjvMW8RPMN39j15VyWzRZr5NLnmXUQ/6v4hcbIhySCIckwiGJcEgiHJIIhyTCIYlwSCIckgiHJMIhiXBIIhySCIckwiGJcEgiHJIIhyTCIYlwSCIckgiHJMIhiXBIIhySCIckwiGJcEgiHJIIhyTCIYlwSCIckgiHJMIhSQD/AbpOlty65YwAAAAAAElFTkSuQmCC;" vertex="1" parent="WIyWlLk6GJQsqaUBKTNV-1">
          <mxGeometry x="653" y="50" width="67.9" height="130" as="geometry" />
        </mxCell>
        <mxCell id="sDRr9QzIVoGOXBDVQPze-32" value="" style="shape=image;verticalLabelPosition=bottom;labelBackgroundColor=default;verticalAlign=top;aspect=fixed;imageAspect=0;image=data:image/png,iVBORw0KGgoAAAANSUhEUgAAAjYAAAJkCAYAAAAC8GvJAAAAAXNSR0IArs4c6QAAAARnQU1BAACxjwv8YQUAAAAJcEhZcwAADsMAAA7DAcdvqGQAAIkBSURBVHhe7d0FYNzm3Qbwv5k5dhI7DjOngabMTCuvzDheB187areuW9u1XdutXZmZmVOmNMxMjh00M3//55XknC939tk+O2fl+aWq73Q60en0Pnr1SheWn5/fLEREREQuEG7/JSIiIur1GGyIiIjINRhsiIiIyDUYbIiIiMg1GGyIiIjINRhsiIiIyDUYbIiIiMg1GGyIiIjINRhsiIiIyDUYbIiIiMg1GGyIiIjINRhsiIiIKKgaGxulvq7efuYfhsGwwcRgQ0REREFTU1Mrjz38nDz60LNSq4/9wWsYBsPW1dbZfbuOwYaIiIiCCkElb1O+BpdnTNDxhn6PPPiMGQbDNjU32690HYMNERERBU1sbIxcfPk50rd/puRv3ioP3veEVFVV26+KVFZUmX4F+VvNMJdeeZ55T7CE5efnBy8mERERESmEmUcefFq2bdkhGX3S5fKrzzP9H7zvSSkuKjWh5rIrz5f4+DjTP1gYbIiIiKhbeIab9PRUaZJmKenGUAMMNkRERNRtEG4euv9J2bG90DzPzMqQK665sFtCDbCNDREREbkGgw0RERF1C+dUFGpr0tJTJDk1yTxGP88GxcHEYENERERB5914+MprL5RrfnqxCTjo113hhsGGiIiIgsoz1GT17SNX/eQiSUpKMt3VP7nE9HPCja/73HQFgw0REREFjXXzPSvU4OqnK6+9qFVD4YTEeNMPr2GYRx/0fRO/zmKwISIioqAJDwuTuLg4yR2YI1defaHPm++hH17LGdBPomOizXuChZd7ExERUVDhhy2bGpskKjrK7uMbfk4hIjJCIiIi7D5dxxobIiIiCioElfZCDaC2JpihBhhsiIiIyDUYbIiIiMg1GGyIiIjINRhsiIiIyDUYbIiIiMg1GGyIiIjINRhsiIiIyDUYbIiIiMg1GGyIiIjINRhsiIiIyDUYbIiIiMg1GGyIiIjINRhsiIiIyDUYbIiIiMg1GGyIiIjINRhsiIiIyDUYbIiIiMg1GGyIiIjINRhsiIiIyDUYbIiIiMg1GGyIiIjINRhsiIiIyDUYbIiIiMg1GGyIiIjINRhsiIiIyDUYbIiIiMg1GGyIiIjINRhsiIiIyDUYbIiIiMg1GGyIeqHGxiYpLy83f4mIaJew/Pz8ZvsxEXXC6pXrpLCwyH7WtpGjh0t6eqr9rH3OuGNjY2Ts+NESHR0lNTW1cve/HpC5cxbK5Cnj5de/v9a83hV1dfWybMkKM+72JCUnyugxIyQiIsLuQ0QUOhhsiLrovnselc9mfW0/a9vv//BzmTp9kv2sfc64+/XLlJtu+T9J01C0pWCb3PjHW6W4qFSSkxLlT3+9TgYNGWiGr69vkIryCgkPD5eExHiJjIw0/dtTXFQif7nhn7J16w67j3/jJ46R393wsy6Hqc5A8KquqjahKiExQf+y0pmIWuNegShIUNj2ycyQfn0z/XbR0dH20J2X1bePnHDSUWZ8RxxziOTkZtuviCxasFSuuvQ6+eVP/yCbNubbfTsmLi52t/n27FJTkiXMHranffjeLLN8f/z936WstMzuS0S0C2tsiLrIV61KsHR03HN/WCi3/v0eU1vzp5t+I0OHDbJfaZtnjc2hhx8g1/78UvuV0PLma+/J00+83C3rmojcgTU2RCEAjYDLSstNwECj4OZm/8cbeA3DeA6LU1B4XlFRaQ8jUlYW2PiCxXMZ8DfQhs2e7ystKZOGhgb7lV1wCgqvV1fVmOdNTc2mxgb9qiqrTD9f68Wbs568p+OrvzNNf+NyXkcXSNskIuoZrLEh6qKu1NigwPzumznyxCPPS5EWkI4xY0fKL667Up5/5rXdxo1C9LZb7pUli5a3tHdZuniFqanxJZA2MSicO1tjg4bHH7zzibzy8jstIQPiE+Ll9DNOkGNOOMI0evZWVVUtL+jyzfroC6nVcThwSu+gQ2bKuRecLqlpKaafU1PjizO/vtaL9zL7q9Hy7H/9n34pP3w/X95+40MNXY27jWtzXoE8+N8nZPXqdS3hDW19RowYKlf+5CIZ4HFqkIh6HmtsiPYQhJq3Xn9f7rnzwVahBpYvWyX33fuolFdU2H1CU6UGmTtvvU+eeuIlE2piNMBk9Ek34QTP0f++ex4xw3nasb1Qg9St8p4GIoQavK9v3z6SlJRowgTC3K0aUlCT09O++uI7DTUfmPnw9v238+QPv/u7rFixxoSa1NRke56bTL8/Xf8PmTdnoT00Ee0JDDZEe8jGDXkabFCANplGuX/+62/khdceNh0eb9+yQ+bODqyQxJVWL77+iLnqClDz8M87/mz6YVzdcQUTgtlH738m8+YuMsHkvAvPkEeevlfuf/h2eeK5/8qZZ59sajK+/3aufPrxV/a7rPe9+9ZHZvk933fvA7fKg4/fZWpq8L61q9fL7O/mmvecfOpxZlnOv+gM8xw1WA88eofpF8z2QJUVVWaZps+YInf95+9mOX7126skJiZatm/fKc8+9bJUV9fIsOGD5c57/2bm95Gn7pbb775J+mf3Ne9/9qlXpaiw2B4jEfU0BhuiIMFpHFyxc9aPLvPZ4ZSVJxT2paXlpnC//JoLzSmPsLAw0+Ex+uG1nrZy+Wp56L4nfXYo2J3TTTu0oP/kw8/N4yOPOVTDx7Etp5zw99QzT5B9Z041we3zWV+btiqA5TtXwwxOBWEZTzzl6Jb3IdAcpeMaqsEBVq1cZ/72JMzzz6+7UnIG9DNXiCUlJZl5/mLWN+ZS+7T0FBOmPE85DRo0QK756cUSHx8nmzZuZq0N0R7EYEO0B+Cof+PGPPN44JBcUwPgbeToYTJi9HD7Wc/ZsmW7fKSBxVf33ddzpLa2zgxXkL9Vdu4skpjYGNl3/6mm8PeEe+jsd+AM83iHDrd9607zGKKiImXCpDFyyGH7m9NWnnAKqMluu7InYJ697/9TW1MrK1asNo9Hjxkp2Tn9zGNPuJfQ4KG55vFyDYe+GhwTUfdjsCEKkpSUJLnq2ovk17+7xmeHmghHjQabop3W6YqcnP7m1JE3nD7q0yfdftZz2rqPTXqftJYggpoJp/Hsh+9+6rOG56svvtWQYLW3KSnZ/b4zuArp269/kMceelZuvvEOufaK35lar7VrNthD9DzMrzc0dN5u37xw65Zt8ugDz+y2rE8/9qIUF1ptpXDzRCcAElHPYrAhChIEgn2mTZSZ+0/z2Y0YNdQeMrTtu99UueeBf/rsbrz595KsAc4TajO++vJ7nzU8aGzb0LB7I9yS4lLT6Pjqy66Tu27/n2lEvGjBMtm5o1ASE+J8Br1QsX7dJp/Lig61XUS0ZzHYEFGX4BL0m2+9wTTmbaubOHmcGR6Xhz94/5Py3bdoGBwm+0ydKL/67dXy3wdvkyefv0/u1b9DhgZ2Y8E94dgTDve5fJ6d0+CYiHoegw3RHhAbF2tO60B+/hZzNY039MNroQqn0NDYF6dpmpqaTMBpq0O7Gtiiy7Rq+Rrz+EenHSe//+PPZb8DpktmVkaXrt5CC5/wcKudT1NTo882LjiN1Blx8XHSJ6uPeVxaUm5qrXwto9M5DY6JqOcx2BDtAThtNWiQ1dB0/dqNsmTxCvPYE/rhtc5Amd6sYaM75Q7KMW2AcCpq1kdf+rxj8IJ5i+W5p181bWac1xubmqWx2Zq34SOH7hYAtm/bIXkbN9vPfENo8Q4uaMScmZlhHufnbTFXbXnCvXTmzF5gP+sYBK6xY0eax4sWLpV1a3b/XMrLK8wNB7/87FvTdoiI9gwGG6Ig8bzNv78Ot+53HHnMIXp0n2LaoDz8vydNCEBjXHQL5i+RRx962mf7lLbgRzadxroLFiw140Kg6I4rdDKz+siBB880j7/8/Ft55YW3Wn5aANNDm5n7//OYvPbyO/L4Q8+2NKZNTIyXxASrDc27b38kFeXWz0AA7hXzwH1PmMvgfcHl1FBYWGxuYojpeK7TCZPGmlokvP+eOx+S1SvXmSvQ8jdvNZfbr1xh1RR1xkGHzjQ/coqatP/c/bBsWL+pZb2i1uqpx16U119919xYcemS3YMqEfUM/qQCURc5P6kQCNxADzfTAxSK77z5kTzz5MvmEmdvEyePNbf8f/2V99r9SQXnFA7u1Pu3v9xhbn7nQKPlG/70qzYb5CJ0deYnFVALcq8GCNykDxAqUlKSTZhAB7ha7Pd/+IUMHznEPMdyP/noC/LOWx+Z57hXD346AQGlVINhRka6RGg4wz1jvOclb1O+uXoKVx05cBrr57++wlythfm56/b7TajyhvnAlWkvv/iWWRe+flIBPD8jb2gMjTspO8uGmjd0mG/nCrGjjj5ELrny3N0uGSeinsEaG6I9BKdgTjj5KFMop2tg8YTfirr2Z5dKYmKC3ScwaPvxy+uukiFDrNNcsHNHkbkKqTskJMTLr39/rVxw0Znmt6FQuOPnIVDwI2igYfBf/3F9S6gBLPc5F5wup5x2nAk1+EmFbdt2mveNHDVcfvuHn5mfZfAld2CO/OyXV0iW3d4FCjZvkaoqq40S5uenv7hc9tew43l/HNwn6A83/lqGjdg1H52x7377yN9v+4OMHj3chDgsJ+Yby43P8NIrzmOoIdrDWGNDFAJQi1FRUSEN9Y3mahqEhK5CzU51VbUkJiW2NNztTp7LAIFMF7U0FeXW72F1dLlxug3vR+2LryCBU3A4bYS2N93xkxKe8x4ZFaEhNJENholCAIMNERERuQZPRREREZFrMNgQERGRazDYEBERkWsw2BAREZFrMNgQERGRazDYEBERkWsw2BAREZFrMNgQERGRazDYEBERkWsw2BAREZFrMNgQERGRazDYEBERkWsw2BAREZFrMNgQERGRazDYEBERkWsw2BAREZFrMNgQERGRazDYEBERkWsw2BAREZFrMNgQERGRazDYEBERkWsw2NAeV1NTKw0NDfazwNXX1cuaVetl7eoNnXo/UXdrbm6WqqpqaWxstPsQUXcLy8/Pb7YfEwUMoeKpJ16UdWs22n12GTp8kFxw0VkSFR1l92nty8++ldWr15lhSkvL5JEHn5GRo4bJqWecYAqAmupaiY2LkYiICPsduyspLpUnH3tBKsorpX92Xzn73B9JfEK8/WrnISDV1tRJXHychIeH2X2JOmf9uo3yxKPPy9HHHib7HzjD7tu78DtBvQ2DDXWKE2ySk5NkzNiRdl9LfEKcDBqUK+ERvisEPYNNRGSk5G3aLCkpyZKaliL5m7fKC8+8Kmefd5rkDOhnv2N3K5avlnff+lguv/p8Mw/BgvG+h/Fec74kJQVvvLR3QijYtDFf+vXLDErw3hP4naDehqeiqEv69s2UcRNGt+qGDB3UKtSgFgY1K+i8q+TD9AAwMzNDEnSnj0KgqqpKmgTV91VSVVllqvI9NTU1S2VFldRU1+hONkEa6vU9HsM5r5eXl5vw5Qumg9fR4bEDw2O8jc1NOq86jZpa61SCjt97XHgNHXgOg/Ft3JBnnjvQH9PCfGH+2uOMD+/xXDZPzjL4WqeenPWB4Z33+JsPz+k6y+bwHA9e27B+427rxHm/93sB/TyXpa3PyXNaDmfczrCBzA/gdbO8jU2mlm9zXkHLPLS1vA7vbRfTcJYjkPkMD48w35HomGjz3Hk/5mf79p2ybet20x/aWifey7Fx4+aWzx2vYbkwPozDG17HOH1tKy3zo+9z1oXn8uB17++Ew1k33u8h2tNYY0Odgh0eamxGjBgqBx26n913d1sKtsmLz70uhYXF5tRUWlqK5Obm6PMiU2MDzngy+/aRpx9/yfQDX6e0sBN9+P6nzfgcznDVugN+4fk3JD8vX2JiYszzw488SA46ZKY5rYVCZ/Z38+WD92dJpBY40NDUKKefeaKMGz/a1CR98N6npj9MmTZRTj7lGJ/L+cpLb5u/eK+zLuLi4vTofLOUl1XI+RefKaNGD2+ZXlRkpNTW1kp6Rrr8+LxTJSurj3m/t7LScrMMeTqexMR4qdDCDNM+85xTJDY2ptUyREdFmYIuIjJCzr/oTMkZ0N8eyy7O+powaYzMnbNI6uvrpa62TnIH58rZPz5FklOsI3AUWG++9p4sXbxS4uJjpbqqRibtM15OOvlos/6d8QwckitLl6yQiLBwufjyc3erVZv18Zfm9cuuOK+lhgKF3rNPviLpfdLkhJOOMuvHLKMGQMx7oy7DgQftK0ccfbD5nJxpHXfSkTJ6zAgzDu/tLdD5QW3Dm6+/b9bNymWrZfDQgWZbaWxqanN5ob1tt6a2JuD5dIbBNrZk8XKJjI6Wjes2mW0M25DzufvbdrEc77z5oQwdNlhWrlijn1eNBqYsOeyog8xy6Iax27YCq1aulVdefEuaNbhgW4/R6Z6pn/vQYYPM65gfjDstLVWWLV+l21OjHpREtPmdwGue48VBTJ1uV857iPa0iOuuu+5G+zFRwFCgLlq4VBKTEiQzK0Pq6upaunAtZLAzRmH5su6sM/qky5VXXyiHHXGgpKenyeeffqOFdoJMmjzOjAvjychIk6nTJ8ko3fmvW7PeFFKHHLb/bu1ssNPf74Dpkq0FWEVFpfz8V1fKtBmTzfy8pNNKTk6UK3Rahxx+gAaewfL+O59IamqK9O2XKVu3bJf3350lRx59iNm5H3ToTDOv330zRyZMGCPDRw41483P2yI/v+4KmTxlQstyYv4GaRhwLF+2yvwdO25kyzBFhSVygQaak089VvpkZshKLTA+/OBTDRA/0n7HyYEHzzTzMF8DBmq2IjXseMJR8ycffaGFbLVcftX5cvhRB8uUfSbIt1/P0eWONoVzSXGZKciOOe4wOePsk+WAg2aYI3icwhs5cpiEebWBwOcxT6e3c2eRnHvBGSZYTJ0+WZYvXSmbNxWY04gIS++/+4kUF5fIFddcKEfodPHZfPXFd+YzRA2cM55m/YfQctSxh5p17S0hIU7m/LBQsnP6m88dNuv6/O7bH3S8h0hCfJz5nMLCwuTqn14sRx1zqPmcPnr/M/2sw2XgoAEt0xoxaqhZj+D9OQQ6P1juubMXyHj9fC+69Mdm2cP0X3vLG8i229DYEPB8OsNs2rBZFmuwOfSwA8znMW78KBOG2tt2sRxzvp9v5h/tyfbdb6pugytl4fwlcu75p8txJx4pI3T7/frL781pL0zLBLPnX5djjj3MbO8HH7K/+axn6TY2Wj/3uLhYMz8LdX7xnTr7nB+ZIFVUVCKrNDxhGx2m8+H9nXBC8Nhxo+RCXacHHryvREVEyrKlq2S0hnnv7Zqop/FUFHXJZ598LbfefG+rDkEBUM1eXFKqO779JEaPIFGYDR8xxISXYCso2Gp2yCiAnCPugQNzZPzEMbrDXWkKHDQy/uVvrjIBCo0gMT/YcTfUNUipHjF31WQNIX37ZZnHmN6C+Utl8uTxppAC7PAPOGi6lJWVtzoF4cA8nXDyUXLJFee21KSkpCbLgNz+5lQD1DfUm9MCEVqQAILfST86Vk457Ti/bZpgn6kTzfIDxn3QIfvJho15srOwSEpKy2Td2o267g6SpCQrHKRrwTxDC8/VK9eZ2gPHzP2ntcybL6iR6t+/rzmiRyEKa1avMwVt//5Z5nPatn2HaUwbryEHBmmYOeDAGbJk0YpW0wpEe/MDWIfTZ0xpKXADWd7u3HYH5ObIBN0unYa4gWy7gFqVseNHmHnBukvV56hBys62aqlwyiurbx/Zsb3QPF+qASo3N1smagjDezA9bAeROo2Nm/LMMID5QU0LhsE6QtjCKab6+jp7iNZQq1NTW9syr3jfARpuLrj4LLOuiPY0BhvqkkOPOEB+/8eftepQ2AAKCBzJJackmOeAnWCmfSQfTJgWjsAfffhZufPW+0x31233yyINF2iv02i3LUCV/6effCUP3f+k3P7P/8gD9z1hLsf11TahoyI8akswPUx3zuwFZj6ceXrisRdNiPJXgON9ODXw8gtvyr//9YD846//lgXzlkiTHRL6aHCYMmW8vPzim3LHbffJO299JHmb8tudf5zm85SQkGCCB2qHcBqmsrJap/lGy3yi+0zXE9pdNGiYcnjXoHlDwThJwxwuwy8vrzDLibAwVgtOFIS+tgnA/HlPKxDtzQ+gVk7/axHI8nbntuuEakeg264vWKf+Am1pWYWsXr1e7tbtyBnvA/c9LkUaZstLdgV57/lpD04xztxvmnzx+bdy69/vNqdl8Xm3NZ9EPYnBhroE5+xxpYRn5xzJ9TRUrR92+IFyzPGHt3SoycCRMApAVM3fd++jpvp95v7T5ZLLzpHLrjzPvK+7jBw9rNX8HH/CkabKPztn9yu+cGT+rgaV115+x9RwnHLasaaGafLUCfYQ+oXVQuzIYw6V313/M3NKDUHt0YeekXff/qjlyD5QEeHhLbUYkVERsp+uE895PemUY+SEU442bYc6YvBQ65TdhnV5UrB5iwkLuJw/lARzeYOhvW23s3J0O/Mc57HHHyFnnn2KjBrbtZqn6ftOMdsgbtEAzz/7qjz31CvmtBrRnsZgQ90mPj7eNCpE2xMHCl+0Mwk2TCs2JkYGDspudYUW2h0MGjzQBII1q6xTIuecf5ppTIvHtbV1Zh7b0+hRI4JlaG8HjsIoKTFRYrXAGjt+VMv8jNYCZYQW8r4uUa+sqjRHvmijc+jhB5i2Hriapqpi1xVWppZFj/Bx1Dx5ynizLCf/6FhZvWKteb8/mzfl248shTuLTC0Q7k2C0xrRUdHSt39W63Wn84lTdU74CRRO7wwfOcS0McKplAG52ZKakmy/lmQasRYXlZnnjoL8rZKSlqyf4a6Q6VkD0KCP6+uCc+VNIMvbkW23q/MZyLbbGWjsHBUZJaPGDG8Z55hxo8x4/TVeDxTa2URFRZoG0Wg0jPZCBVu2yXb7NBjRnsRgQ11SW1dnrvzw7HCEjgI4O6ev5Gih9vGHn5uaBZwumT9vsaxcucZ+9+5whQqqxVHw4moap51GezCtzH6Z8tYbH2qhWWreZ9XQPCafzfrKDJOSmiJFRcWmISZguK+/+L7VaRwcOdc3NpgCDdNH7VN2dn/5YfY8cxl3nQaaeXMXSV5e66DgDYXRPtMmycJ5S2TuDwtN4YcwhNNg/7nrITNtb1Fa2KIx9sYNm8208Z6F85eatjCOvE0F8u9//U+WLFpu5rtWCxi0Z8H78H5/MM+rNdhhvaD9CK5eQkNPBI5UDRSoWcJ9gbDOMAzm76nHX5BXX3y7wzVB+PzQhgSnyHAaClcbOYVz3359pH92P/nog0/NNLAMmP/Z382T8RPGmvWNGpN+2VnyxaffyM4dRSbIff/tXLNNBEMgyxvIthus+Qxk2+2M8RNHy9Zt23UcX5ttD9vTvDkLzSlM3FsnUN7fCczjfXc/Il9+/r0ZJ/qhwT9qABEaMf+fzfpGnn78RXOal6in8aoo6hTs/HH1x/y5izUczG7V5edvMVcZRUVFyeDBubJkyUp5982PTKGOy0NxGTQa0HpfFYWrSHCZalNzk+7kPzCFOnbOuBLKG8IJCk6MA7Uj4bpTHTJ0oLnT61uvvy+zPvpS5upOfOKksXL4EQeZYdLTU8373tZxf6Kv47JbNKzcvnWHaaiJq1JQ21BSVKLDfGjuFYKraXBVSJ4WBJ9oIYd2BbjnDqaFo1bPq6K8r5xKS0/RLs1cgfPhe5+ZK2oqNfSh+t5pyOsJNQVpOo9YTx++96kpMFGjkpKSZG5kiGmhoWx0dIy88/aH8vEHOj+ffWsumT7trJPMTQ69OVflHHDwTC2IvpW3XvtA5syeL8NGDJbjTzrKBAkEEXxOJcUl8vqr75l19/23c8zpsuNPPsp8Jr6uVGpLbGysaSuEq5YOPWz/ltOTu31OGrCW63C4SmjGzCnmdXRohI3LuLGM334921zmjCvDEOB8XW3kDz5v1NTtM31iy3YUyPJiHtrbdrF9d3Q+cRoU4drZbiGQbdfXcnhemQfe2yHaUeFKui8//07efftj09AfgfzEk4+RESOHmPXga368p+X9nZg+Y7JkaRD78P1PzXaN4IQG2aedcaIJaVhP2MbQKHripHEmGBH1JN7HhnoEQgCupkBBjR1qe5zqfWdn2xE4gqyurjZH1L5Oo+DoFaegUDvkb/y+pt/ZecIRLBrpQiDLj9oBDI/A4tyPxBvmBY1gI6Mi/Q4DnvdRGTlquBlvtIYMf+2gnPGicPY3TCDwGeDeNQMGZpv7sfgSyOdQX99gXnOuIAq2QJbXc9v9SkOCc9dsz+GDNZ/tbbudhWVobLCWobPz6L39O9spNudAv9dEPYGnoqhHoPBFu5BAd37Yefor7NqDAgFtOfwVDCiQcETd1vh9Tb+z84RlxrIHuvwoeBIS49sMLJgPLENbw3hzxttWYHHG29lQgxCHwnn50tXmsu7xE0bZr+wukM8B7Ti6K9RAIMsbyLYbrPlsb9vtLCwDPvuuzCPWledn5WxPHfleE/UEBhsiChpc4n3PnQ/JSy+8IfsfMF0yszLtV4iIegZPRRFRUDlXzLRVE0NE1F1YY0NEQYXTHgw1RLSnMNgQERGRazDYEBERkWsw2BAREZFrMNgQERGRazDYEBERkWsw2BAREZFrMNgQERGRazDYEBERkWsw2BAREZFrMNgQERGRazDYEBERkWsw2BAREZFrMNgQERGRazDYEBERkWsw2BAREZFrMNgQERGRazDYEBERkWsw2BAREZFrMNgQERGRazDYEBERkWsw2BAREZFrMNgQERGRazDYEBERkWsw2BAREZFrMNgQERGRa4Tl5+c3249DX32xSEO5SFOdPuk9s01ERLTnhImER4tEJolEpdn93Kt31Ng01YtUbxKp26mPa7UHQw0REVFgtMxE2YkyFGUpylQX6x3BpnaLHWiIiIio01CWokx1sdAPNjj9xFBDREQUHChTUba6VOgHG7SpISIiouBxcdka+sHGNBQmIiKioHFx2doL2tiwoTAREVFwubds7R2Nh4mIiIgCwGBDRERErsFgQ0RERK7BYENERESuwWBDRERErsFgQ0RERK7BYENERESuwWBDRERErsFgQ0RERK4Rlp+fH9q3H6xcbT8Igm2vixR/I1K9QaSp0e7ZReERInGDRdL2F+n7I7snERFRiEsYYT9wl70j2NRuFVl/p45rrd2jmyQMExnya5GYfnYPIiKiEOXSYLN3nIrqiVADmAamRURERHuE+4MNTj/1RKhxYFqYJhEREfU49wcbtKnpaXtimkRERLQXBBs0FO5pe2KaREREtBcEm85e/TTsdyJDr7OfdFCwrrjqbZqbRDY/IbL6byL1hXZPIiKinrN3NB7uqOQJItk/Fsk5z3q8J8w/S+T7I0W2v2X3sDXViiy+UuS7Q0UWXSLSWG6/YNv5scjsY0TmntqzbYugao3IlpdFCj/R+X7f7tlNKleJ/HCStaxYZiIiIsVg48uwP9gPlOfjnhQ7UKS5YfdwUrXBunwdanbo6xomPJUvscJPzACR+CF2zx4SP1wk6wSR9ENEMo+wexIREfUcBhtvfU8USRwpUvSVSPHX1mMU1j0teZL+L0ykYpkVVBxVq0Qaq/STi9PgU906+OBUkPM8aZy+vYc/Xkxv0NUiI28Siea9fIiIqOcx2HiKiBUZ+isrIKy7XWTtbdbjob+wXutJSeP100kQqd0mUr3Z7qnKFuo8NYqk2MGnbJ7VH2rydPgCK/SY1xXev+J6kR80sH13mMjs40SW/1rHudF6HeqLRJZoIJl/rsjOT0QWnC/y/eEi+c9Yr6/4nci8M6xTPmv/qa8dq90ROtx5IiWzrWHAczxOwMKpKZwyWn+XdRn83NOtcc85WSTvYWv9emooFVlzi86nhkkMh3FhGs48FH1hD+ghLNJ+QEREezsGG0+5l4lEpmlh/KIW/BoS0OFxVB+RAZfYA/WQhOEisZkijZUaEpZZ/dCepkoDAwJP6kwrwCD0IFAA7tLcWCESnSESP8IKF8t+psHgW6vwR1iKTBQpnW8FBQQhQLho0PfV6Xg23a9haIuOO35XYGjQeagvEyl41go34VHWazX5GnT+odNZbg3njKcB7X7sBtSobcJ8l2sg26jjbtTnYTrfGKbgOe3s8ARN1SIr/6zT+FDHpcOh1gfLg2lUbbLe01RnD2wLi9b1lG0/ISKivR2DjSOmr0jOhVp4agG+6T6RMXdaHQp6FNYDLtJhsuyBe0BEkk6vvxbwDSJldrCp0RBTu1ML/FSR5Cn6ugYuhBGn9sVpXxM3UIfR15zAgWH30RAx7l6RyU9qaBqp49lunW7z1Fyj49SQMPVVkelvi2Sfbb+gmjVQNOm8THlaX3tLx/OENWx9sQaRz+2B2lC91fq5iRk6Xrw/43Adp4afoi+teYbNOu7yRRq+dPnG6rqfokFq6usiKdN0ObdZw7SI0FDDzZeIiFpjyeAY8iurJgK1CvUaZFInaTdRH5db/cKjrWF6UvI+WnhrAV691ir8y5bq3yoruMQNEokfps8rrUCD2hJz+idMJHGM9f6sEzUcvKgh4S6d/zirX1iMSFS6Pmi2akE8hetrfU/WYJFi9/Ck4808alfbGfxNsk931WvYag9+k6SPvh8QSNIPsqaH9kKmhkeVL9b/6XxlHqvj1nUPGLb/j3WeNex4itJ5jNTwR0RE5IHBBnBJd+bR1mkdtAkxtCA3nTKnpvS1zGOsYXtKkk4rwqOdjdOeBoEHEkZbBX/Fco/2NTo8Tjk58N4N94gsvlpkzikiPxxnnZoy6u2/NpzWQWjyBcEONUie4gbYDwIQ29eaVwdOH2F6jjoNRzilhrCD03CeYrN2DzZEREQ+MNggvDiXdKPRKk6PeEO/tbdaj3vy8u/4wRom0M6kWsPLUg0pW6ygg8ADTvBB6EFtB9qjoF2OEwx2fiSy8BKRra/qMBut01Op++r77JqW3gIBKCzKfmJDSEJ7IVNrE2H1IyKivR6DTd+T7Mu7vxAp+c7uqUoWaLfQfqJw6Xfxt/bl38fbPbsZai8Sx2qwqrOCC9rTIOgg8IATfNDOpRynqWqt01Non4NTU1vf1L/aL/tckenviEx8RGTkX/U9Gn5CDU6PYb6xDN735sF9e+q87mSM4cf/z2qHk6DLTEREpPbuYGMu7/6FFQLW3WH3tOGSaHSecKkzhh36S+u9PcFc9q0Bp2y+VXODU0V4Dk7wwdVEZXPFXKlk7n+j0PamqUIfRFgByDkNhMupcfVUqMH8peAUW5jIjvc1qC2y+qPB8uYnrdNUnvA5FH5m3ZkZwxAREam9O9jkXi7m8m5cdoxLuz0hIDghwdHq8u+L7Z7dDA2B0VAWbVBEC3PveULwQQNjXOWERr9Oo1vUfpi7F9eJbHpIZOP/rG7JT62rq0LRgPOt+W8oEVn2K+v+N3O0K1ugy5JjD2RDDRsuA193p8jWl+yeRES0t9t7gw1O4eRcYF2Rs0kLfG/j7tJOC01v5vJvfQ/uaxPdA6d0UKAjoIBncHE4wQdw+XVsrvUYhvzcGh4/SLnlee1e0HHgHjj72gOEGFy5NeqvIlkaZsyVWwqXpo/+m7XsntAYOQL32onRz0EfExERqbD8/Pxm+3Fo6uppE9zp1pfRt4lkHimy5p9WLYw33LcG8GvV3rLPERn2W5EdH1h39fVl6iv2gxDgXHGEsIAGxL0NbvC3VENaTYHIUF3vffRzA5yCQy0WrgQjIqKOwW04XGjvDDY4nTPpMZFmXfTNj+hfH1dCtQWnfgZcpn/DRBZeLFJmtwfxFErBprconSey8T4xVzqNvsWqwYEd74qsu0ckIlr73y6SOMrqT0REncdgs4d0R7AxpztOtJ900bY3RVbdaD/xwGDTcZWrdF3+ybr3TlisSFyuVdPUUKwvaojsr5/lwGutYYmIqGsYbPaQ7gg2UYki8SP1QVebGDVZhTF+csEbg03n4KqtTQ9bl9431lj94nJE+v5IpM/RusXu3e3diYiChsFmD+lqsJl/luaPDp5q6qrwCOunDIiIiEKVS4ON+w9/4+yb2fWkPTFNIiIi2guCTdr+9oMetCemSURERHtBsEHbjJ685T6mhWkSERFRj9s7WmIO+XXPhBtMA9MiIiKiPcL9jYc9bXtdpPgbkeoNwWtQjIbCaFOD00+sqSEiot6CV0XtIcEMNkRERGThVVFEREREoY3BhoiIiFyDwYaIiIhcg8GGiIiIXIPBhoiIiFyDwYY6r7ZApLHcfuJDU7VITZ5Ic5PdwyWwXNveEMl/xvolcqKOwPcB3wtsR0QUdAw2oWrnxyKzjxH57lCr+/5wkR9OEll5g0h9oT1QD1tzs8iC80XqdoqUzBZZeLnIij9Yr2EnXbm29c561Y0ii3SYoi/sHt0E4cpMu8HuoTznNZjqtuoyXSWy4V7rvkhVG+wXusjX+iN32q6heOHFIuvusXsEACEa3//KVXYPHwLZhgIZT3fqzPRxAIXOgfdiHBgXkQ8MNiEtUqTPkSI5F4pkayGNx2WLRVZrod1Uaw+zhyTvIzL4GpGBGlyg6GuRZb+0/jpyLxMZdLVI2r52j26y9U1r2tXr7B7dqGyJBstikWH/J7LPS8FbNl/rj9wpQw9SBv1Ev9c/tnsEiVu3odV/tzqiADHYhLIw/XhSZ2pAuNTqhvxCJOsEPWJZo4X4Ro+aCq8jNOfIra3TRKgOr95kHf14Hg15csbjaxqYt6RJIjHZ1nTqUIvUbP3FeDH+2P4iiRO1f9Su6aEGpdV4PWpZHOhnXtd5w7gxPJbX17AYX2OpPtBp13gd2UFz467l9LU+AlkP0DL/unzhujxhGjq95x/zgvH4XS5nuXUYz5okf+sP/b3H5YzD+TwwHgzfVCdS8q0Wah61Y57r0XN6vjjDYppmuvoeZz68YT35Wk7Pzxjj2P6WSIUGQee1ypVWLRdqvbw578V42/ocfGlZT/Y6cTjrCq87nGXzNXzLeNpY395a3qPrv3yhyI53dg2L13Z8YH0unuMMT7C+O9Hpdg+bs17x11kfnvPucIYLZBtqi+f0PHluC/iscNrVs5YY021Zhx7L5XDWmfc8+uOMz3tZnXXQXG91vobBc/T3t7zOsgQ6L+QKvPNwqMKpqPV3W2EGNTWOjf/TneV7ImPutL7UK/+krx+hw+mRmqPgBZHNT4oMv14k/UC7pwfsrHCaCOs2LFp3CLUiCeNERmm/qAxrmJ2fimzQ6TeW6ZMIkchkDSoDrB3c2H9bw+DoMHG0SNwQkbyHrH6A4TAMduoFz+vjO3S8uhPH8Bh/zWaRBp137KzQf+RfdEePAKQql+u8/VV3tjqPYXaAwPKVfKfzp0dtCSOt4Rw45YR15UjU5Rj/X6s/aleiUkWqNAhihy9hVs1X7sVm0IDWgwM7Rcw/5t0RkWQtW/xw/azusj4X1LKJLhfW17DfaTDdzwwqBc/pZ/K4TkODFpYL0+pztMhQHQavtbf+nOX23i7McmqBivVUu2XX8jvrsW67vkmnJ1rwph9izVN4nBlVK9jxL7tOJHmCSKmOzxQm+p64Qbqt3aqFcD+P9aXDhsVayxCp69f5/Jx1FJlizUtDlY5Yx5F5vK63fA05y6xpYR109nPwpWxBYN+Dls/ALoyxzgboPGSfYz3HqY321rc35z34WRVsZ1hn0TrPfU/Raen0sN01a0Efm7trPTrrOvvHIjnnWUEAn1Xp9zq8ftdEC+g0nV+sDxzIYBhnOkljdLh5mLI1XHvbUHQfu4et1Xjmag8c2+rnkbKvfo5/trYNZ/7iBupjDaNhOk9Df2vVNHVlO8fBkPc6Ll+ky67bT+IokRH613Pb9PWdy71CpzW9/W0VOvod2BvxzsO0R+DoCzsadNte053K+/rFnqGFqYYJFCaJumGWzddCBLUWCqeoijSUxOuOFDsAb3h9jX756zWwjNeQNEN3UqNv151Hnu607HP+KGg2PSAS01dksu6oZmgB2/8sLZh0J+cLdrzD/2gV9Pg7+endd6gO/E7XsN+I7Puh7oR0uihktrxivYZ5QyHSrIXBBC2cMcxILbCKvrRe8wXTw84O057woFWoO+p36M5vvM6/jmfqq/ol1hCG9YflC2Q9eMLyYLkwvehMa1rT37J2zgW6s0YQHHi1zrOOH9NCQbZOlwXTwnrDZ5eqhcdUXVZMK/tckcKvrMKsI+vPl/oiLQi1YJmhhTCWHwXCmn9qoZMmss+L1jwN1XVerOFws467LWgzNE4LRKx7vAcBc6suJ+Q9oc+1kEABNONdkSm63OExVnjwhIJktIZQDNNfC28ENJj2utUhfBXqvGI+O/o5+BLI92DnLGs+ERim6/ygw2P0w2td0Vih09FgM/0dkUlaqKPQR6gZ8jNdHu039PfWetvxkTW8N3wmZRpWBl6pw+t84TPDusG24wnTQYGM7W66fqYopHHaCeGgI9sQxtOg63vys9b0cq+ywqH3toFTruP1M8AwCHVd3c69OaEGodA71IDzncP2gm7mZ9ZyOtraVrvyHaBej8EmlOEoZNP9Iot1h4cOhT6OBvufah39mFNV++sXWr/EaHsDFXqUUq1Hx2kHWIWONxw1V63XcZyxK62nTLWOaHGEgyPrkh+sGpX+Z1rhBtPB42Cke0zLObpLmWYdWWInBGbe9Oisrx6lJoy1+mFYzBvCTkdF67z3O9uaf9QioPBvrLQK0UDWQyBMAarBC0eP/U6z+mFaCIKYFtYljkan6M51pB494jVI188nLMzaOXcVlrP/Ofp54yha4dQHCqWBl+6q8ehzrH2UrvPjLyQCjq6d9YHToAhxdfaVX8O0gEZhhgIVcGSMGjsU2ghXjuRJOg6dFtZ7/FD9G63j1aN9FFzoEMzrNYDgPcH4HAL5HiBI4bsz6BprPaHDY/TDa10Rkajb7EnWfKCgj9LCNC5bJONQ63UsD6aD06ne8FngM4nXgNxPtxmMA5+ZqUXS9eYJ00G7HLMedf6xbOB8fwIVruPtp+vb87uNbaPkG91mPU71mG3B/h4GezuvWquh5iZdXwM1yN5iLVNHtbWtduU7QL2ebtUUslAg4OgLRyroJj9l9Vt+g3W0AxlaAETqUVqRvg44IsFODzt6X1ADhKrvTY9YVxY43c5PNMxof6fgxw4PVdEOs9PWHWFXYTz+YN6wE4zpb/eweT8PFKaF8fkSyHoIBAJgY5V1xD3nlF3jwdFik70uATUQa28TWXCh9fqSn1qFSHvtIALhvZyYJo7KV964a34wb+VLrXnFPPuD9kP+oL0C2pDg9MBcDdezj9NQgNoOXYa2lgPz56/gCtbn0N73AEEKha1nLQYeox9eCzachvF1YOHN2X7w3fL8bsRk+fkscKqqi7AP8f5u45Sw8913eE4/mNt5U40epP1X/+qBG05HdibUQFvbale+A9TreXyTKOThaBDVqSjEnOpzHDXjdAvak6CRHKp8E/WoJGGY9bpPusNP30+PvLRwcjocteWcax3F7TWCuB7ihnqNR49q0Y4EtVKoeVj6c+tIMVWfo+Zj1D+s0wbdRguvLD2ibTVPZ2t3uhUAOmP9v0TW/Vu3P11vqCEad7cGiiPsF7siCJ9Dp74H1Jp+Dgg9bQnKdo42PRN1chpo1t2l4dbrlFvQdMN3gHoFBhs3SD9U9xV61ISjaRwBpx9kv+ADjlJxJBs/Qo+W7Kut0PX7kdWZo1o9ekPbFzQcdKDq1rMRX3dAcENow/l+B470yu0ra4IpkPUQCOwgIxO10500GqI648nRgh/jQfV8iR7lorZj1F9FBuuOH6dZcLTaVG+PpD1aEDhQu9FeLQ8+PxzN4pJ8z2XL0qPWTO0CqUnwhtMd+BywbY3RgJN9lq674XrkW2wP0EnB+hygre8BrtBDP89CFI/RD6+10sH13RWoKUE7EDQUdtoHAdY1pt0dMF5f321sx1HJdk8vwdzOcVUYxjHgMl3/O6zaumCv4+74DlCvwWAT6rDjdRoPF34msvYW3e/qzsKzYTAeY+eMc+A4v5/m5zQUmIaWaPD6rNUQEDsUBAlUGS/7lbWTw/sxvvzndLrLrJ0VGhPjSNgftCGAqnU6f15Vz4HC+XI0PERjU9yIEFdYrPpj+8EGO2NMD+vIs41AWwJZD4HADhK1Fqji3vgffZ8WGrhybM3fRRZcZI3TBEUdf7EeyeIvquuxbLhixOFr/SE44C92/GhrgqtYtr6mA7XT3gifX0ymzs991vQxDizj4st1vv5mD9RBTsFWvV7M3ZaxTWx5QZfbT4PyQAX6OSz5iciiS9r+fNv6HmQcZp1+2KCfET4fdHiMfngNOru+uwKngfqeaLVTWvZrkc1PWDd/xPro6HQD/Q7iiiVcMeb53UY7JwRBfwV+sLZzT5nHiGmjg1sUYLn9icLpQg3Q5pYPAYa97vgOUK/BYBPKvBsPr9EjIZwfxo3xnIaDgJ1Oiu7UcVSdPEULoDaOcrEjHfZ/VohYq19w3NEYBUhEvMiQ66xx4f3DfqsD64518bUis4+0dvK+rrJy4L4caCi45XmR+efpTlOPQDsK84YrSLLPtt6frzt31ByhYWZbcMUGCsd1d+j86roJpDFlIOshUP1Ot06dbH/HancyV5/jlMhAPSJNnqwFwqH6ec3Q5Xncms5CLaBxigWNQR2+1h/Wdz8t9MoWaeGh/XAFCRpTR+oRb1vM53e9tSxYJkwTy4hlHaJH0p2B9TFAC7D6Ep0//XywTWx/T+d7jD1AJwXyOeDzRG1G/DDt38YphLa+B/i+DLrC+lzw+TifEfo536XOru+uQgE/4k/6QL9vW14WKbGvlAvXddARgX4Hsd1h2CW6LeBz3Pam1RA3W9/TlmBs596wTeHqNAQt5+o5b7gsHgF3oQ6L73gguuM7QL0G72PjFtgx4Chv5E3WTiYQOPqpLrCOiDwbVXrCzbtwVIerl1AItcccUenREaqbOwNHVuhwesLh6/4ivqARI7J6RxsjBrIeAmGOUu3Tdb7WF46ia7ZYtQr+Cmhf6w/jbdBAgdMWHRXINDuivWXsCn+fA2oKV2rgRSGIUwltae97EMj8d2V9dxYKbs8wjdpHz3vddESg30GzbWy3ruDqyHcmGNt5Z+AqOtw3qaPbXHfNjxsg6LlQEPdKtEeYwmCjHkW9rRupHtGiaj9Q2JnhPW0V5rizMK6gCHRngnF2NtQgmCz/tdUA0flxSVRn494zqOZuryEpptuZKywCWQ+BwDrCuvK3vrBTRTBra+fqa/1hXJ0tZAOZZke0t4xd4e9zwDaAm8Q5lx77Euj3IJD578r67oy8R8X8rlnR59ZzHEggoKG2Ejed66hAv4Nm29B11dHvTHvrMNjbnAOfib/PrC3dNT8Uslhj09s5d97FvRo87+DbW+H+E6hu9jydhECD0xK4/wntfRBasD3E5Pgv2Hrz9wBtVXBPF/z8BGpDALU3OO0z4NLOFeZEgXBpjQ2DTW+HnT7aHzi3EXcDp6ob97tAg1XUGhG1xQ3fA4Q3c6PDCKumxvN0LFF3YLDZQxhsiIiIgo9tbIiIiIhCG4MNERERuQaDDREREbkGgw0RERG5BoMNERERuQaDDe05uH9HwYsiW16yLtXdk3C5MG4E59xHZE/BnZ5xp1QiIuoUBpu9FQrw6k2tb4TXk8oXiSy8TGTzIyLb3rB+g6inIMTgNv3461h1o8iiy60f5OtJuLEc7jqLz6Fktq4TnYcVf7Be8zWfwYAflPzu0F0dfvdn0aUixd/YAyjc0v+Hk6yfsyDqaT21/XVmOjjwMN/LBrtHAPh96lEMNnsr3AgMv6C96X92jx5Wtlj/p+Fq7D0ik5/u3K3jO6voa5Flv7T+OnI1ZA26WiRtX7vHHpC8j/UDpwM13ICv+QwW3PQw50Kr63+69ggTWf03/z9ESESWrW9a38vqdXYPCjUMNqEOpyaQ9lG74pwmcY7kvU9Z4AgC/T1rYczRhb7f88gfw+HOvs2N+rim9Wvg6z0OjBvz0lRn/fwBbmPvHLngte1viZQv9H9Kx5nHxlKRiAT9W7Fr2Zxxe77X8+jIs5bJWQfOa96cYbEcWIcOjK+uUB80W3+d6eEH8hJxG/4oM5jhbxzQkXlpeV3Hg+H9wa3z8avLCB2+5rNJPy/89Z4XQD9nWQIRlaZh7lK70yA19k6dbpb1y81twfy3bBvtrHd/8+Nrm/bU1vbnT0DbrM6vM28Y3pvn5+T5uudn7QnL4XwWnsPgvfge4LerHO2tN4dZDh/L4Myb53yZYf0sc8t4PKbljMN7WG/O5+P9/mAto8MZH96Dv762BWi1nD7G29Z6ALwHr2EY78/QW3vrzSw7Tpvr97LG4/MHz+Xx7O/NGR+m5cmZz/bmkdrFOw+Hqrqt1ukRLH9YnH5p9MuAX9Idc6v1+hI9YojD839Zz6HoK5E1/xAZgKPwM0XW36VH4O/p+1FYY6cRITL0V1btCH452Pli4Xdphv5WpM+RIgXPiWx+3OqP4BMWbdUg9DvN6odTJziNhB+Uwxe7uVbHN0wkZarIttd0AJ1Gs4YlFNCjb9Fxe/3AHr70ntMGLNfYf1u1RxUrrMfODyF6/rI3fgQPR0r4PSAEswYdR3O91d/z94GcdVexUucf86PLkThKh9F+Oz4RyXvIGg6caaOmwvMXxNsaB27bj51PIPPirE+zLvVzwPrqc7Su79/pcw0yWJ/OMgPGmTha1+kQ3/O54V5d/0v0sQYRp5YL7ZPww6HROi+jdXto77eFcCoKxv/X+utAf4wL00GNnuevS2On7WxPglv967JGJosM0+VI3c+8XSqX6zr7q66bbToPzjaba22zZp21sU07P4XQ3vbnSyDbbJmus6hUkao1GEi7MF228zXUXWwGaTUOHO/hs3Redz5rfC7D/2gPozzXozMMtveafP26Vel7r9BxnNP+evNUtkBk5Z90GzlCZIiOz4Efxdz8pE7/epH0Az22K7sADtNxD9B5xfTA83uD7RlwELL+bh3vL6zvureWz0e/o2GxOm7dVvFr2s72HKxlhPa2FWc/kTxBpFTXCZYTn0mMvjbyz7pMY/S5xzbpvY/rc5SZTMt0anXZ8D3GMCn7WuPAcjjTcbbz9tZbyXfWc0fiOPvz99y2dfvDukvQ10ZpP+wjPKeTqZ9te/vv7LPtnt2Mdx6mHrUVR0O68xj1d5EZb+sXTb/ASPrbP7S++KnTdCeNoxDtHDs/0h2KBo4+h1jho/Az3bn/SGS6HoVPe90qmHFEHjdYZNJjVqGCHdwMLdTxd+cs3VnqF7vvSfoe3VlMf18kTXdMeTosdriOumId/nB9nw4z+jZ9vkOnpYFhzO3a7139Ul5gBQJfp1Cws5iuy4YdIqa/z8vWqaiO/LJ29Qbdaf5GZF9dF5gmdnpbXrFea9IdyhrdOdbojgY7jX11J4S/eI4f18ROGIUTghn++pp2W+NAf7zuaGtesA4Q9lJ1RzpV+2F9ZZ+r60p3YKXfW8P4g52sr/nEDrtRg2Ox7mAdaBtTq4UOXuvsDyYi0KD2DMHM12dRoNvFzk81MFyty6rbxdRXrYJone7wsVPH0eamh63CY/x/dFl1O8M2i7ZT+VpQQFvbNAS6/XkK9D31uo0mj9fp6rQw7wkaUvCr8Zh3dFvfsML5NJ1vfF8ydPsu/lzXq/0r84Gq266f1+9FZup3D59he+vNGwJEohY2ZfOtzwSwvRXpOOL1fanT7WXWkJOmAWe6fnfR4TH64bXOyntCl1fnf4QGGXyPp+i846AH4/XU1WUMZFtxlC+zAhK+XxMQxDWQImRgnbS1j0ONMoLYmn/qWzRsTdZlwPd4qH5XsV1gHJ2B7yL2XfheTnjQCjXO/qK+TJ/rwZnZL+q+ABcjrL/HfqOHQPbf1CUMNqGqsdIqpPClBOzwprxopXlIP0CH0SOY0jnWc+xAUJBi540vDgqMZj0yxdED4OgEOw8cjYfb/bwV6hc/tq9+cS+zpo0f4UNBjL+eBSl+bbvPMdZjhCT8UCWSv1NLgXnDTqujhUKgUAA5R4IpuoNAQMJODCp0R1ihR01oN4LhAH+x7CP0KC2Qgt/fOPAc/fG6o615wU4Wn9lIPWKMTLH6mXWjO+cqDUSdkTJJp5FlBSOn6h6fTXSavqaFXqBw9IujSHQoINYiyGnoSD/IHsCDKVi/tI6enVoQLE//s6zttOQHaxsZo8ERASxhrDVMog6P02pVdluE9rbpQLc/T4G+J1qH6adHwRgG847wg/lBYdSoy4f1gUIcMMzwG0QmajjCtt4R2B7S7YIpkPXmDdNO3d8KqqYdmqpYbgXCNN12MI9YZtTODbrGWk50eIx+eK2zhmlYQShx5h/7EdRSIeyYH+e0dXUZMb/tbSsOBICMQ63HGLbvKTrMZl0389rfx+FUOdbjgIt0G9GgBZnHW99BvB/bezBgf1C1Xpf5DGs/CGYdadhEjZGv6bS3/6Yu0W8RhaQs/QKiDcoKPVqZrzuJtXrkUbHEflGhoWm8FqKovkQBhx0IdiTp9k4Ar6dowbFFj4DmnKzj+a11hOp57thbvR4h4pz5XJ0eWvCjQ9Vzg+786+3C2p+IePtBD8DO3x+0R0FwiOlv97DFD7GOsgLhbxx4jv6m7YutrXkBHLWtvU1kgRbeWJ9LfqqfE05b2aGko7AMKPhwpIdqb+w0sfNMnqw7xA7UeiHQLL7S6nAaC0fGCAf90JDYC06zNVZZhcEcLVicbQNHw012OAAUNKjKX6yFrBnuOGvecHoI2tumO7P9BfoefE747HzBKT0EOhTQP5xofUa4DQGWp6M8t4dA15u3DC0QceRe9Jn1HAENYQCfO2CZER48P288Rj+81lnYN+x4x1p/c0+1rpYrRA2Qbque22swlrG9bcWBU7KeEN5MuzP9bNvbx2HamNe4gdZzB8bZoNPH/jIYsD/A8mx6ZNfyo9v5if/ptLf/pi5pZ69MewxO2Ux60qq2R3uV0rlaAP3K2hkAjtxwBIdTIaZK9nM9KtGCF1XVzuujbhEZ/5Ae5ZygX74SkXX/ElmphQqOsvyJztLCTXdqnl32eWLO+VPHYEeN0FCqOy0ceeKIeNQ/Ag9Y/qQfbP3FpenFelSKnWdHPx+0DcCpBKdDNT5O07UV1OKGtt4u+usROtqhoKYK29SKG3T71G02Vo840TZlgm57zhE5tLdNQ2e2v2Bss2jPMuVpPbq/wHqe97AGHC10ndq3rmhrvfmCI3YcuaNdEAIsaucSx+j6G2YP0E3W6/5h3b91G9AQ1V+3hXF3a8gKcB12ZBkD2Vbagm0U+7fO7uO6ha6z9P281sGZIjnn+q71a2//TV3CYBOqcATQoDtVnOYY/gfrHDGOPDzvNYIjOFS57vjQqgrFqQh8YQBHATiax9HoQN1BT9QvP85F41SK55UMnnDUFx6lX0g9aneumMHlwFl69OGvEWCwYb5RvezAEWFHoMoZOz6sD09oYIj7xARSU+JvHHiO/k61dntKUF2uR4+j/ioyWAMOqqZx7r+p3h6gk1DdjUKuTINB8df6GedowRdgodAZqD3A6cbIOC34tRBq2Ta08MM2hVNu2KYq11gFItpo9NUde1SKLqvH0Wp723Rntr9gbbM4FYAaD7QZQbsPXPpfs0PXsUc7Hc9tBwUnTl+1JZD15g+O3HEEjxoU1Ah4niJEAYh+nu1X8Bj98ForHjUgWP/+tn8EODRKx3TQniz7LJH44fp5FdsD+NGZZQxkW3FULLUf2PAdxP4hOtNalrb2cQgUGBZtWTyhthLTQ3syvwJcb2C2QQ028fq9dJYfHeYFHbYrX9raf1OXMNiEKlTlLtKda7HdyBR/ca4bXyIHCjfsOFAwhEdYDR4dOz+wb4D3qH4xtXBFexecs8epgKhka4eE00doEIudGgrczKOtc9LrbhdzV2BTvXqfyAI9ijVXPHSzpHE6L1qY4GognNNHY7qiWRomcDVDgFDoJ44U2f621aARy46/G/+n/d60hjHV2Qrn832dFvI3DjxHf+c8enuidceJcRf/YO+E88RczYIrJgLhbz4RrjIO0503TkNpAZGuj50dIsLbfD1KxPIGC8aNI/dyLWQ2aqGP7QLbx5q/67ZxkVX4Y5vCtlWpw6DRK4bZ/IRV8Dja26Y7s/0FY5vF/C+8QmStjgPvx/yjNgnrGfOGLlbDY7GuW1zijG1z0wO6/tu4pBcCWW/+4MgdIQWnx3Bpfpp9Ggrw2SPwb9BxYnzo8Bj98BoglGB7wekRfAZYnq24atHjoMGTE1CqtYDFvgLb/JYXdN5X2gP40ZllDGRbcZQu1O+MzgeWpehz+zuI76cG+fb2cWYdZunrT1nzgWHw/cN3BG1gPPeljkDWG8aNYRCQ8L00Db51v1DwrLWfwGuYHk5pLvuVTtfP972t/Td1CYNNqMKN2lBNu/L/rLvDrtGjfrQTGaJH/p5whIUju1g98vWsqkbj3syjdOf0osjsI7WwO9va4Qz9hX6hdbzYIaGqFIXmPP2LnRiqRgfpDh5V4HP1CBjn2HGFQfYZ1vi6W+ax1vLgCqu5p1mFB3aaOCIPFAqjYbrOED7W/s1advxNGmNd0o7XcRoEjfdwbn6+HqF731LA3zjwHP3xeiDQ6DFthkj+4yLf605r4SXWUWSEFiCBaGs+sdPGDhxHfGkz7Z4KnzHCYe0Wu0eQoO0NthdsD9gusH1gOxmoBYtp36PbFI7yy7SwQpuJ2cdbR87OJenQ3jbdme0vGNss5h+nDFD7hfdj/su0QM3VzwuvAe71E6NBc92d+n3RceMUUaoWju1pb735g+8njuBNW5IprY/6vZfZGSf64TXA9tHvRO2/SAOGbjur/qL99tPx6DbjC6aHRra4Mgn7Cmzz2zUY4nvTno4uYyDbiiPjEGsfhu8PLqdG2MMVWZjf9vZxWGfDrtfviR7AIWBgmDwNLNjHoEbOl0DWG64gRZDBVZZoI4Sg67m/wLxiepjukOusefXH3/6buoT3sQl12LHhi4MvtK+2GWh8hitaBl+rX3LdqXjD0RCOLFFVjKsOvOHookF3Zt7VsrjBFNpuYGeDataehCOrpgqd51S7RyfhaKpGC3h/6w7rBg0jw/3s7KG9cQSiq+PwNZ840kX7HVyVNvImu2cPwPaC+/YArgDzDnn47HAawN/2Bu1t09CZ7a+r26wz7wjSvpYNzOkS7Y8rcDqivfXmC2oqUAuAz9dXQAhknP6+3/50Zj4dHX1vINsKOMPh9JGvWpb29nFgtjn9zsTp64F8doGsN1/bgjMv/ubVW3v77+4WaO1zL8Ng01vh1BGu/FitR70o5Mbdo19sP+dyyT2ww8UOFYXeltf16FWPFNF2h9wDhSNO0a38oxbUmYHddJF6l1DZf7s02PDb0lvh1BFOIaGNRc75DDV7CwR9nJbCkTwuC/Zse0HugFMcCy8Scxk1GuQy1LgP99/dijU2vRWqZ3E7cnNvFe749irOFTwdPR1CvQNqbHAUj3Yi5E6hsv9mjQ2FFLQhwJUaDDV7H9P4m6HGtfDZMtS4G/ff3YprlYiIiFyDwYaIiIhcg8GGiIiIXIPBhoiIiFyDwYaIiIhcg8GGAoc7u+IuuqECt08veFFky0vW5bHUPULtcyciagODzd4Id6+t3mTdZjxQ+OG4hZeLrPiD3aMT8KNxP5wkkv+M3aML8FP/5gfwHhHZ9oaGnBL7BeqyNTeLLDjf2j6C8bkTEfUgBpu9EX6nZ+UNIps68AvQyftYP2I4UAu5UIBf8cXvJ429R2Ty09bvA1HwhdrnTkTUDgabUIdTAKjpwK8Jmx9D9OLUvmAYnDLwhLtb4n0YB+5Wi5oN/LQ/fqiuuVFfr9l9vC3Ts3+S34EbSeHXpp0fmfMct/MezAfmJxAt08H0dVze/C1Xy3RLxfy6dWNF6+k6r+N93jVSvtYHTmc5MHxb8+QJw2K6GM6ZT+/pmWXEuOpEyheK7PggsPl0BDJMe/Pc1vbhwOdvpoNxeG1jXfncnXlzXsf0/S0HEVGQ8CcVQlnBcyKbH9dCwS6wwiKt347JPsd6jsIZP+WPdRQWrcPViiSMExml/aIyrEJl2XUicQP18UodJkIk5wLrBxRRKAF+Un/ob0UyDhdZf5cWvu9ZwwHCT/b5Irk6TRRIy34pkjhaZPgfd407eYJIqRbazfXaaQGOmpMxt/q+c2qr9yywlgvvi9FhR/5Z532MNVxby1WnQQTjcOYf8EvCY/+tIWWHvu+vWoDq+80yaGGasq81btzN1df68F52wa9C6zxFJosM+51I6n6Ywu5wuqZsia7nVJGqNXZPhV/oHfIrHbcGApxyy9fPMLavDrPOutNoIPMJlcvbHgZBob15bm/7gJ2fimy4W9dnmT7R6WAcWJ8IfJhX6Ojn3mrebEk6PEITxo3xENGex59UoB61c5aGmidF0g4Uma5H+ujwePPTIsVfayGhhdQaLUjqtUAa/z+RGVqIjL5dpCZPC5V77JHY6ot1GO03Q8eBH1yb9JhVwPQ50uqHv4WfixR9IdL3ZJFp7+j0dHzph4hsf0uPuDfaI/KhaoPIOC0A9/1QQ8JvrIJ4q76nLeXLrAIY75nwX+0RpvOshSuWqb3lShip86bjz73CWoZ9XrZORcGaf+qotJCfrOtt34+t+SnTAIVxe/JcH1j2Ag0gKOAHXq3ve19k6qs67lyRdfo+hAN/6rdrKOujw7+i86Tvw7rb8ZGOS8frwC9xI9BMez3w+USI9DfMRvv0YXvzHMj2geE2PaDLoMFrsgYwrI/+Z4lUaOhrT1ufO5Z/p/bPOslaL/i8ojQw8XffiKgHMNiEqkItzKL1qHrQNfopaQGHbpgWIPh5exyRV2g4qFqvBdEZu1J3ylQNIxp+cLRfk2/1gz5H6zBj7Sd+9DlMC983RAb/3JoWahzS9tUCUo/GMR1/zLjt6afO1HnO1AJzm/Xcn9RpIhmHWo8xX31P0Wls1oJ7XseWy1PJt1q4aiAYcJFVwEPm8fq+A6zx+lsfCABFX1o1EP1Os/rhByZRwDdqKCn5wernS0SiSPYF1vBYZ2baGhJ2fmIPoDBMzjnWMBDIfPobZpyGlkEaZAKZ50DWI4ZrKNdhzrTCDT5zPA7kKK6tzx3zhuc559nbbpyupwut2iAiom7GYBOq6kutwiq6j91DoYBIGGYVQDglg6r9TY9YVxo5HQrVBu2PAs4RHmU/aEfFEpHVN4rM+7HI7BNF1v7TOs3gnArzJdBxe4obYj+wIcBJsy6TFuYdWS5PqJnAesFpJk+YVlvrAwV7Y5UVKuZowHKmhxoT1LZgvP6goDbzbsPnhSDToO9B+GiBU0m2QObT3zCorcI2EMg8B7IefU0HzxHO2tPW5+5r243CukmwnxARdR/di1HvpUfD6fvpUfupuzocceecax2BdwROfS37rXWUn3mk1ZZjyK+1oIu2B+hmKFDR3scI4nIFKm6o1/ROs9oXpUyzB+gIDTJhnQh8HdXuPO+B9UhEtIcx2ISq2P7WUbdnGw88xg3p0LATR8Oo5o8fIZJ76a6u34+szjn1EaiSb/SoOk1k9L90PJeLpM7QI3s9qm+rtqazKpbaD2wIU83NukyZnV8uFNQYR9Vau4cNjV1RWxCVbvfwEpmkXaJ2cVbDbGd6OH2E6SWOsgf0oa5ETJsVBz4ffGbRuh4R1HwJZD59DYMGuVtftWrVApnnQNZjtE4Lny8aUjtQ04Sr5roC2y6ugMLVU47qDbpuiu0nRETdh8EmVGUcZp1y2PAfK8igw+P8p7TA00IiaaIWYCM16DwrphEpCj40Ll3yU5Flv/I6FeIFBWNEvBZgKIh36rB1WshpYYpTCLjxHWBcaDiMq3GCDVfT4MoszHPR5zqdt3VZtABOHNv55UqdrgVqlshmXT8YHpcl46oy3GAObUs8T4t4Qi1RxhG63Bq2Nur6xekbrOs1fxdZcJE1Ln+aq/Q9D2khvk0/K113G+6z/mYcaQ/gQyDz6WuYLbq+Num00H4lkHkOZD2m7W+FEFy5VbnMmg4aE3sGks5AI2oEs1U3iOQ9qt3DIuvu0H66nTmwnnC1FTreNZqIgojBJlSlHSAy6AotjPQIfe7pVofHQ35mFYCoERj2f1YDzrV/E/n+cKvAQmAZcp1V+PmD13BKApcgz9O/KDRxGiN+qBaON4t8d6jICi2UEvTIvztORWUcotN80ZpnXI6MwnX476356uxyoQZi2PXWcBh+toaLvEdE0g+yGty2pZ+uW6yP7e/o+47bta4HXiaSPNkeyAdc2hyTqWHiHKutS8n3IgMuFOmj8+xPIPPpbxhclj5Atwlob54DWY9mOr/VkWkIWXytNZ3SuVaw6gqEqjG3WOtn62sarHCF1ImtT38hjCFYo8NjIqIg4X1sQh2OtJ1TA7i82dcpDhQM1QXWqQx/NRO+YNwNJa1P06AGBzU3cdla+MXZPbsBagdwGXlb89zZ5ersMgSyrh0IgBUrdt3rxUxvkE4v0noeiEDms71hgrV94NQRPpP2ljtQqBHyDKFYDs/74RDRnhfIFZC9EIMNUWd4BpuOhK69wc6PRDbeJ9L/x1atEmx+1Dr9iPZb2Wdb/Yhoz3JpsAnCoRkRkQfcKyd5ikjeg9YpMHQFz4tpN9bvZHsgIqLuwRobIuoe+NmLmi36IKL7T20SUcexxoaIqAMiknTHOVK7YQw1RNRjGGyIiIjINRhsiIiIyDUYbIiIiMg1GGyIiIjINRhsiIiIyDUYbIiIiMg1GGyIiIjINRhsiIiIyDUYbIiIiMg1GGyIiIjINRhsiIiIyDV6QbAJs/8SERFRcLi3bA39YBMebT8gIiKioHBx2Rr6wSYyyX5AREREQeHisjX0g01Ums5ljP2EiIiIugRlKspWl+odjYdj+jPcEBERdRXKUpSpLtY7gk14lEjcQJHoPnbAYYNiIiKiwGiZibITZSjKUpSpLhaWn5/fbD8mIiIi6tV6R40NERERUQAYbIiIiMg1GGyIiIjINRhsiIiIyDUYbIiIiMg1GGyIiIjINRhsiIiIyDUYbIiIiMg1GGyIiIjINRhsiIiIyDUYbIiIiMg1GGyIiIjINRhsiIiIyDUYbIiIiMg1GGyIiIjINRhsiIiIyDUYbIiIiMg1GGyIiIjINRhsiIiIyDUYbIiIiMg1GGyIiIjINRhsiIiIyDUYbIiIiMg1GGyIiIjINRhsiIiIyDUYbIiIiMg1GGyIiIjINcLy8/Ob7ceu0tTYJBs35klVZbXdxxKfECeDBuVKeETvyHTOcoRHRMjAgTkSFhZmvyKyfftOqa2plVztT0RERC6usWlsbJRPP/lK5sxeIGtWr2/pCjZvlabmJnuozpn93Xx5751P7Gfdy1mOpx97UTbnFdh9LSuXrZbZ38+3nxEREZHrT0Xtu/9UOeW041q6Aw7eVyIjI+1XRWpqaqWyokqamnavuGpoaJDy8nLz11NtTY1UVbWuCQoEpoXOgdBSUV4p9XX1dh//+uf0lU8//qrdYf3NswP9MU1M23nub3hMy3NYIiKiUOfaU1EolJ964kXZ/8AZMnrMCLvvLggYb772nqxcuVZioqMkNjZWzvzxKdI/u68pyD/58Av57ru5Eh8fJzXVNXL4kQfJfgdMlx++XyAff/CZNDQ1SkZGmpxx1kmyasVa2b6jUE4/80QzbgSFpx9/SU4+9XhJTkmQJx97UdLT02T5slUyacp4M9wqne4rL74lERHhUqfzOmPffeSIow/W5xFmHA5nOSbr++b+sFDfP0FmzJxiXvvys29bptvWPOP01Ssvva3LXCOFO4pMKEtJSZZ9pk2SLz7/RhobGs0w5190puQM6N9qXLGxMdKsoe/UM06QkaOGmekSERGFql4VbAp3FklZabnU1tZKc/Ou2R4zbpT9aBcnEOwzdaIMGzHY7isSGxMrURpkZn38pRQXl8oppx5rwsTihcvl6y+/lwsvOVvKyspl1idfygknHiWpaSmStylf3nz9fTn3/DMkLT2lVaAA7+fewebh+5+WKdMmysGH7i/h4WFSXFQqzz79spx48tEyaHCuCRrPPf2KTJg4riW0ODwDWlRklLzx6rty/iVnSlZWZqvpbinY1uY8I9hUVVbJj8891bQvQqiqrKyWc84/TWJiouWj9z/T51UmwCxasEx+mD1PXzvdhKSNG/J0uu/JeRp8EOa8LV+60n5EREShBgeuMTExWh4lSUafdLuve/WKYIMajfy8AonWAhiFdlxcrAaEts+iOYFg3ZqNdh/LMccdJtP2nSLPPPmyHHDgdBkwMNv0r9Zw8fILb8sJJx9lwgYgPKF/fv5WeefNj0yNTs6Afh0ONs5jvBcWLFgiSzQ8nHzqcRJmL8a8OYtNODlLp+HZsNkz2IwcOUzeeetDE4TOOPtk+ebL2a2mC/7mGcEmKzNDDjp0PzOcv2U49bTj5cXn35BBQwbI+AmjzWsN9U3y+ivvyP4HzZBRo4ebfkRE1Ds0NTVJdXWNlOjBfF1tneTkZku0HuC7Va9oY4NQk5yabE6TJCTEtxtqPJ1/8Zly8603tHQo2Bsa6k3Nz1tvfCAP3feU6Z5+/GVz+qahHm1OKuSFZ1+Tv914h9z/n8dMTU69vidYykvKZd36TfLw/6xpo5s7e4GpzWlooz0LAs9Bh+wnOzSALFuyyu5rCdY84zRUVVWVfD7rm5Z5e+yhZ6S4qES/EMFbB0RE1DNQZqLsRBmKshRlqpuFfLDB6SfU1Pg6BdJZkZFRkpqWLGefe6r8+vfXtuqGjRgiC+YuFpzpuuFPv5Trfv8TOf2sEyVRN4pgSUpNMrUvv/zN1a2mfdY5P2o3RaPG6pBDD5CvvvhOyisq7b4StHnGabn4+Hg59sQjWs0bugmTxthDERFRb4SyFGUqyla3Cvlgg5oVFObBhFNZg4cMlO++mWPuAwNoR/LYQ8+a6QE+eJyXxKmdZUtWS3FxmekPEZER5hQR7jEDmVkZJgFjQ8HVVfPnLmk1vLdBA3OlsLBI1qxZb8aPK5LQhuWbr2bbQ7Rt7PiRkp6RasKMp7bmOVCoFRo7bpRpJO2sCyzXow89Y+6bQ0REvRvKVGf/7kYhH2zQUBhBJNgOOnimREdHy63/uFdu/fs98uxTr8i0GVMkKTlRJkwaKwX5W+TWm++Rf958t+Tl5Wv/BPudGiy04N+5s1BuvukOE4iGDR8i/fv3lbvveED++ufbTCPclNQke+jdoTHvcSccaRr3Ytr/0Gng9A+mGwjUqhx25IEmYDnam+eOGDdhlIwYMVT+fecDctst95hTW6NGDZc+Ge5vdEZE5HYoU1G2ulXINx7GFTe+rnoKFtSW1NbUSVx8nGnj4nAa4UZFRZmrqLpDsKcR7PGhvU1Nda3ExsXsdhk6ERH1Xt1dtu5JvaLxcHfCzfoSEtEgeVeoAZzSiU+I77ZQA8GeRrDHhzCDdcNQQ0REvcVeH2yIiIjIPRhsiIiIyDUYbIiIiMg1GGyIiIjINRhsiIiIyDUYbIiIiMg1GGyIiIjINRhsiIiIyDUYbIiIiMg1GGyIiIjINRhsiIiIyDUYbIiIiMg1GGyIiIjINcLy8/Ob7cchqbM/rb5u7Ub59233yy9/d40MHTbI7mspLiqRv9zwT7nosnNk6vRJdl+Rqqpqeem5N2TWx19KdXWNxERHybQZU+T8i8+UjD7p9lAi993zqHw262u59Irz5NgTDrf77lJZUSW3/O0uKcjfKn+66Tdm+jU1tXLbLffKkkXL7aF2GT9xjPzuhp9JbGyM3YeIiKj7dLZs7Q1YY2Pbsb1Qw86tsmD+YrnqJxfJ/x75l/ziN1fL1q3b5aY/3CYbN262h9zl6y++k8rKKvvZLqtXr5P1Gqx8OejQmfJrDVue3elnnShRUZH2EERERNRZDDaqublZ3n3rI2lsbJQb/vxr2f/AGZKekSbTZkyWP950nWT1z5QXnnlN6urq7XeIDBo0QEpLyyR/8xa7jwXj+OLTb2XQ4FxJSkiw++6C983cf1qrbtz40RIREWEPQURERJ3FYKOKi0tl7g8L5KRTj5XMrAy7ryUhIV5OPOUYWbtmvWzJ3xVicnL7a5ctX33xnQlGjsKdRWbYGTP3sfsQERFRT3F1sGnWf2Vl5aZNjWdXVlomTU27wkhxYbEJJ6hN8WXgwByJjoqSnTuL7T4i0dHRcsCBM2T+nEWyY/tOu6/IvDmLzbBDvNr1OKqranabH7S/ISIioq5zdbCpqKySW266S6669LpW3W9/dZNs9wgjJSVlZlh/wsLCTOdt5Ohh5u+qFWvNXwSU2d/Pk333myrJyUmmn7dXXnp7t/n58L1Z9qtERETUFa4ONmjj8s87/iwvvv5Iq+6BR++Qfv0y7aFEUlOTJTEh3n4WuMysPjJl2kT58vPvTPubTRs3y04NTDP2838a6vQzTzTT9+yOPm73K6uIiIio49jGRiUlJ5q/BV4NgR3btu2QuvoGSUtPtftYUItz4MEzJS+vQDZr9/UX38uQYYMlZ0B/e4jdxcXHmvF4drzMm4iIKDgYbBTuUYN7ybz/7iwpL6+w+1pweumNV98z7W8G5GbbfXcZPGSg5Gr/b776Qdau2SD77rcPr3AiIiLaQxhsFILIaWeeZG7QhzY5K5atMo16N67fJHff8YCsWbVOzvzxKRIdHWW/Yxf0mzJ1onz0/qdSX19vLt1ui6/Gw+Xl5a2urCIiIqLOYbCx4TLvP/zlV9K3b6bc9Kd/mUa9//ebv0lleaX89R/Xy/CRQ+whd7fPtAmSnJwo02dMkZTUZLuvb74aD991+wNSW1tnD0FERESd5dqfVOiKhoYGqaqslviEOImM5B2BiYjIXfiTCnsZhJnklCSGGiIiol6GwYaIiIhcg8GGiIiIXIPBhoiIiFyDwYaIiIhcg8GGiIiIXIPBhoiIiFyDwYaIiIhcg8GGiIiIXIPBhoiIiFyDwYaIiIhcg8GGiIiIXIPBhoiIiFyDwYaIiIhcg8GGiIiIXCPkg01YWJg0NTXZz4iIiKgrUKaibHWrkA82MTExUl1dYz8jIiKirkCZirLVrUI+2CSnJElJcan9jIiIiLoCZSrKVrcK+WCT0Sdd6mrrpLCw2O5DREREnYGyFGUqyla3CsvPz2+2H4esurp6yc8rkOiYaElNS5G4uFgJD2e7ZyIiovagTQ1OP6GmBqEmJzdboqOj7Ffdp1cEG0fhziIpKy2X2tpaaW7uNbNNRES0x6ChMNrU4PSTm2tqHL0q2BARERG1hedziIiIyDUYbIiIiMg1GGyIiIjINRhsiIiIyDUYbIiIiMg1GGyIiIjINRhsiIiIyDV4gz4iIiIX4w36QhB/UoGIiKhz+JMKIWj92o2SnJosGRlpdh8iIiLqKPwIZllJmQwZNsju4z4hX+2B00+oqWGoISIi6hqUpShTUba6VcgHG7SpweknIiIi6jqUqShb3Srkgw0aCqNNDREREXUdylSUrW4V8sEGVz+xoTAREVFwoEx185XFTAxERETkGgw2RERE5BoMNkREROQaDDZERETkGgw2RERE5BoMNkREROQaDDZERETkGgw2RERE5BoMNkREROQaDDZERETkGgw2RERE5BoMNkREROQaDDZERETkGgw2PQi/plpVVS2NjY12n65paGiQmhr3/vQ8ERFRR4Xl5+eH9G+XL1+6UsaMG2U/C1z+5q3y+MPPSnV1jXkeGRUh6elpMmPmPjJtxmSJjIw0/XvS+nUb5YlHn5ejjz1M9j9wht23cxCOXnj2Ndm+rVAuv+p8SUxKsF8hIiJqW2fL1t7A1cHmmadekv32mybpGWmmX2lpmXz+6TcyVsd34ilHS0REhOnfU1DDsmljvvTrlynxCfF2384rKiyW8opKGTgwR8LCwuy+REQUDLVVIpUlInGJ2iXbPf2o12PoimKRpD44kLZ7emjv9Z7m5mDj6lNRkeERMnT4EBk3YbTpUEty+lknyYrlq2X7tp32UPYposoqKS8v3+3UTlNTs1RWVLWc9tmwfqPU19X76L/JnGZy3lOooWPjhjzzuiNc56dv30yJjom2+1jwfkwb84B58dTWvCUlJUpmn3T7mcWZLwyP+fTkOc/o/E0TnNcryiuDduqMiKg32bZOZPMKPVBeqfvPdnaDCECbl+v+vMLu4aW91yl4XF1j88Izr8rZ550mOQP62X13naI6/eyTZPSYESYsvPnae7J08UqJi4+V6qoambTPeDnp5KMlKjrKFO4P3/+0DBySK0uXrJCIsHC5+PJzJTklwfQfNXaELFm8XBrqNCzoln/6GSfKvDmLJD9/i9TV10tMdLScf9GZOg/9W8Z13ElH7jbthKR4EzKGDRsiZ55zisTGxkhZabm88Pwbkp+Xb2p4KsurZNqMSXL8SUeZ2qYvP/tWVq9eJxdcdJaZV2f4PA1UEZERGkia5MCD9pUjjj7YDO9Mf8KkMTJv7iKp0+BTU10ro0YPb5kmQs7s7+bLB+/PkuioKP0yN5lxOctARLQ3QA3LmjkiiXrsWLZDZNBEfWxV/rdobtKDQD1+1GNWKddj5bxlIkOm7Bquvdf3JDfX2ERcd911N9qPQ9LOHYWSmdXHfha48rIKDQzLZfzEMZKcnGj3Fdm6ZZusWrlW9p05VRLi4+X9dz+R4uISueKaC+WIow6WSZPHyVdffGdCx5Chg7TwrzNBpVn/XXbFeXLUsYea8Tn9wzUwXH7l+XLwYfub8b//3iyZOnWinHP+aTJzv2mmXc3OncUmyDjvGTFqqPTJzJBlS1bJ/HmLzLSP1vFOnjLBvJ6Wlmxe//qr2VK4o0iu+eklctgRB8qIkUNl9vfzZEButs5DkmzasFmKiorNPCOAvKShBqekrv7pxXLUMYfK0OGD5aP3P9NQEy4DBw1omX5Nba1cfNk5ZphhIwbLV1/OloyMdOnbL1NKistM2DrmuMPkjLNPlgMOmqH9Sk0gHDlymISF85QXEblf6TaRiiKRfsNEKou1h4YUnEZylOjr6+aKbNsgUrhZJEzDC2pj0vT4Lzqu/df3tM6Wrb2Bq09FIYxUVVmnZdAhZLz/7izJ0WCQmZUhJaVlsm7tRg0NB5nTOoD2ODP2myqrV65raXgMM/efJskpSfazXaZNn2RqS8K1wO/XP8vUeowZP8oEDDwePnyIBoMSTe27Tkk5ajVgREREmvdCalqKXPOzS2T02JHmeXVVtaktccIEAs1Pfn6Zz5qTgoKtsm37DtMwOT7e+tYM0jBzwIEzZMmiFbsti7O82dn9dL4zpbSk1Dyv18OLRj3MwHwBanpO+tGxcsppx2mI40V0ROR+ODtfukMkVneTCalW+5pyDTmofYG6Kj1IXmPV5kw4VGTkDJGqEus1aO916l6uLqlwmuWJR56XW2++13S4IgmF/WlnnGCuisJpp8rKann5hTfkzlvva+k+++Qrc1qowdmKVaANjaM0EERFBTbs6LHDzdVMd9/5oDzw3yfk6y+/N6eTHLh6q7KiUm675R557OHnZO4PC1va8XhDcMG0cYrMU2bfPh1alj4Z6TJlynh5+cU35Y7b7pN33vpI8jblm/Y5RER7AwSTKj3WS84UPUgVSeun/XTXW4WaG1Wlu+mGOpGMXC1E9RgwOl4fD7Beg/Zep+7l6mATFxcr1/zsUrn51htMd+PNvzc1D06NBuAy8P32ny7HHH94S3fSKcfICaccre/v3vrCpKQkufSK8+Snv7xcxo0fJYsWLJN77nrQNG6Gvv2yzGtXXH2h5Ob2N6fI7r3rIdlSsM283h1QK3PkMYfK767/mRx59CEmaD360DPy7tsfmdNdRERuV7pTpLFBZPt6kWVfiOQtFcGxXcl2ewB9jEptz1NKra50au916lZ79bkFBJzoqGjp2z+r5copdCNGDZNhwwd3+71ucLUR2r1kZfWRAw+ZKVdee6GZ7tIlK83ruDIJYQKnnhA2rrj6AtO2Zs2qdeZ1TwhJaLxcXFRm97EU5G+VlLRkiY2Jtfu0DY2HUfuDxsqTp4w3bYVO/tGxsnrFWqmsqrSHIiJyJ1z9VKYBJirGOg3ldHEJVi1OPS5ODbOCD2pxHB6V4u2/Tt1qrw42qVrgjxw9TN5962NTC4JCvbioVJ56/AV59cW3u72GAvfUefC+J2TnjiLzHJegby3YLmlpKWbar730jjz95MvmEm3M2+bNW6S4uFRSUlPM8J769usj/bP7yUcffGqWAaeO0Eh69nfzZPyEsaYdUCDyNhXIv//1P1myaLkZR21NrRkPTplFaQgkInKzGj1+Q5c5yLoSyumyR1qhBlc3JWrQidTgs2ODFVhqyvXxRnsEqr3XqXvt1cEGDXyPOvoQGTFyiNz/n8fkT//3D7nr9vtMTc6xJx7R7Y1lcV8dNDi+584H5I+/v8XMw+ChA+Wgg2eaaeO0WENjo/zjb/828/bsUy+b94ybsPsleqhdOuXUY828Yxn+fP0/5PlnXzPjmjpdv5UByh2YLYcfebC8/tq7Zhx/+8sdsnNnkZxy+vGmMTQRkZuVbrfa1SS1vkWYaUCMU0toVByhx3jZI6y2NEs/F1k3v/UVUwg1bb1O3cu197HpKJwWQmPimJjogGs3ggU30quprTFtenyd/sKl57iqCvfZCaQRM8ZXW1sX8PC+OOsjMiqSgYaIyBctPVEjg/Y0Yb6Og9t7fQ/inYf3AggA5nRLD4cawDTRRsZfmx4EC8xbwFdm6fg6MrwvzvpgqCEi8iNMJDK6jdDS3uvULbi6iYiIyDUYbIiIiMg1GGyIiIjINRhsiIiIyDUYbIiIiMg1GGyIiIjINRhsiIiIyDUYbIiIiMg1GGyIiIjINRhsiIiIyDUYbIiIiMg1GGyIiIjINRhsiIiIyDUYbIiIiMg1GGyIiIjINUI+2ISFhUlTU5P9jIiIiLoCZSrKVrcK+WATExMj1dU19jMiIiLqCpSpKFvdKuSDTXJKkpQUl9rPiIiIqCtQpqJsdauQDzYZfdKlrrZOCguL7T5ERETUGShLUaaibHWrsPz8/Gb7cciqq6uX/LwCiY6JltS0FImLi5XwcLZ7JiIiag/a1OD0E2pqEGpycrMlOjrKftV9ekWwcRTuLJKy0nKpra2V5uZeM9tERER7DBoKo00NTj+5uabG0auCDREREVFbeD6HiIiIXIPBhoiIiFyDwYaIiIhcg8GGiIiIXIPBhoiIiFyDwYaIiIhcg8GGiIiIXKN33aCvuFTKyiqltq6eN+gjIiIKgLlBX3SUJCcnSEZait3XvXrHTyrUN0h+wXaJjomStJQkiYuNcfVPrhMREQULKgKqa2qluLRc6mrrJSc7S6KjIu1X3adXnIpCqEHSzOmXKfFxsQw1REREAUKZibITZSjKUpSpbhbywQann1BTszdUnxEREXUnlKUoU1G2ulXIBxu0qcHpJyIiIuo6lKkoW90q5NvYrFi9UUYNH9ip00/4qfbaugZpqK+XuoZGadTOTY2OsU4iIiMkWrvIqCiJiY6U8HBe6EZERP6hHFy5ZpOMHjHI7uMuIV8K4gPoaKhpaGiQ8vJK2bGzRFNphVRV12q4aXDdlVRYHiwXlg/LieXFcmP5iYiIfEGZ6rby0JPrDu/LK6qlsKjMFPZ7Iyw3lh/rgYiIaG/jmmCDWorCYg00VSzQAesB64O1N0REtDdxRbCp18K7qLjcnJahXbA+sF6wfoiIiPYGvT7YoEaiWAtvN58v7AqsF6wf1twQEdHeoNcHm9LyKoaadmD9YD0RERG5Xa8ONmggu7ecfmpqbpKamlrT4XFHYT2xQTEREbldrw02OLXi9obCzfqvpLhUNqzfJCuWrpa1a9abDo/Rr7ikzB4yMFhfPCVFRERu1muDTbXLL+euq6uX9Ws2SH7+FqmsrDIhx4HH6FewuUDWrd1gfiQ0UG5fb0REtHfrlcEGdxR2831qamrrTM0Mfo21PdXVNbJOh0UQCgTWG9YfERGRG/XKYIOfSeisqupqWbxwmWz18eumFZUVsnDBEnOKp6qqShYtXNpyumf9uk0yf87C3Tq8nrcpX1auWC2NjbvmC/2d1x2NTY2yauVaMy5/0H5m04a8lvARpv/Cfdx5Gf3wDxobGyVvo74nwLY3XVl/REREoaxXBhv89lNnhYdHyKyPv5D33/nIBA1P3341W1554U1pbKiXnTuK5MlHnpPNGzeb1776/Bt58tHn5LVX3pHXX3m3pdu2ZZts1e6Jh56VHduKzLAw++sf5OH/PSlffvqV3UekqKhYnnz4Wdm8Od/us7ttW3dIvb18CC65g3Jk4JABrcINHqPfgIHZLeEGtTxFhcXmcXu6sv6IiIhCWa8MNvhBy86KjYmWyVMmyJpV60zQcCAYLFuySoYOHSRp6al239YGDxssN9z4G7npH9e3dKPHjJC+/bKksbFJduzYYYbDDfHWrdsoKSnJsnF9ntTquGFr/jYNLQ0yaFCuee4LGgt7ampqloT4hJZw44Qa9PPm/V5/urL+iIiIQlmvDDb4le6uGDV6hDnVs2LZaruPSEH+FsnbsFmmzpgsEeERdt/AZGZmSJ+sDFm+bJV5XlJSYmpxZh40XUqKSqSs3DmdtdEMh+F9QXsZz/YvaCScn1cgpaXlJsgMsGtv8LikpEw2byowwzgQoBo8Tof509X1R0REFKp6ZbDp6g35MvtlyLARQ2XJwuUtPzewYslKU1MzaMhA89yXcg0Yi+YvaWlfs3TJCnNFUlx8nL4vV7YUbDM1P4U7rJqgceNGS5POK2pq0B9ta7Jz+pnhffF1KbZnuElKTDShpqysXAo2b2kVahy1te03OOYNDYmIyK16ZbDpKtTITJo6QfI25MmO7TtMg+LlS1fIiNFDJSk50R5qd4U7C+XtN95vaV/z0XuzpLamxrw2ZuxI2abBpqSwRFatWC39+veVnIEDZEBujqmpKS8vkx1bd8jI0cPN8D7t3ka4hUcTGw0m9gMfcOqKiIhob9Urg02YZynfSYOH5EpkdJSsXbNBdm4vlB07i2Ti5AktjXF98W5j88vfXitJSVYQ6pfTV8LDw2XTxjzTrmb4yMGmPc/IscNNTc2m9ZvNaabc3AFmeF+iIqPsR7tgfnJysyU5OUnKKyrMlVspKUmSPWBXw2FPUVHR9iP/grH+iIiIQlGvDDYRkR1rA+NLRp90GT9xtDkdtXjhUsnISJdBg/yHjvakpqZKzsAcWbZ0hZSWlMmwYUNM/5zsflJWXCpLFy+Xvtl9JTXDd8NkiImNloiIXcuG4IIrnxBkKqsqZfPGfMnbkG8ep6YmmcDjGW4iIyNNmGpPMNYfERFRKOqVwSY6CAUzAsH4CeNk44ZNMvvbeTJu/Gi/bV8cjfX1Ul5WbhruOp3TRidKQwVqadCAODYuRrL6Z5r++BsTGyML5y2WIUMHthk8ME+pqSn2MwtqVxBkTI1Pc7Pp8Bg1N94VL6lprd/rTzDWHxERUSjqlcEmMmr3UzadMXBIjiQnJUpleYWMHj/K7usfTlvdeP0t8off3NTSrVhqXQkFqKWpq62TPll9JCHBuhwbf/vn9JP6+kYZOXqE6deWzKx0CQu3EgsaB+dtzG8JNQ48Rs2N51VROA3WJzPdPG5PsNYfERFRqAnLz88P6damy1dtkDEjB9vPLGirsmNnif3MfXDVE+5mHCjU9Awa6vveNr5k9kk1QYiIiPZOvspWt+iVpRsK5fi4GPuZ+6ChMK6m8rzbsD9YF6h5CjTUYL0x1BARkVv12hIuzsXBBtBgePjIYZKamuwz4KDtDe67M2LUUElM8H+Juje3rzciItq79cpTUY7yimqpqqq2n7lXY1OTuV9OS3sa/RcbH2tOQXVEfHycJCW23UCaiIjcj6eiQhQK6cioSPuZe0Xg1Ft8vDndhA5Xb3U01GA9MdQQEZHb9frGFilJ8bzhXDuwfrCeiIiI3K7XBxvclC4tLYnhxg/TFkfXD9YTERGR27ni8hjcHC8dhfdecFqqI7A+sF6wfoiIiPYGrgg2gBqJjLRk00CWrIbCWB+sqSEior2Ja4KNAw1kM9I14OyllzVjubH8bChMRER7o5APNmgj0uzxcwKBQC1FUlKCucNucnKiKexxWsZt7XCwPFguLB+WE8uL5WYtDRER+YMy1c3tUkP+PjbrNxZI36x0Lbxj7T5ERETUWVXVNbJte5EMGZRt93GXkK+xSU5OkOLScvsZERERdQXKVJStbhXywSYjLUXqauulsLjU7kNERESdgbIUZSrKVrfqFY2Hc7KzpKysUvK37jBVaB1tc0NERLS3QpmJshNlKMpSlKluFvJtbDwhaeJDqa2rZ7ghIiIKABoKx0RHmdNPbq6pcfSqYENERETUFtfdx4aIiIj2Xgw2RERE5BoMNkREROQaDDZERETkGgw2RERE5BoMNkREROQaDDZERETkGgw2RERE5BoMNkREROQaDDZERETkGgw2RERE5BoMNkREROQaDDZERETkGgw2RERE5BoMNkREROQaDDZERETkGgw2RERE5BoMNkREROQaDDZERETkGgw2RERE5BoMNkREROQaDDZERETkGgw2RERE5BoMNkREROQaYfn5+c32415j1dxaWT2nTraua5LK4mZpbgqzX1FhHo89Netw9r9wjXMJaWHSf2iEjJgWLSOnxtgDERERUW/Wq4LNlnUN8vkLlbJ1bbPml3AJ03/i/FXOX08IMi2PNNxgKOtxk/4fXbP0GxYmh56dqEEn0gxJREREvVOvCTaopXnvgUrNJJEaaiIkXP+F4UxaGOIMwoqfUKNhJjE9TCYeFiYDx4dLWj/r7Fvx1ibZuKRRFsyqk7LCepHwRjn+qsSQqb2pr2+Q+ro6iU+It/sQERFRe3pFGxvU1CDUhDVHSXhYpESE4a924RpwNOSg9ibcowtD2LEDz7iDI+SCv0fJlGMiJSNHX4/QhdYOj/c5JkouviVBJh4cK9IUKe8+UCEFazXkdNCC+Uvk3DOulMceetbu0zENDQ1SVlpu/jrP777jAbn+tzdLaUmZ6UdERETt6xXB5vMXq3bV1Giw2RVgrFCDTv/X8tg811Az9qBwOfR8fY8GGX/w2uEXxsqEg2OkuSlCPn9Jp9UBOL31zZezJTunv6xYvrpTQWTTxnz54+/+bv5CZGSkXHDxmXLtzy+T5JQk04+IiIjaF/LBZvXcOtm6pknDyq5Q43kKyvMf4PQTwkZSepMcfE7gi3fYebGSkhEhW1Y3yqo5tXbf9u3YvlNWrlgjp5x6rDQ1NsmaVevsV1pr1NdQK1NcVCI1NbvGj1NOZWXl0qTzjL/l5eVm/lNSUzQsZZlhqiqrWvp7wngwTowb8DqGwzTwHiIior1NyAcbhAycbgqXCI0urUONN6dNTVhYs4w7RIdso6bGG4addFiMRISHy2qdpneI8GfVirUSHRUlk6aMlyHDBsnXX/2gQaPRftVSVFgsf/3T7XLVpb+Wn19zvVxy3s/kmSdfNqecFi1YKrfcdJds14CEv3fd/oDU1tbJh+/NanmMU12/+cVfpGDzVnuMVoh59qmX5b93P2KmV6lB5t47H5KrLrlOfv/rm+Tyi34p993zaKsQRURE5HYhH2xwSTeYKGPaCPsONQ7EERT6Ayf4H8afwRMikIukYF3rYOIPalu+/mq2jBk/UpKSE2XfmfuY01E7dxbaQ1i1Kv/7z+MSGRUhDz3+b3nqhfvlxr//Xj6f9bV8+vGXMnX6JPnnHX+Wfn0zzd8///U3EhvbugHzuPGjJSkpSRYvWm73sWqKFsxZLIccvr9ERITLc0+/KsXFJXLfQ7fLg49rQPrPzbJm9Xp5+/UP7HcQERG5X8gHm4piDTZINFaqsXr6Y9fWINik9e34oqX1QxVPs1SWNJpxtGdLwVZZv26TTJ+xj043TIaPHCrx8XEyf84SewiRDes3yaZN+XLehWdKYlKC6Tdq9DC59c6/yGFHHmSetyclNVnDzSiZP3eR1NVZjZsRWsI00IweO9IEqaWLl8vpZ58sqWkp5vW+/bLk6GMPk/nzF0tlBU9LERHR3iHkg02gzGko/DWBxKrl6RwrGJlH7YSbZUtWSVxcjAaPJNOupampWQYPzW0VQBAqoqMiJc0OHI609FTTSDhQBxy8r+TlFchm7XDq6ftv58mkKePMeCsrqqW8tEL+c9dD8vOr/q+le/Wlt7R/uc5LnT0WIiIidwv5YJOYprOIgGFChvPXH6tGB0PgPjUdVbS1wTTiTUxtv3YIbVq+/uI7yd+81bR/uerS60wbmi8+/dY0JkZNTTANHjJQcnOzZd4PC2VrwXZZv3aD7H/gDFNTBJHRUXL8SUfKuRed0dJdeuV5pktItGqKiIiI3C7kg02/oeGmNsbcJdjONE7tTFtw872OWr+ozkwnkDsQ52/eItt3FMpf//F/8uLrj7R0jz19r+Tk9pdF85ea4VAz09DYJDt0WAdqgpYsXiGFO4vsPu2L1uAyZepEWTh/icz5YYGkpCRL7sAc81piYrzExETLwMG5MnP/aS3dlH0myPiJY8x7iYiI9gYhH2zwW074+YMmQbsX7XCaSYOB73Bj9UMdxqJZ9dLUgWzT2NgsC2bhfjlNMnwqgkDb4WnuDwslKzOjJVw4EjRkTJkyoaVty4DcbBk8JFeee+oV2b5th7k0G+HknjsekGVLVtrviTMzjTY7aJDs7xTYPtMmSHVNrbz39sdywMEzJcG+K3FmVh/ZR0MPbhCImiK8H9P65813y333PLbbVVpERERuFfLBBj9xgN9ycsJNk/0bT064cf45rFMz4VJeLPLpM9VWzwB88lS5lBQ2Sl/8MObUWNPPOc3jDTfhQ7DBJd5OuPA0cco42VawXVavXmdqS6685kJJSkqUX1x7g5xz+hVy1+3/k9POPEn2P2hfM3xWVqYcfdzh8p9/PyLX/eyPUlxcavp7y+iTLgMHDTBLO2HiGKunwnyefd6pMlnn5/rf3Cxnn3q5mRameeElZ0lERAeueyciIurFesVvReEnFV78Z5n5SQXrd6Jwx2F0eNUKH7gE3EQcU9vRLI3N9fr/BhlzYLgccV6i33vaoKbm46dKZfEX1fg9TTnrd2mSPSxawsNxebnvYNNZuPS7VjvU6vhqOOz8pEJHGhV7wzhQUxQTG7PbZeNERERu56ofwTQ1Nwg2Yc3S1IzanQZEHElIa5JJh8XK0Ikx9iXdIkVbGmX9omqZ92mllBU2Sbi+57grkmX09HgTaJyOiIiIeo9eE2wANTefv1ApW9fifjUINho8nL8Kf60TU1gknK5qsgKOaZ9jPW55XQOQ865+QyLlkLOSJGd4jBlvd9TWEBERUffrVcHGgdqb1XPqzF2JK4s1pjR5hBANJCa6mFNSuJIKzzTcNOHyb6t9Dk5LJSSHS18NNCOmxcioqfF2mGGoISIi6s16ZbBpj3NVEW6Yp8/Mczxu1nDjLCyiS1i4Z5AJM4/Naww2REREvVLIXxXVGQgm6JzQgpoY/J5SRGSERNodHqOfOaXValiGGiIiot7KlcHG4QQVJ7SEmxqaCLtjoCEiInIbVwcbcEKLE2SQX6zOsx9DDRERkRu4Pth4ckIMwwwREZE77VXBhoiIiNyNwYaIiIhcg8GGiIiIXIPBhoiIiFyDwYaIiIhcg8GGiIiIXIPBhoiIiFyDwYaIiIhcg8GGiIiIXIPBhoiIiFyDwYaIiIhcg8GGiIiIXIPBhoiIiFyDwYaIiIhcg8GGiIiIXIPBhoiIiFyDwYaIiIhcg8GGiIiIXIPBhoiIiFyDwYaIiIhcg8GGiIiIXIPBhoiIiFyDwYaIiIhcg8GGiIiIXIPBhoiIiFyDwYaIiIhcg8GGiIiIXIPBhoiIiFyDwYaIiIhcg8GGiIiIXCMsPz+/2X5MRCGqudn319Rff9KdW1iY/ag1f/2JyB0YbIhCmBNcrL9aIOtf/KOOCcO6M4GmuSXYMOAQuRODDVGIQpixOvNMFn4ksm5+uBQXhElTgxmEAhAeKZKW3SxDpzTJpKPQR2OOyTn4y3BD5DYMNkQhyAk1qJwp2dEksx6LkMJNLIS7KmNgsxx+SaOkZoYj3zDcELkQGw8ThRjPUNPUrKHm0XCGmiDBesT6xHrF+m1Z10TkGgw2RCEIZS0K34UfamGcx69pMGF9Yr1i/TLTELkP95hEIWRXDUKzNDU1y/oF/Ip2B6xXrF+sZ9baELkL95pEISfMFLRNTU1SvIVf0e6A9Yr1awUanuYjchPuNYlCjalBEFPw8uqn7oH1agUbfWL+R0RuwWBDFGI01piaBOtUCXUXrF9zGkr/EZF7MNgQhSBzioQ1Cd0LoYbrmMh1GGyIQohT0LLVR89w1jMDDpF7MNgQERGRazDYEBERkWsw2BAREZFrMNgQ7QUOuUDkqvutv97aeq2jTvyFyOX3ikw/ye7RjqhYkSH7WB0eExF1FYMNEe0xWYNEDjjT6vCYiKirGGyIqJW0/iIjpovkjNr1GB0ee0tIFRk+zf/r4NTKjNjXGhbvAfxN7ScSpnshdOnZIpmDrdegZdz6PswLEVEgwvLz83mdI1GIcG7z39jQKHV19fLM7xLsV7oGp5lG7y+y4huRz5+ye9q8X8NppElHixRuFklMF4lPtoarqxZZNEtk7tvW87EHi8w4WSTGnsW6KpHyYg0rfcX8yOQPb4mMOsAaxhkHVJWJzH7TuvvvQT9ufQrKmQdMf8oxOu54+wXdS23fIPKZvla8xe7XRefdVinR0VESERkhYWFhEh7O4zwiN+A3mYh86pMrskPDxJt3iCz/SncWUSLjNMzkjhPJGiIy+SiRiBgNI19bw2xYZIUaB2pcxh8iEh0nsuwLkaevt4IRwgrGU7BS5PvXraCD7psXdbgvrdqZCYfpUVeYyJx3RF75h457oc7PQJF9f2SPnIjIDwYbIvKpolDk21dFtqwR+eIZkfwVVijJGa3hZqxIvAaXojwNJC9bw3z1QuvalMoSDSW3iLz8d5Evn7Oe5y0Rqa0SiUsWSe4jUrJVpLnJ6ooKrCA1ZIq+niSy5gerdmjnJpH5H+r7S0UyNNz0H25PgIjIBwYbIvKpvEikdJv9RCHooC0Mwg1qYyIiNIxokKmvsV7H39Lt1mMHanamnShy7t9ELr1L5LifWKelcMffcH2/L8lZ+ppOZ+RM6z3oTvy5TjNFpx0rkphhD0hE5AODDdFeJCrGfhAAnAryhCDi/VMP3sNERtkPFELNkZeKDJ0iUlcrsn6hyLz3rNNO7WlqEtm2znqP062ZY3Xe4YmIyBODDdFeoGSbSEO91W7G8+olPO6rAaSpUaSmwu5pS8q0wokDVzAhcGC40h06vgaRjAG7Gv+m9LU6R0qWSGyiyI6NIi/fLPLp4yI783YPQ97KNLigZgiNlfEedF89L7Jltcjyr0W2r7cHJCLyIeK666670X5MRHuY82OMzU3N0tjYJIs/ijbPu6ooX2TgOJH0HJFBk6wwM3iyyJSjrQCCU0pz3rJCCxrv9hsmEhNnBRfU1EzW4dC/qsSqdcEVUwNGW5do9x0qEqmziWEydPywba3VpmbgeJFoXNmkYQavTTpSp9dHpL5WZMMCqyYHNTo4vVVXY9UoFWr4QTseTDtNg1Kk9sO4Jx5h3esGtTa4oqqrJh5VLxEREeZqKFwVhY6Iej/W2BDtBdD+5dMnRPKWi8Qligybat17Bpdz4zJqNA72vowaNS24ogmXZA/dx2r0O/d9q8YEbW9wOXfZTg0hI3WYc6yAhMbBjnXztJuvYUXHMfNUazzIDtUeNUNoLLz6e+2v4QmhZ9JRIvkrRWa/YYWoETNEDr/YCj/lhdY0nTY9RES+8D42RCGku+5j4wmnjgaMFYnQwxpczYSaFU/OfWy26mtv323VusAmj9DiCTU50Tqbm5f5Dh043dVngNW2BqHFF8wTapG2aWjyHAdu2IdLyHEqDSEomHgfGyJ34jeZaC+D4LB+nnVKxzvU+IJA4y/UAMIKxuevJgU1Qat/8B9qAO/dvHz3cTg1OsEONUTkXgw2RERE5BoMNkTUCtqxPPwz6zQUEVFvw2BDRERErsFgQ0RERK7BYENERESuwWBDRERErsFgQxTCwiPtBxRUXK9E7sVgQxRCnNv6O3fNTOkbhN8OoN0469VZz/w5BSL3YLAhCkGmoNUud0K93YeCyaxXXb8MNETuw2BDFGK0uDUFbnh4mIw9tEFSs1lrE0xYn1ivWL9Yz/hHRO7BYEMUakxNgn45w8O1E9nvnCqGmyDBesT6xHq1ftVbe5r/EZFb8EcwiUIIfgDT6Robm6S+vl4aGhrN3xVfxEj+khgp2x4hTY0sjAMVHtEsyVmNkjO+VkYfXCtRUVESGRlh/kZEINzYNTcMOESuwGBDFGIQapqaEG6azK98I9g0NDZq0NFOH6M/vrQYjtpmnWrC33DzK94RERESiQ6Pza96o1aMoYbITRhsiEKMU2OD9NLkhBsNNU1N6LSfPjaZxi6LGXB21xJUdNXgYbiGGev0kxVsEGrCNdRgHbK2hshdGGyIQpB3uEENTpOmGqtDf35tA6ahBbUyVpslq4aGoYbIvRhsiEKUE26sDLPrsdOfxXH7sOqc8IL8YoWYXY8Zaojch8GGKIQhwOz6q4UwQo0prqkjNMIgyegjDYR2mGGoIXInBhuiXsAJON789Sf/wYWBhsjdGGyIiIjINcLtv0RERES9HoMNERERuQaDDREREbkGgw0RERG5BoMNERERuQaDDREREbkGgw0RERG5BoMNERERuQaDDREREbkGgw0RERG5BoMNERERuQaDDREREbkGgw0RERG5BoMNERERuQaDDREREbkGgw0RERG5BoMNERERuQaDDREREbmEyP8DkzfGW+ZiXeYAAAAASUVORK5CYII=;" vertex="1" parent="WIyWlLk6GJQsqaUBKTNV-1">
          <mxGeometry x="480" y="190" width="243" height="262.75" as="geometry" />
        </mxCell>
        <mxCell id="sDRr9QzIVoGOXBDVQPze-36" value="" style="edgeStyle=orthogonalEdgeStyle;rounded=0;orthogonalLoop=1;jettySize=auto;html=1;" edge="1" parent="WIyWlLk6GJQsqaUBKTNV-1" source="sDRr9QzIVoGOXBDVQPze-33" target="sDRr9QzIVoGOXBDVQPze-35">
          <mxGeometry relative="1" as="geometry" />
        </mxCell>
        <mxCell id="sDRr9QzIVoGOXBDVQPze-33" value="click on feature name" style="whiteSpace=wrap;html=1;rounded=1;glass=0;strokeWidth=1;shadow=0;" vertex="1" parent="WIyWlLk6GJQsqaUBKTNV-1">
          <mxGeometry x="753" y="160" width="120" height="60" as="geometry" />
        </mxCell>
        <mxCell id="sDRr9QzIVoGOXBDVQPze-38" value="" style="edgeStyle=orthogonalEdgeStyle;rounded=0;orthogonalLoop=1;jettySize=auto;html=1;" edge="1" parent="WIyWlLk6GJQsqaUBKTNV-1" source="sDRr9QzIVoGOXBDVQPze-35" target="sDRr9QzIVoGOXBDVQPze-37">
          <mxGeometry relative="1" as="geometry" />
        </mxCell>
        <mxCell id="sDRr9QzIVoGOXBDVQPze-40" value="no" style="edgeLabel;html=1;align=center;verticalAlign=middle;resizable=0;points=[];" vertex="1" connectable="0" parent="sDRr9QzIVoGOXBDVQPze-38">
          <mxGeometry x="-0.1333" relative="1" as="geometry">
            <mxPoint as="offset" />
          </mxGeometry>
        </mxCell>
        <mxCell id="sDRr9QzIVoGOXBDVQPze-44" value="" style="edgeStyle=orthogonalEdgeStyle;rounded=0;orthogonalLoop=1;jettySize=auto;html=1;" edge="1" parent="WIyWlLk6GJQsqaUBKTNV-1" source="sDRr9QzIVoGOXBDVQPze-35" target="sDRr9QzIVoGOXBDVQPze-43">
          <mxGeometry relative="1" as="geometry" />
        </mxCell>
        <mxCell id="sDRr9QzIVoGOXBDVQPze-45" value="yes" style="edgeLabel;html=1;align=center;verticalAlign=middle;resizable=0;points=[];" vertex="1" connectable="0" parent="sDRr9QzIVoGOXBDVQPze-44">
          <mxGeometry x="0.2" y="1" relative="1" as="geometry">
            <mxPoint as="offset" />
          </mxGeometry>
        </mxCell>
        <mxCell id="sDRr9QzIVoGOXBDVQPze-35" value="is&lt;div&gt;super&lt;/div&gt;&lt;div&gt;admin?&lt;/div&gt;" style="rhombus;whiteSpace=wrap;html=1;rounded=1;glass=0;strokeWidth=1;shadow=0;" vertex="1" parent="WIyWlLk6GJQsqaUBKTNV-1">
          <mxGeometry x="773" y="250" width="80" height="80" as="geometry" />
        </mxCell>
        <mxCell id="sDRr9QzIVoGOXBDVQPze-37" value="Display info message&lt;div&gt;&quot;Only super admin can edit feature names&quot; &amp;amp; input is readonly&lt;/div&gt;" style="whiteSpace=wrap;html=1;rounded=1;glass=0;strokeWidth=1;shadow=0;" vertex="1" parent="WIyWlLk6GJQsqaUBKTNV-1">
          <mxGeometry x="913" y="260" width="167" height="60" as="geometry" />
        </mxCell>
        <mxCell id="sDRr9QzIVoGOXBDVQPze-47" value="" style="edgeStyle=orthogonalEdgeStyle;rounded=0;orthogonalLoop=1;jettySize=auto;html=1;" edge="1" parent="WIyWlLk6GJQsqaUBKTNV-1" source="sDRr9QzIVoGOXBDVQPze-43" target="sDRr9QzIVoGOXBDVQPze-46">
          <mxGeometry relative="1" as="geometry" />
        </mxCell>
        <mxCell id="sDRr9QzIVoGOXBDVQPze-43" value="update or remove or add permissions&lt;div&gt;&amp;amp;&lt;/div&gt;&lt;div&gt;make feature active or inactive&lt;br&gt;&lt;div&gt;&amp;amp;&lt;/div&gt;&lt;div&gt;click on Update button&lt;/div&gt;&lt;/div&gt;" style="whiteSpace=wrap;html=1;rounded=1;glass=0;strokeWidth=1;shadow=0;" vertex="1" parent="WIyWlLk6GJQsqaUBKTNV-1">
          <mxGeometry x="753" y="360" width="120" height="150" as="geometry" />
        </mxCell>
        <mxCell id="sDRr9QzIVoGOXBDVQPze-49" value="" style="edgeStyle=orthogonalEdgeStyle;rounded=0;orthogonalLoop=1;jettySize=auto;html=1;" edge="1" parent="WIyWlLk6GJQsqaUBKTNV-1" source="sDRr9QzIVoGOXBDVQPze-46" target="sDRr9QzIVoGOXBDVQPze-48">
          <mxGeometry relative="1" as="geometry" />
        </mxCell>
        <mxCell id="sDRr9QzIVoGOXBDVQPze-50" value="no" style="edgeLabel;html=1;align=center;verticalAlign=middle;resizable=0;points=[];" vertex="1" connectable="0" parent="sDRr9QzIVoGOXBDVQPze-49">
          <mxGeometry x="-0.035" y="-2" relative="1" as="geometry">
            <mxPoint x="1" as="offset" />
          </mxGeometry>
        </mxCell>
        <mxCell id="sDRr9QzIVoGOXBDVQPze-52" value="" style="edgeStyle=orthogonalEdgeStyle;rounded=0;orthogonalLoop=1;jettySize=auto;html=1;" edge="1" parent="WIyWlLk6GJQsqaUBKTNV-1" source="sDRr9QzIVoGOXBDVQPze-46" target="sDRr9QzIVoGOXBDVQPze-51">
          <mxGeometry relative="1" as="geometry" />
        </mxCell>
        <mxCell id="sDRr9QzIVoGOXBDVQPze-53" value="error" style="edgeLabel;html=1;align=center;verticalAlign=middle;resizable=0;points=[];" vertex="1" connectable="0" parent="sDRr9QzIVoGOXBDVQPze-52">
          <mxGeometry x="-0.3111" y="1" relative="1" as="geometry">
            <mxPoint as="offset" />
          </mxGeometry>
        </mxCell>
        <mxCell id="sDRr9QzIVoGOXBDVQPze-46" value="is&lt;div&gt;permissions&lt;/div&gt;&lt;div&gt;non-empty&lt;/div&gt;" style="rhombus;whiteSpace=wrap;html=1;rounded=1;glass=0;strokeWidth=1;shadow=0;" vertex="1" parent="WIyWlLk6GJQsqaUBKTNV-1">
          <mxGeometry x="761.5" y="540" width="103" height="80" as="geometry" />
        </mxCell>
        <mxCell id="sDRr9QzIVoGOXBDVQPze-48" value="Display error message&lt;div&gt;&quot;Permission set should not be empty&quot;&lt;/div&gt;" style="whiteSpace=wrap;html=1;rounded=1;glass=0;strokeWidth=1;shadow=0;" vertex="1" parent="WIyWlLk6GJQsqaUBKTNV-1">
          <mxGeometry x="936" y="550" width="120" height="60" as="geometry" />
        </mxCell>
        <mxCell id="sDRr9QzIVoGOXBDVQPze-51" value="Display success message&lt;div&gt;&quot;Updated feature successfully&quot;&lt;/div&gt;" style="whiteSpace=wrap;html=1;rounded=1;glass=0;strokeWidth=1;shadow=0;" vertex="1" parent="WIyWlLk6GJQsqaUBKTNV-1">
          <mxGeometry x="753" y="670" width="120" height="60" as="geometry" />
        </mxCell>
      </root>
    </mxGraphModel>
  </diagram>
</mxfile>
